<svg xmlns="http://www.w3.org/2000/svg" xmlns:xlink="http://www.w3.org/1999/xlink" version="1.1" id="Layer_1" x="0px" y="0px" viewBox="0 0 80 80" style="enable-background:new 0 0 80 80;" xml:space="preserve" width="80"  height="80" >
<style type="text/css">
	.st0{fill:#9FCAEC;}
	.st1{fill:#71B6E4;}
	.st2{fill:#0097D7;}
	.st3{fill:#CEE1F4;}
	.st4{fill:#003D5E;}
	.st5{fill:#F15759;}
</style>
<path class="st0" d="M62.4,70.5c0.4,0.7,0.6,1.4,0.6,2.2c0,2.6-2.1,4.6-4.6,4.6c-2.6,0-4.6-2.1-4.6-4.6c0-2.6,2.1-4.6,4.6-4.6  c1.1,0,2.2,0.4,3,1.1C61.7,69.5,62.1,70,62.4,70.5z M61.3,72.7c0-1.7-1.4-3-3-3c-1.7,0-3,1.4-3,3c0,1.7,1.4,3,3,3  C60,75.8,61.3,74.4,61.3,72.7z"/>
<path class="st1" d="M62,66.4c0.1,1,0.2,2.4,0.3,4.1c-0.3-0.5-0.6-0.9-1.1-1.3l0,0c-0.1-1.1-0.2-2-0.2-2.7c0-0.2-0.1-0.3-0.2-0.4  c-1.3-1.3-2.6-2.6-3.9-3.9c-0.2-0.2-0.4-0.4-0.6-0.6c-1.3-1.3-2.6-2.6-3.9-3.9c-1-1-2-2-2.9-3c-0.2-0.2-0.3-0.3-0.5-0.5  c-2.1-2.1-4.2-4.2-6.3-6.4c0.1,0,0.2,0,0.2,0c0.2-0.1,0.4-0.2,0.6-0.4c0,0,0-0.1,0.1-0.1l0,0c2,2,4,4,6,6.1c0.3,0.3,0.7,0.7,1,1  c0.1,0.1,0.2,0.2,0.3,0.3c0,0,0,0,0,0c3.6,3.6,7.1,7.2,10.7,10.7C61.9,65.6,62,66,62,66.4z"/>
<path class="st1" d="M58.3,69.7c1.7,0,3,1.4,3,3c0,1.7-1.4,3-3,3c-1.7,0-3-1.4-3-3C55.3,71,56.6,69.7,58.3,69.7z M59.5,72.7  c0-0.7-0.6-1.2-1.2-1.2s-1.2,0.6-1.2,1.2c0,0.7,0.6,1.2,1.2,1.2S59.5,73.4,59.5,72.7z"/>
<path class="st0" d="M60.3,48.8c0.1,0.7-0.1,1.2-0.6,2.1c-0.5,0.9-1.2,2.1-1.6,2.6c-0.2,0.2-0.2,0.3-0.4,0.4  c-0.5-0.5-1.1-0.9-1.5-1.2c0.2-0.2,0.3-0.4,0.4-0.7c0.5-0.2,1.1-0.6,1.2-1c0.1-0.4-0.1-0.8-0.3-1.1c-0.3-0.3-0.6-0.6-0.9-0.8h0  c0-0.1-0.1-0.2-0.2-0.3c0.3-0.6,0.6-0.9,0.9-1.2c0.7-0.6,1.7-0.9,2.3-0.3C59.9,47.7,60.2,48.3,60.3,48.8z"/>
<path class="st2" d="M58.9,55.1c0.7,0.7,1.2,1.5,1.1,2.2c-0.1,0.5-0.5,1-1.1,1.1c-0.9,0.1-2-0.6-3.2-1.3c-1.5-0.8-3.2-1.6-4.7-2.5  c0,0,0,0,0,0c-0.1-0.1-0.2-0.2-0.3-0.3c0.3,0.1,0.7,0.1,1.1,0c0.5-0.1,1-0.4,1.3-0.7c0.2-0.2,0.2-0.4,0.1-0.7  c-0.1-0.3-0.3-0.6-0.5-1c0.6-0.1,1.2-0.2,1.7-0.1c0.6,0.1,1.2,0.4,1.9,0.9c0.5,0.3,1,0.7,1.5,1.2C58.1,54.3,58.5,54.7,58.9,55.1z"/>
<path class="st2" d="M58.3,71.5c0.7,0,1.2,0.6,1.2,1.2c0,0.7-0.6,1.2-1.2,1.2s-1.2-0.6-1.2-1.2C57.1,72,57.6,71.5,58.3,71.5z"/>
<path class="st3" d="M57.4,50c0.3,0.3,0.5,0.7,0.3,1.1c-0.1,0.4-0.7,0.8-1.2,1c0,0,0,0,0-0.1c0.1-0.5,0-1.3,0-2c0-0.3,0-0.7-0.1-0.9  h0C56.8,49.4,57.1,49.6,57.4,50z"/>
<path class="st2" d="M56.3,61.5c0.2,0.2,0.4,0.4,0.6,0.6l-9.6-0.2v0c0.3-0.2,0.6-0.4,0.9-0.6l0,0L56.3,61.5z"/>
<path class="st4" d="M56.6,50.1c0,0.7,0.1,1.5,0,2c0,0,0,0,0,0.1c-0.1,0.3-0.3,0.5-0.4,0.7c-0.7-0.5-1.3-0.8-1.9-0.9  c-0.6-0.1-1.2-0.1-1.7,0.1c-0.1-0.2-0.2-0.3-0.4-0.5c-0.3-0.3-0.6-0.6-0.9-0.8c0,0,0,0,0,0c0-0.2-0.2-0.3-0.4-0.4  c-0.3-0.2-0.7-0.3-1.3-0.6c-0.7-0.4-1.7-0.9-2.2-1.3c0,0-0.1,0-0.1-0.1c0.6-0.2,1.3-0.3,1.9-0.3c0.7,0,1.4,0.1,2.1,0.2  c0.8,0.2,1.6,0.4,2.5,0.5c0.9,0.1,1.9,0,2.3,0.3c0,0,0,0,0.1,0c0.1,0.1,0.1,0.2,0.2,0.3C56.5,49.4,56.5,49.7,56.6,50.1z"/>
<path class="st3" d="M53,52.9c0.1,0.3,0.1,0.5-0.1,0.7c-0.2,0.3-0.8,0.6-1.3,0.7c-0.4,0.1-0.7,0.1-1.1,0c-0.3-0.3-0.7-0.7-1-1  c0.1,0,0.3-0.1,0.4-0.2c0.3-0.2,0.6-0.8,0.8-1.3c0.3-0.4,0.5-0.9,0.5-1.2c0.3,0.2,0.6,0.5,0.9,0.8c0.1,0.1,0.2,0.3,0.4,0.5  C52.7,52.3,52.9,52.6,53,52.9z"/>
<path class="st2" d="M49.5,54.6c1,1,2,2,2.9,3c-0.9,1.1-1.6,1.9-3,3c-0.3,0.2-0.7,0.5-1.1,0.8c-0.3,0.2-0.6,0.4-0.9,0.6  c-2.1,1.3-4.7,2.6-7.1,3.2c-2.5,0.6-4.8,0.4-6,0.1c-0.6-0.2-0.9-0.4-1.4-0.7c-0.1-0.2-0.1-0.5-0.2-0.7c0,0,0.1,0,0.1,0  C37.3,60.6,42.1,57,49.5,54.6z"/>
<path class="st5" d="M51.3,50.7c0,0.3-0.2,0.7-0.5,1.2c-0.3,0.5-0.6,1-0.8,1.3c-0.1,0.1-0.3,0.1-0.4,0.2c-2-2-4-4-6-6.1l0,0  c0.2-0.2,0.3-0.4,0.4-0.6c0.1-0.2,0.1-0.2,0.1-0.4c0-0.1-0.1-0.3-0.3-0.6c-0.2-0.3-0.6-0.7-1-1c-0.3-0.3-0.6-0.6-0.8-0.8  c-0.1-0.4-0.2-0.6-0.4-0.8l-0.9-0.9c0.7,0.4,1.4,0.6,2.2,0.8c0.5,0.1,0.9,0.2,1.4,0.2v0c0.1,0.2,0.2,0.4,0.3,0.6  c0.1,0.3,0.3,0.6,0.5,1c0.4,0.5,1,1.2,1.3,1.8c0.3,0.5,0.3,0.9,0.5,1.2c0.1,0.2,0.2,0.3,0.4,0.5c0,0,0.1,0,0.1,0.1  c0.5,0.4,1.4,1,2.2,1.3c0.5,0.3,1,0.4,1.3,0.6C51.1,50.3,51.2,50.5,51.3,50.7C51.3,50.7,51.3,50.7,51.3,50.7z"/>
<path class="st1" d="M49,54.1c0.2,0.2,0.3,0.3,0.5,0.5c-7.4,2.4-12.2,6-16.7,9.2c0,0-0.1,0-0.1,0c-0.1-0.2-0.1-0.4-0.2-0.6h0  c2.8-2,5.7-4.1,9.3-6C44,56,46.3,55,49,54.1z"/>
<path class="st2" d="M42.7,47.7c2.1,2.1,4.2,4.2,6.3,6.4c-2.7,0.9-5,2-7.2,3.1c-1.1-1.1-1.9-2-3.5-3.2c-2.2-1.6-5.9-3.7-7.3-5  c-0.7-0.6-0.8-1-1.2-1.5c0.2-0.4,0.4-0.7,0.6-1.1c0.5-1,0.9-2.1,1.7-2.6c0.8-0.5,2-0.4,2.8-0.9c0.8-0.5,1.1-1.7,1.3-2.7l3.9,3.8  C40,44.1,40,44.2,40,44.4c0,0.2,0.2,0.5,0.5,0.9c0.3,0.5,0.8,1.1,1.1,1.5c0.3,0.4,0.4,0.6,0.6,0.8C42.4,47.7,42.5,47.7,42.7,47.7z"/>
<path class="st3" d="M46.2,39.9c0.1,0.3,0.2,0.7,0.2,1.1c-0.1,0.4-0.3,0.9-0.6,1.3c-0.3,0.4-0.6,0.7-1,0.8c-0.2,0-0.3,0.1-0.5,0.1  c-0.4,0-0.9,0-1.4-0.2c-0.8-0.2-1.5-0.4-2.2-0.8L39.5,41l0.2-0.4l0,0c-0.1-0.1-0.2-0.2-0.3-0.4c-0.3-0.4-0.4-0.9-0.3-1.4  c0.1-0.4,0.4-0.7,0.7-0.7c0.3,0,0.6,0.3,0.7,0.5c0.1,0.1,0.2,0.3,0.3,0.3c0.1,0,0.3-0.2,0.4-0.4c0.1-0.3,0-0.6,0-1  c0-0.4,0.2-0.8,0.2-1.4c0-0.7-0.3-1.6-0.2-1.9c0.1-0.2,0.2-0.2,0.4-0.2c0.4,0,1.1,0.3,1.7,0.6c0.6,0.3,1,0.8,1.6,1  c0.4,0.2,0.9,0.2,1.1,0.3c0.1,0.1,0.2,0.1,0.2,0.3c0,0,0,0.1,0,0.1c0.1,0.5,0.2,1.8,0.1,2.3c-0.1,0.3-0.2,0.4-0.2,0.5  C46,39.3,46.1,39.6,46.2,39.9z"/>
<path class="st4" d="M45.8,34.8c0.3,0.4,0.3,0.9,0.3,1.3c0-0.2-0.1-0.2-0.2-0.3c-0.2-0.1-0.7-0.1-1.1-0.3c-0.5-0.2-1-0.6-1.6-1  c-0.6-0.3-1.3-0.6-1.7-0.6c-0.2,0-0.4,0.1-0.4,0.2c-0.1,0.4,0.2,1.3,0.2,1.9c0,0.6-0.2,1-0.2,1.4c0,0.4,0.1,0.7,0,1  c-0.1,0.2-0.2,0.4-0.4,0.4c-0.1,0-0.2-0.1-0.3-0.3c-0.2-0.2-0.5-0.5-0.7-0.5c-0.3,0-0.6,0.3-0.7,0.7c-0.1,0.4,0,1,0.3,1.4  c0.1,0.1,0.2,0.3,0.3,0.4l0,0L39.5,41l-2.3-2.2v0c-0.2-0.9-0.1-1.9,0.2-2.9c0.4-1.1,1.1-2.1,2.1-2.6c1.1-0.6,2.6-0.5,3.8-0.1  C44.5,33.6,45.4,34.2,45.8,34.8z"/>
<path class="st0" d="M44.1,46.3c0,0.1,0,0.2-0.1,0.4c-0.1,0.1-0.3,0.4-0.4,0.6c0,0,0,0.1-0.1,0.1c-0.2,0.2-0.3,0.3-0.6,0.4  c-0.1,0-0.2,0-0.2,0c-0.1,0-0.3,0-0.4-0.1c-0.2-0.1-0.3-0.3-0.6-0.8c-0.3-0.4-0.8-1.1-1.1-1.5c-0.3-0.5-0.5-0.7-0.5-0.9  c0-0.2,0-0.3,0.1-0.4c0,0,0,0,0,0c0.1-0.2,0.3-0.4,0.5-0.5s0.3-0.2,0.5-0.1c0.2,0,0.4,0.2,0.7,0.4c0,0,0.1,0.1,0.1,0.1  c0.2,0.2,0.5,0.5,0.8,0.8c0.4,0.4,0.8,0.7,1,1C44,46,44.1,46.2,44.1,46.3z"/>
<path class="st1" d="M42,43.9c0,0-0.1-0.1-0.1-0.1c-0.3-0.2-0.5-0.4-0.7-0.4c-0.2,0-0.3,0-0.5,0.1s-0.4,0.3-0.5,0.5c0,0,0,0,0,0  l-3.9-3.8v0L22.7,26.9c0.2-0.2,0.4-0.5,0.6-0.7c2.2,2.2,4.4,4.4,6.7,6.5v0c1.7,1.7,3.4,3.3,5.1,5c0.1,0.1,0.3,0.2,0.5,0.1  c0.2,0,0.3-0.1,0.5-0.2l1.2,1.2v0l2.3,2.2l1.2,1.2l0.9,0.9C41.8,43.2,41.9,43.5,42,43.9z"/>
<path class="st2" d="M36.6,36.1c0.1,0.4,0.1,0.9-0.2,1.2c-0.1,0.1-0.2,0.2-0.3,0.3c-0.1,0.1-0.3,0.2-0.5,0.2c-0.2,0-0.3,0-0.5-0.1  c-1.7-1.7-3.4-3.3-5.1-5v0c-0.9-1.7-1.9-3.5-2.7-5c-0.7-1.3-1.3-2.5-2-3.9c0-0.1,0-0.1-0.1-0.2c-0.8-1.6-1.6-3.5-2-4.8  c-0.2-0.6-0.3-1.1-0.1-1.4c0.2-0.2,0.6-0.4,0.9-0.3c0.4,0.1,0.5,0.7,0.8,1.5c0.7,1.6,2.4,3.9,4.3,6.7c2.2,3.2,4.8,7.1,6.3,8.9  C36,35.2,36.4,35.6,36.6,36.1z"/>
<path class="st2" d="M36.2,40.1L36.2,40.1c-0.1,1-0.5,2.2-1.3,2.7c-0.8,0.5-2,0.5-2.8,0.9c-0.8,0.5-1.2,1.6-1.7,2.6  c-0.2,0.4-0.4,0.7-0.6,1.1c-0.3,0.6-0.7,1.1-1.2,1.7c-2.1-7.4-4.1-14.7-6.2-22c0.1-0.1,0.2-0.2,0.3-0.3L36.2,40.1z"/>
<path class="st0" d="M34.2,68.9c1.2,0.8,1.9,2.2,1.9,3.8c0,2.6-2.1,4.6-4.6,4.6c-2.6,0-4.6-2.1-4.6-4.6c0-2.6,2.1-4.6,4.6-4.6  c0.5,0,1,0.1,1.5,0.3v0C33.4,68.5,33.8,68.7,34.2,68.9z M34.5,72.7c0-1.7-1.4-3-3-3c-1.7,0-3,1.4-3,3c0,1.7,1.4,3,3,3  C33.1,75.8,34.5,74.4,34.5,72.7z"/>
<path class="st1" d="M32.9,64.5c0.4,1.5,0.8,3,1.2,4.4c-0.4-0.3-0.8-0.5-1.2-0.6v0l-5.1-18.1l-6.3-22.6c0.2,0.1,0.5,0,0.9-0.3  c2,7.3,4.1,14.6,6.2,22c1.3,4.6,2.6,9.3,3.9,14c0.1,0.2,0.1,0.4,0.2,0.6C32.8,64,32.9,64.3,32.9,64.5z"/>
<path class="st1" d="M31.5,69.7c1.7,0,3,1.4,3,3c0,1.7-1.4,3-3,3c-1.7,0-3-1.4-3-3C28.4,71,29.8,69.7,31.5,69.7z M32.7,72.7  c0-0.7-0.6-1.2-1.2-1.2c-0.7,0-1.2,0.6-1.2,1.2c0,0.7,0.6,1.2,1.2,1.2C32.1,74,32.7,73.4,32.7,72.7z"/>
<path class="st2" d="M31.5,71.5c0.7,0,1.2,0.6,1.2,1.2c0,0.7-0.6,1.2-1.2,1.2c-0.7,0-1.2-0.6-1.2-1.2C30.2,72,30.8,71.5,31.5,71.5z"/>
<path class="st1" d="M30,32.7c-2.2-2.2-4.4-4.4-6.7-6.5c0,0,0,0,0,0c0.1-0.1,0.1-0.3,0-0.3c-0.6-0.6-1.3-1.2-1.9-1.8  c0.2-0.3,0.3-0.5,0.7-0.7c0.4-0.2,1.2-0.3,1.7-0.1c0.6,0.1,1,0.4,1.4,0.7h0c0.7,1.4,1.3,2.5,2,3.9C28.1,29.3,29.1,31.1,30,32.7z"/>
<path class="st2" d="M21.5,27.6l6.3,22.6h0c-1.3,1.7-3.1,3.8-4.4,4c-0.9,0.2-1.6-0.5-2.2-1.3c-0.7-1-1.3-2.2-1.2-3.3  c0.1-1.1,0.8-2.2,0.8-3.1c0-0.8-0.5-1.4-0.5-2.2c-0.1-0.9,0.4-1.9,0.7-3c0.4-1.2,0.6-2.4,0.6-3.8c0-1.5-0.2-3-0.7-4.6  c-0.4-1.4-1-2.9-1-3.7c0-0.4,0.2-0.6,0.4-0.9c0.3-0.3,0.6-0.8,1-1C21.4,27.4,21.4,27.5,21.5,27.6z"/>
<path class="st0" d="M23.4,25.8c0.1,0.1,0.1,0.2,0,0.3c0,0,0,0,0,0c-0.2,0.2-0.4,0.5-0.6,0.7c-0.1,0.1-0.2,0.2-0.3,0.3  c-0.4,0.3-0.7,0.4-0.9,0.3c-0.1,0-0.2-0.1-0.2-0.3c-0.5-1-1-2-1.5-2.9c0,0,0-0.1,0-0.1c0-0.1,0-0.1,0.1-0.1c0.2-0.2,0.5-0.5,0.7-0.7  c0,0,0.1-0.1,0.2-0.1c0.1,0,0.1,0,0.2,0.1c0.2,0.2,0.4,0.4,0.6,0.6C22.1,24.6,22.7,25.2,23.4,25.8z"/>
<path class="st2" d="M19.4,22.1c0.4,0.4,0.9,0.8,1.3,1.3c-0.1,0-0.1,0-0.2,0.1c-0.2,0.2-0.5,0.5-0.7,0.7c0,0-0.1,0.1-0.1,0.1  c-0.4-0.4-0.9-0.8-1.3-1.3c-0.7-0.7-0.9-1.6-0.7-2.7c0.4,0,0.7,0.1,1,0.2c0.1,0.1,0.2,0.2,0.4,0.2C19,21.3,19.1,21.7,19.4,22.1z"/>
</svg>