<svg xmlns="http://www.w3.org/2000/svg" xmlns:xlink="http://www.w3.org/1999/xlink" version="1.1" id="Layer_1" x="0px" y="0px" viewBox="0 0 80 80" style="enable-background:new 0 0 80 80;" xml:space="preserve" width="80"  height="80" >
<style type="text/css">
	.st0{fill:#003D5E;}
	.st1{fill:#F15759;}
	.st2{fill:#CEE1F4;}
	.st3{fill:#71B6E4;}
</style>
<polygon class="st0" points="26.7,63.2 26.5,63.2 33.3,48.7 33.5,48.7 "/>
<circle class="st1" cx="35" cy="41.5" r="7.8"/>
<g>
	<path class="st2" d="M37.3,40.7c0-0.5,0.2-1.1,0.1-1.6c-0.1-0.4-0.3-0.6-0.5-1c-0.7-1.1-1.3-2-1.2-3.3c0.1-0.9,0.2-1.8,0.8-2.5   c0.3-0.5,0.8-0.9,1.3-1.3c0.7-0.5,1.5-0.6,2.3-0.8c0.5-0.1,1,0,1.5,0.2c0.7,0.3,1.5,0.4,2.1,0.9c0.5,0.3,1,0.8,1.3,1.2   c0.5,0.7,0.6,1.4,0.7,2.2c0.1,0.6,0.1,1.2-0.2,1.8c-0.2,0.5-0.6,0.9-0.7,1.3c-0.2,0.5,0,0.6,0.3,0.9c0.1,0.1,0.3,0.3,0.2,0.5   s-0.4,0-0.5,0.1c-0.1,0.5-0.3,1.1-0.7,1.5c-0.3,0.3-0.9,1.1-1.4,1.1c-0.4,0-0.8-0.3-1.2-0.5c-0.5-0.2-1-0.4-1.6-0.6   c-0.5-0.2-1-0.4-1.5-0.5c-0.3-0.1-1.1-0.5-1.3-0.3"/>
</g>
<g>
	<path class="st2" d="M53.7,52.7c-0.2,0.5-0.5,1.1-0.6,1.6s0.3,0.7,0.8,0.4c0.3-0.1,0.4-0.3,0.7-0.3c0.2,0,0.5,0.1,0.8,0   c0.3,0,0.5-0.3,0.4-0.5c-0.1-0.3-0.6-0.7-0.9-0.9c-0.4-0.4-1.2-1-1.8-0.5"/>
</g>
<g>
	<path class="st2" d="M39.7,63.3c0.3,0.4,0.1,1.3,0.1,1.7c0,0.7,0.1,1.3,0.2,2c0.1,0.5,0.2,1,0.4,1.6c0.2,0.8,0.4,1.4,0.4,2.3   c0,0.5,0.1,0.9,0.1,1.4c0,0.3,0,0.9,0.3,1.2c0.4,0.3,1.1,0,1.5-0.1c0.3-0.1,0.5,0,0.7-0.3c0.1-0.2,0.1-0.5,0.1-0.8   c0-0.5,0-1.1,0.1-1.6c0.1-1.1,0.1-2.1-0.1-3.2c-0.1-0.6-0.2-1.2-0.1-1.8c0-0.8,0.1-1.6,0.2-2.5c0.1-1.4,0.1-3-0.5-4.3"/>
</g>
<g>
	<path class="st2" d="M33.8,59.7c0,0.2-0.1,0.4-0.1,0.7c0,0.6-0.1,1.1-0.1,1.6c0,0.6,0,1.3,0,1.9c0,0.4-0.1,0.9,0,1.3   c0.1,0.3,0.1,0.5,0.1,0.8s-0.2,0.6-0.2,0.9c-0.3,1.2-0.3,2.5-0.3,3.7c0,0.5,0.1,0.9,0.3,1.4c0.1,0.3,0.2,0.5,0.3,0.8   c0,0.2,0.1,0.4,0.2,0.5c0.3,0.3,0.9,0.3,1.3,0.3c0.2,0.1,0.3,0,0.4-0.2c0.1-0.3,0.2-0.7,0.2-1c0.2-1.8,0.1-3.6,0.7-5.4   c0.3-1,0.7-1.9,0.8-2.9c0.1-0.8,0-1.5,0-2.3"/>
</g>
<g>
	<path class="st0" d="M33.5,72.6c0,0.4-0.9,0.6-1.2,0.8C32,73.6,32,74,32,74.4c0.2,0.8,0.7,1.4,1.4,1.8c0.5,0.3,1,0.3,1.6-0.1   c0.5-0.3,0.6-0.9,0.6-1.5c0-0.3,0.1-1.1-0.2-1.3c-0.2-0.2-0.7-0.1-1-0.2s-0.5-0.4-0.8-0.4"/>
</g>
<g>
	<path class="st0" d="M41.2,73c-0.2,0.5-0.2,1-0.1,1.5c0,0.5,0,1.6,0.6,1.9c0.2,0.1,0.7,0,0.9,0c0.5-0.1,0.9-0.2,1.3-0.4   c0.4-0.2,1.2-0.4,1.4-0.8c0.4-0.8-0.5-1.6-1-2c-0.3-0.2-0.5-0.5-0.8-0.7c-0.5-0.3-0.7,0.1-1.2,0.1"/>
</g>
<g>
	<path class="st3" d="M33.4,58.5c0-0.3,0-0.7,0-1c0,0.5-0.2,1-0.1,1.5c0.1,0.6,0.3,1.1,0.6,1.7c0.5,1,1.2,2,1.8,2.9   c0.6,0.9,1.2,1.1,2.2,1.1c0.5,0,1-0.1,1.5-0.2c0.6-0.1,1-0.7,1.4-1.2c0.9-1.1,1.5-2.4,2.3-3.6c0.5-0.7,0.7-1.4,0.5-2.3   c-0.1-0.4-0.3-0.9-0.3-1.4s0.4-1.1,0.6-1.6c0.1-0.3,0.3-0.6,0.3-0.8c0.1-0.4-0.1-0.7-0.2-1c-0.2-0.7-0.2-1.3-0.2-2   c0-0.3-0.1-1,0-1.2c0.4,0,0.9,0.7,1.2,0.9c0.7,0.6,1.3,1.3,2,1.9c1,0.8,2.3,1.3,3.5,1.9c0.4,0.2,0.9,0.4,1.3,0.5   c0.4,0.1,0.7,0.3,1-0.1c0.3-0.3,0.5-1.1,0.6-1.5c0.1-0.2,0.3-0.7,0.3-0.9c-0.1-0.3-0.5-0.4-0.8-0.5c-0.5-0.2-1-0.3-1.4-0.5   c-1.2-0.6-1.9-1.5-2.7-2.5c-0.6-0.8-1.2-1.7-1.7-2.6c-0.5-0.9-1.3-1.6-2-2.3c-0.3-0.3-0.4-0.6-0.7-0.8c-0.3-0.3-0.7-0.5-1-0.7   s-0.6-0.5-0.9-0.7c-0.3-0.2-0.6-0.3-0.8-0.5c-0.4-0.3-0.7-0.4-1.2-0.6c-0.4-0.2-0.7-0.4-1.1-0.5c-0.5-0.1-1.2-0.4-1.7-0.3   c-0.3,0.1-0.8,0.4-1.1,0.6c-0.4,0.2-0.7,0.4-1.1,0.7c-1,0.6-2,1.3-2.7,2.3s-1.4,2-2,3.1c-0.5,1-1,1.9-0.7,3   c0.1,0.5,0.4,0.8,0.8,1.1c0.4,0.2,0.7,0.5,1,0.7c0.5,0.4,1.5,0.7,1.7,1.3c0.1,0.3,0,0.9,0,1.2c-0.1,0.4-0.1,0.8-0.1,1.2   c-0.1,0.5-0.1,1-0.1,1.5c0,0.2,0,0.4,0,0.6c0,0.2,0.1,0.3,0.1,0.5"/>
</g>
</svg>