<svg xmlns="http://www.w3.org/2000/svg" xmlns:xlink="http://www.w3.org/1999/xlink" version="1.1" id="Layer_1" x="0px" y="0px" viewBox="0 0 80 80" style="enable-background:new 0 0 80 80;" xml:space="preserve" width="80"  height="80" >
<style type="text/css">
	.st0{fill:#0097D7;}
	.st1{fill:#F8ABAC;}
	.st2{fill:#CEE1F4;}
	.st3{fill:#9FCAEC;}
	.st4{fill:#003D5E;}
	.st5{fill:#71B6E4;}
</style>
<path class="st0" d="M26.5,123.6c0.2,2-1.3,4-2.1,5.8c-0.4,0.8-1.1,1.5-1.3,2.4c-0.2,1.2,1.4,1.2,2.2,1c2.6-0.7,3.6-2.8,5.3-4.6  c0.7-0.7,1.5-1.2,2.2-2c0.3-0.4,0.5-0.7,0.6-1.2c0.1-0.5-0.2-1.1,0.2-1.4"/>
<path class="st0" d="M37.8,123.8c0,0.8,0,1.6,0,2.4c0,0.5-0.1,1,0,1.5c0.2,0.6,0.8,1.2,1.3,1.5c1.4,1,3.3,2.2,5,2.6  c0.8,0.2,2,0.5,2.8,0.2c1-0.4,1.1-1.6,0.8-2.5c-0.5-1.5-1.9-2.1-2.9-3.3c-0.8-0.9-1.4-2-2.3-2.8c-0.3-0.2-1.2-0.7-1.1-1.1"/>
<g>
	<path class="st1" d="M26.2,58.3c0,1.3-0.4,2.6-0.5,3.9c-0.1,1-0.4,2-0.5,2.9c-0.1,2-0.4,4-0.7,6c-0.4,2.5-0.4,5.1-0.6,7.6   c-0.1,1-0.2,2-0.2,3c0,1.3-0.2,2.6-0.2,4c0,5.1,0,10.3,0,15.4c0,0.8,0.2,1.5,0.2,2.3c0,0.5,0,0.9,0,1.3c0.1,0.3,0.2,0.5,0.2,0.8   c0,0.7,0.1,1.5-0.1,2.2c-0.2,1.1-0.2,2.2-0.2,3.3c0,0.9-0.1,1.8,0,2.7c0.1,0.8,0.4,1.6,0.5,2.5c0.1,1.1,0.5,2.1,0.8,3.1   c0.2,0.7,0.2,1.4,0.3,2c0.2,0.7,0.1,1.4,0.2,2.1c0.1,0.6,0.4,0.9,1,1.1c1.8,0.8,4.1,1,5.9,1c0.6,0,1.1,0,1.6-0.5   c0.6-0.5,0.5-1.2,0.4-1.9c-0.4-2.6-1.3-5.2-1.3-7.8c0-2,0.2-4.2-0.7-6.1c-0.3-0.7-0.8-1.3-0.9-2.1c-0.1-0.7,0.3-1.4,0.4-2.1   c0.2-1.1,0.4-2.3,0.7-3.4c0.3-1.3,0.3-2.5,0.5-3.8c0.2-1.2,0.2-2.3,0.7-3.5c0.6-1.3,0.9-2.7,1.1-4.2c0.4-2.7,0.4-5.4,0.8-8.1   c0.2-1.6,0.7-3.1,1.1-4.6c0.3-1.2,0.6-2.4,1-3.6c0.2,0.7,0.3,1.6,0.4,2.3c0.1,1.1,0.3,2.1,0.3,3.2c0,1.9-0.3,3.7-0.3,5.5   c0,1.9,0,3.8,0.5,5.7c0.2,0.7,0.4,1.3,0.4,2c0,0.6-0.2,1.3-0.3,1.9c-0.2,1.6-0.4,3.3-0.2,5c0.1,1,0,1.9,0,2.9c0,0.7,0.2,1.3,0.3,2   c0,0.7,0.1,1.5-0.1,2.2c-0.1,0.5-0.3,1-0.4,1.5c-0.1,0.8-0.1,1.6-0.2,2.3c-0.5,2.9,0,5.9-0.6,8.8c-0.2,0.9-0.3,1.7-0.6,2.6   c-0.3,0.7-0.5,1.2-0.5,2c0,0.7,0.2,0.8,0.9,1c0.8,0.2,1.8,0.3,2.6,0.4c1,0.1,1.9,0.2,2.9,0.2c0.4,0,0.7-0.1,1.1,0   c0.3,0,0.6,0.3,1,0.2c0.3-1.5,0.3-3.1,0.7-4.5c0.4-1.2,0.5-2.2,0.6-3.5c0.1-1.5,0.4-2.9,0.6-4.3c0.3-2.6,0.8-5.1,1-7.7   c0.3-3.2,1-6.5,0.9-9.7c-0.1-2.1-0.1-4.2,0.1-6.3c0.2-2.1,0.8-4.2,1.1-6.3c0.7-4.9,1.4-9.9,1.2-14.8c-0.1-2.6-0.3-5.2-0.3-7.9   c0-1.3-0.3-2.4-0.7-3.6c0,0.1,0,0.1,0,0.2"/>
</g>
<g>
	<path class="st1" d="M26.3,58.5c0,1.3-0.4,2.6-0.5,3.9c-0.1,1-0.4,2-0.5,2.9c-0.1,2-0.4,4-0.7,6c-0.4,2.5-0.4,5.1-0.6,7.6   c-0.1,1-0.2,2-0.2,3c0,1.3-0.2,2.6-0.2,4c0,5.1,0,10.3,0,15.4c0,0.8,0.2,1.5,0.2,2.3c0,0.5,0,0.9,0,1.3c0.1,0.3,0.2,0.5,0.2,0.8   c0,0.7,0.1,1.5-0.1,2.2c-0.3,1.3-0.2,1.6-0.2,3.3c0,0.9-0.1,1.8,0,2.7c0.1,0.8,0.4,1.6,0.5,2.5c0.1,1.1,0.5,2.1,0.8,3.1   c0.2,0.7,0.2,1.4,0.3,2c0.2,0.7,0.1,1.4,0.2,2.1c0.1,0.6,0.4,0.9,1,1.1c1.8,0.8,4.1,1,5.9,1c0.6,0,1.1,0,1.6-0.5   c0.6-0.5,0.5-1.2,0.4-1.9c-0.4-2.6-1.3-5.2-1.3-7.8c0-2,0.2-4.2-0.7-6.1c-0.3-0.7-0.8-1.3-0.9-2.1c-0.1-0.7,0.3-1.4,0.4-2.1   c0.2-1.1,0.4-2.3,0.7-3.4c0.3-1.3,0.3-2.5,0.5-3.8c0.2-1.2,0.2-2.3,0.7-3.5c0.6-1.3,0.9-2.7,1.1-4.2c0.4-2.7,0.4-5.4,0.8-8.1   c0.2-1.6,0.7-3.1,1.1-4.6c0.3-1.2,0.6-2.4,1-3.6c0.2,0.7,0.3,1.6,0.4,2.3c0.1,1.1,0.3,2.1,0.3,3.2c0,1.9-0.3,3.7-0.3,5.5   c0,1.9,0,3.8,0.5,5.7c0.2,0.7,0.4,1.3,0.4,2c0,0.6-0.2,1.3-0.3,1.9c-0.2,1.6-0.4,3.3-0.2,5c0.1,1,0,1.9,0,2.9c0,0.7,0.2,1.3,0.3,2   c0,0.7,0.1,1.5-0.1,2.2c-0.1,0.5-0.3,1-0.4,1.5c-0.1,0.8-0.1,1.6-0.2,2.3c-0.5,2.9,0,5.9-0.6,8.8c-0.2,0.9-0.3,1.7-0.6,2.6   c-0.3,0.7-0.5,1.2-0.5,2c0,0.7,0.2,0.8,0.9,1c0.8,0.2,1.8,0.3,2.6,0.4c1,0.1,1.9,0.2,2.9,0.2c0.4,0,0.7-0.1,1.1,0   c0.3,0,0.6,0.3,1,0.2c0.3-1.5,0.3-3.1,0.7-4.5c0.4-1.2,0.5-2.2,0.6-3.5c0.1-1.5,0.4-2.9,0.6-4.3c0.3-2.6,0.8-5.1,1-7.7   c0.3-3.2,1-6.5,0.9-9.7c-0.1-2.1-0.1-4.2,0.1-6.3c0.2-2.1,0.8-4.2,1.1-6.3c0.7-4.9,1.4-9.9,1.2-14.8c-0.1-2.6-0.3-5.2-0.3-7.9   c0-1.3-0.3-2.4-0.7-3.6c0,0.1,0,0.1,0,0.2"/>
</g>
<g>
	<path class="st2" d="M31.9,31.5c0-0.5,1-3.5,0.6-3.9c-0.4-0.4-0.8-0.1-1.3-0.2c-1.6-0.4-1-2.4-1.6-3.6c-0.1-0.3-0.3-0.6-0.6-0.8   c-0.3-0.1-0.6,0-0.8-0.2c-0.5-0.4,0.2-1,0.3-1.6c0.1-0.8-0.4-1.2-0.7-1.9c-0.4-0.9-0.3-2.1-0.1-3c0.2-0.8,0.4-1.8,1.1-2.4   c0.5-0.5,1.1-0.8,1.7-1.1c0.7-0.3,1.4-0.6,2.1-0.9c0.9-0.3,1.8-0.2,2.7,0c1.8,0.4,3.5,1.6,4.3,3.3c0.2,0.6,0.3,1.2,0.4,1.8   c0.2,0.9,0.3,1.8,0.3,2.7c0,1.7,0.1,3.3,0.7,4.9c0.2,0.5,0.5,0.8,0.7,1.3c0.2,0.4,0.2,0.8,0.4,1.1c0.3,0.5,0.9,0.8,1.2,1.3   c0.2,0.4,0.9,7.4,1.3,7.7c0-0.1-14.2-0.3-14.2-0.4"/>
</g>
<path class="st3" d="M45.1,28.3c-0.1,0-0.1,0-0.2,0c0.6,1,2,1.3,2.9,1.8c0.9,0.5,1.7,1,2.6,1.4c1.6,0.9,3,1.5,3.9,3.2  c1.3,2.4,2,4.9,3,7.3c0.8,2,1.1,4.1,2.2,5.9c0.4,0.7,0.4,1.5-0.6,1.7c-0.8,0.2-1.7,0.3-2.4,0.3c-0.8,0-2.9-0.4-3.2,0.5  c-0.3,0.7-0.1,1.5-0.5,2.2c-0.2,0.4-0.5,0.6-0.7,1c-0.1,0.4-0.4,1-0.5,1.4c-0.3,1.4,0.3,3-0.1,4.3c-1.3,0.2-2.4,1.1-3.7,1.4  c-1.7,0.4-3.5,1.1-5.3,1.2c-3.3,0.2-6.5-0.5-9.7-1.3c-0.6-0.2-1-0.3-1.6-0.3c-0.7,0-1.2-0.1-1.8-0.2c-1.2-0.1-2.2-0.3-3.3-0.8  c-0.4-0.2-0.9-0.2-1.1-0.6c-0.3-0.6,0-1.9,0.1-2.6c0.3-1.5,0.6-2.9,0.7-4.4c0-0.5,0-1,0-1.4c0-0.2,0.3-1.1,0.3-1.4  c-0.2-1.1-2.1,0.8-2.5,1c-0.4,0.3-0.8,0.4-1.3,0.6c-0.7,0.4-0.8,0.9-1.4,0.3c-0.6-0.7-1.1-1.9-1.2-2.9c0-1.2,0-2.5,0-3.7  c0-1.3,0-2.6,0.3-3.9c0.2-0.8,0.2-1.5,0.5-2.3c0.4-1.1,0.9-2.2,1.4-3.2c0.7-1.5,2.1-2.4,3.5-3.3c0.4-0.2,0.6-0.5,1-0.8  c0.5-0.4,1-0.6,1.5-0.9c0.8-0.5,1.4-0.7,2.2-1c0.5-0.2,1.5-0.4,2.1-0.4c0.7,0,0.5,0.5,1,1c1,0.8,1.3,1.8,2.5,2  c1.2,0.2,2.1,0.2,2.8-0.6c0.9-0.9,2-1.7,2.9-2.7"/>
<g>
	<path class="st2" d="M32,28.2"/>
</g>
<g>
	<path class="st2" d="M48.4,33.4c0-0.9-0.3-2-0.5-3c-0.1-0.7-0.3-1.3-0.7-1.9c-0.6-1-1.6-2-2.7-2.4c-1.2-0.3-2.8-0.3-3.9,0.5   c-1.5,1.2-1.7,3.1-1.7,4.8c0,1.5,0.5,2.7,1.3,3.9c0.9,1.3,1.6,2.9,3.3,3.2c0.7,0.1,1.7,0.2,2.3-0.2c0.7-0.4,1.3-1.2,1.6-1.9   c0.7-1.3,0.5-2.9,0.5-4.3"/>
</g>
<g>
	<path class="st4" d="M39.4,33.6c0,0-0.1,0-0.1,0c0.2-0.7,0.7-1.7,1.3-2.2c0.5-0.4,0.7-0.2,1.2-0.1c0.5,0.1,0.8-0.1,1.3-0.3   c0.4-0.2,0.7-0.1,1.2-0.2c0.5-0.1,0.7-0.5,1.3-0.4c0.8,0.1,1.6,2,2.5,1.3c0.6-0.5,0.2-1.6,0.1-2.2c-0.1-0.9-0.6-1.6-1.2-2.3   c-0.7-0.9-1.7-1.9-2.9-1.9c-1.6,0-3.2,0.7-4,2.1c-0.4,0.8-1,1.2-1.1,2.1c-0.1,0.9,0,1.6,0.2,2.5"/>
</g>
<g>
	<path class="st2" d="M38.2,55.6c-0.1,0.4,0.3,0.7,0.4,1.1c0.1,0.3,0.1,0.6,0.3,0.9c0.2,0.4,0.6,0.5,0.7,1c0.2,1.2-0.3,2.5-0.5,3.7   c-0.2,1.1-0.4,2.2,0.1,3.3c0.2,0.5,0.3,0.9,0.6,1.4c0.4,0.6,0.5,0.5,1.1,0.2c0.5-0.2,1.3-0.2,1.5-0.8c0.2-0.5,0-1.4,0-2   c0-0.7-0.1-1.5,0.2-2.1c0.3-0.7,0.7-1.2,0.9-1.9c0.5-1.3,0.9-2.4,0.5-3.8c-0.2-0.7-0.6-1.3-1-1.9c-0.2-0.3-0.5-0.6-0.7-0.9   c-0.1-0.2-0.1-0.3-0.2-0.5c0,0,0.1,0,0.1,0"/>
</g>
<g>
	<path class="st2" d="M46.5,52.3c0,0.4-0.2,0.7-0.2,1.1c0,0.4,0.2,0.8,0.2,1.2c0.1,0.6,0.3,1.3,0.6,1.8c0.2,0.4,0.5,0.8,0.5,1.3   c0.1,0.5,0,1,0,1.5c0,0.6,0,1.2,0,1.8c0,0.8,0.2,1.4,0.2,2.1c0.1,0.7,0,1.4,0,2.1c0,0.6-0.1,0.7,0.4,0.8c0.4,0.1,1.4,0.1,1.8,0   c0.8-0.2,0.8-1.3,1-2c0.5-1.8,0.9-3.8,0.6-5.7c-0.1-0.6-0.2-1-0.2-1.6c0-0.6,0-1.3,0-1.9c0-0.9-0.1-1.7-0.3-2.6   c-0.2-0.9-0.5-1.7-0.8-2.5c0,0,0.1,0,0.1,0"/>
</g>
<g>
	<path class="st2" d="M59.4,49.3c0-0.1,0-0.1,0-0.2c0,0.4,0.2,0.9,0.3,1.3c0.1,0.5,0.2,1.1,0.3,1.6c0.1,0.8,0.2,1.9-0.1,2.7   c-0.2,0.4-0.5,0.7-0.8,1.1c-0.6,0.8-1.3,1.4-2.2,1.9c-0.8,0.4-1.7,0.7-2.6,0.9c-0.8,0.2-1.6,0-2.4,0.1c-1,0.1-2,0.6-3.1,0.7   c-1,0.2-1.9,0-2.9-0.3c-0.8-0.3-1.6-0.7-2.3-1.2c-0.4-0.2-0.7-0.5-1.1-0.8c-0.5-0.4-1.2-0.7-1.4-1.3c0.2-0.5,0.7-2,1.1-2.1   c0.8-0.2,1.8-0.5,2.6-1c1.6-1,3.5-1.3,5.2-2.3c1.3-0.8,3.1-0.9,4.5-1.2c0.4-0.1,0.9-0.2,1.4-0.1c0.3,0,1.3,0.1,1.5,0.4"/>
</g>
<g>
	<path class="st5" d="M40.9,65.4c-0.3,0-1.5,0-1.7-0.2c0.2,0.4,0.2,0.8,0.3,1.1c0.2,0.4,0.1,0.8,0.2,1.2c0.1,0.7,0.1,1.3,0.2,2   c0.1,1.7,1.2,3,3,3.2c0.6,0.1,1.1-0.2,1.3-0.7c0.1-0.2-0.1-0.4-0.1-0.7c0-0.4-0.2-0.7-0.3-1c-0.2-0.5-0.3-1.1-0.5-1.6   c-0.5-1.6-0.2-2.6-0.9-4.1"/>
</g>
<g>
	<path class="st5" d="M47.9,64.6c0.1,0.8,0,1.4-0.1,2.1c-0.1,0.7-0.1,1.8,0,2.5c0.1,1,0.8,2,1.7,2.4c0.5,0.3,0.7,0.2,1.3,0.1   c1.3-0.2,0.8-2.1,0.4-2.9c-0.5-1.3-0.3-2.8-0.3-4.3"/>
</g>
<path class="st0" d="M41.2,36.4c-1,0-2,0-3,0.2c-0.6,0.1-1.2,0.1-1.8,0.3c-0.5,0.1-1,0.2-1.6,0.2c-1.3,0-1.6,0.7-1.9,1.8  c-0.1,0.4-0.3,0.6-0.1,1c0.2,0.3,0.7,0.7,1,0.9c0.7,0.5,1.5,0.8,2.2,1.4c0.4,0.3,0.4,0.5,0.4,0.9c0,0.5,0.2,0.8,0.2,1.3  c0.2,1.9-0.7,4.3-2,5.7c-0.6,0.6-0.9,1.3-1.6,1.8c-0.4,0.3-0.9,0.6-1.4,0.9c-0.9,0.4-3.5,1.1-2.4,2.6c0.5,0.7,1.9,1.8,2.7,2.1  c0.6,0.2,1.3,0.5,1.9,0.2c0.8-0.3,1.3-1,2-1.4c0.7-0.3,1.4,0,2.1,0c1.6,0,2.7-0.3,4.2-0.9c1.2-0.5,2.7-1.8,4-1.6  c1,0.1,1.9,0.9,2.9,0.5c0.4-0.2,0.7-0.3,1.1-0.3c0.9,0,1.6,0.8,2.5,0.4c0.6-0.3,0.8-1.3,1.6-1.4c0.6-0.1,1.2,0.4,1.8,0.2  c0.8-0.2,1.3-1.1,1-1.9c-0.2-0.7-1.1-1.3-1.6-1.8c-0.5-0.5-1-1.2-1.5-1.7c-0.6-0.7-1.2-1.2-1.9-1.8c-0.5-0.5-0.9-1.2-1.1-1.8  c-0.2-0.5-0.6-1.5-0.5-2c1.6,0.7,2.1-2,2.3-3.1c0.1-0.6-0.1-1.7-0.4-2.2c-0.3-0.6-1-0.7-1.6-1c-1.5-0.6-2.1,0.1-3.1,1  c-0.4,0.4-0.8,0.7-1.4,0.8c-0.6,0.1-1.2-0.3-1.7-0.2"/>
<g>
	<path class="st2" d="M50.9,43.3c0.1,0.4,0.5,0.8,0.5,1.2c0,0.2-0.3,0.8-0.4,1c-0.6,0.7-1.7-0.3-2.1-0.8c-0.7-0.9-1.3-1.7-1.9-2.6   c-0.3-0.4-0.8-0.9-0.8-1.4c-0.1-0.9,0.9-0.4,1.4-0.2c0.1-0.3,0-0.6,0.1-0.9c0.2,0.1,0.3,0.2,0.4,0.3c0.3,0,0.2-0.8,0.6-1   c0.5,0,0.6,0.7,0.8,1.1c0.3,0.6,0.6,1.3,0.9,2c0.2,0.5,0.3,1,0.5,1.5c0.2,0.5,0.7,1.4,0.6,2.1"/>
</g>
<g>
	<path class="st2" d="M35.4,41.5c-0.8,0-1.6,0.5-2,1.2c-0.7,1.1-0.4,1.8-0.3,3c0.1,1.2,1.1,2,1.6,3c0.2,0.4,0.4,0.7,0.5,1.1   c0.1,0.5,0,1.4,0.7,1.6c0.3-0.2,0.4-0.7,0.5-1c0.2,0.3,0.4,0.7,0.8,0.8c0.2-0.4,0.4-0.1,0.6-0.2c0.4-0.1,0.5-0.3,0.6-0.8   c0.1,0.1,0.3,0.2,0.4,0.3c1-0.4-0.2-2-0.5-2.5c-0.5-0.7-0.8-1.3-1.2-2.1c-0.3-0.7-0.8-1.2-1-1.9c-0.4-0.9-0.7-1.6-1.4-2.3"/>
</g>
<g>
	<path class="st2" d="M28.5,45.4c-0.3-0.4-1.4-0.2-1.8-0.2c-1,0-1.5,0.5-2.3,0.9c-1.8,1-2.8,2.6-2.8,4.6c0,1.1,0.1,1.8,1.2,2.3   c0.8,0.4,1.8,0.5,2.7,0.5c0.8,0,1.6,0.1,2.3-0.2c0.9-0.3,1.9-0.8,2.7-1.3c1.6-1,3.2-2.2,5-2.8c1.4-0.5,3.1-0.3,4.6-0.3   c1.1,0,1.9,0,3-0.3c0.5-0.1,1.1-0.4,1.6-0.4c0.4,0,0.8,0,1.1,0c0.5,0,2.2-0.1,2.1-0.9c-0.2-0.8-2.2-0.7-2.7-0.7   c0.7,0,1.9,0.2,2.5-0.2c0.8-0.6-0.8-1.3-1.3-1.2c0.5,0.4,1.6,0.3,2-0.3c0-0.5-1.2-1-1.7-0.9c0.3,0,0.8,0.1,1-0.3   c0.2-0.4-0.3-1-0.5-1.2c-0.7-0.6-1.6-0.6-2.4-0.6c-0.7,0-1.9,0.2-2.6,0c-0.9-0.3-1-1.8-2.1-0.9c-0.9,0.8-1.3,1.8-2.4,2.3   c-0.9,0.4-1.9,0.9-2.9,1.1c-2,0.5-4.1,0.7-6.2,0.7"/>
</g>
</svg>