<svg xmlns="http://www.w3.org/2000/svg"><!--?xml version="1.0" encoding="utf-8"?-->
<!-- Designed by Vexels.com - 2019 All Rights Reserved - https://vexels.com/terms-and-conditions/  -->
<svg version="1.1" id="Layer_1" xmlns="http://www.w3.org/2000/svg" xmlns:xlink="http://www.w3.org/1999/xlink" x="0px" y="0px" viewBox="0 0 1200 1200" enable-background="new 0 0 1200 1200" xml:space="preserve">
<g>
	<path fill="#f07171" d="M525.12,227.741c-45.335,0-82.159-37.366-82.159-83.391c0-46.039,36.827-83.405,82.159-83.405&#xA;&#9;&#9;c45.346,0,82.159,37.363,82.159,83.405C607.279,190.375,570.472,227.741,525.12,227.741z"/>
	<g>
		<path fill="#f07171" d="M718.562,655.25c3.162-5.8,4.975-12.464,4.975-19.56V332.192c0.006-4.349-1.225-8.313-2.441-12.331&#xA;&#9;&#9;&#9;c-1.69-38.649-29.327-69.525-63.433-69.525H393.689c-32.999,0-59.836,28.841-63.111,65.75c-1.585,4.35-2.759,9.046-2.759,13.914&#xA;&#9;&#9;&#9;v303.517c0,6.891,1.708,13.381,4.705,19.07L51.718,1095.149c-7.674,16.409,12.133,28.809,24.484,20.152l285.242-441.827&#xA;&#9;&#9;&#9;c2.017,0.322,4.069,0.537,6.174,0.537c21.975,0,39.773-18.179,39.773-40.495v-31.158l0.714-1.105l-0.714-0.501v-204.15h16.123&#xA;&#9;&#9;&#9;v702.095c0,22.266,17.823,40.358,39.772,40.358c21.973,0,39.755-18.092,39.755-40.358V753.942h49.506v344.756&#xA;&#9;&#9;&#9;c0,22.266,17.792,40.358,39.762,40.358c21.959,0,39.808-18.092,39.808-40.358V396.603h14.115v239.088&#xA;&#9;&#9;&#9;c0,22.337,15.525,40.461,37.472,40.461c2.15,0,4.243-0.221,6.299-0.554c59.817,72.287,172.156,104.167,225.589,101.494&#xA;&#9;&#9;&#9;l20.091-29.287C884.952,757.479,749.06,718.281,718.562,655.25z"/>
		<path fill="#f07171" d="M1096.021,1101.798l-25.165-102.575c-3.987-16.253-6.422-32.854-7.11-49.575&#xA;&#9;&#9;&#9;c-0.296-7.207-0.358-14.835-0.184-25.407l-74.174-18.768l23.103,72.808h-0.115l36.15,135.398&#xA;&#9;&#9;&#9;c3.281,13.115,16.573,21.088,29.688,17.807C1091.33,1128.205,1099.302,1114.913,1096.021,1101.798z"/>
		<path fill="#f07171" d="M744.936,1028.941c-7.87,16.61-8.438,57.186-5.95,84.059c0.957,10.338,9.647,18.229,20.029,18.229h205.397&#xA;&#9;&#9;&#9;c5.852,0,14.123,0.053,20.64,0.103c6.546,0.05,11.638-5.611,10.998-12.126c-2.107-21.432-22.188-32.76-31.638-32.76h-11.497&#xA;&#9;&#9;&#9;c-24.799,0-35.972-31.054-16.856-46.853l46.324-47.697c-7.482-22.284-66.793-214.805-66.793-214.805l-46.43,64.381&#xA;&#9;&#9;&#9;C853.083,865.06,759.17,998.903,744.936,1028.941z"/>
		<path fill="#f07171" d="M1115.653,575.987l-100.255-24.277l-3.77-21.701c-0.508-2.923-0.672-5.887-0.712-8.854&#xA;&#9;&#9;&#9;c-0.097-7.175-3.342-15.975-16.209-10.631v0c-10.911,5.626-18.647,14.245-19.377,24.324l-0.626,8.766l-8.93-14.413&#xA;&#9;&#9;&#9;c-1.996-3.223-3.605-6.657-5.068-10.155c-3.538-8.459-11.584-17.34-24.285-4.868l-0.001,0v0&#xA;&#9;&#9;&#9;c-10.248,11.874-15.306,25.781-11.362,38.076l16.583,51.521v40.539l-0.38,48.944h-0.268c-0.05,2.004-0.12,4.174-0.224,6.558&#xA;&#9;&#9;&#9;c-0.116,2.726-4.444,44.709-5.089,47.986l43.204,123.708l89.274,21.705c7.141-20.878,17.136-54.139,14.541-70.159&#xA;&#9;&#9;&#9;c-2.433-15.012-29.258-64.868-29.258-64.868s-2.023-58.815,12.7-80.476c5.931-8.725,33.877-19.925,47.802-27.341&#xA;&#9;&#9;&#9;c21.633-10.247,36.055-21.09,36.055-40.04C1150,591.364,1134.06,582.059,1115.653,575.987z"/>
	</g>
</g>
</svg>
</svg>