<?xml version="1.0" encoding="iso-8859-1"?>
<!-- Generator: Adobe Illustrator 18.0.0, SVG Export Plug-In . SVG Version: 6.00 Build 0)  -->
<!DOCTYPE svg PUBLIC "-//W3C//DTD SVG 1.1//EN" "http://www.w3.org/Graphics/SVG/1.1/DTD/svg11.dtd">
<svg version="1.1" id="Capa_1" xmlns="http://www.w3.org/2000/svg" xmlns:xlink="http://www.w3.org/1999/xlink" x="0px" y="0px"
	 viewBox="0 0 415.624 415.624" style="enable-background:new 0 0 415.624 415.624;" xml:space="preserve">
<path d="M413.373,177.115l-48.439-66.406c-3.901-6.77-11.207-11.341-19.566-11.341H300.09c-8.866,0-16.55,5.142-20.239,12.598
	L239.9,172.979l-15.304-3.223l2.408-2.757c2.18-2.496,1.924-6.286-0.571-8.466s-6.285-1.925-8.466,0.571l-6.834,7.823
	c-1.152-0.233-2.326-0.358-3.494-0.358c-8.232,0-15.438,5.854-17.132,13.919c-0.678,3.23-0.397,6.435,0.618,9.345l-64.175,73.468
	l-19.934-54.992c-0.887-2.446-3.264-4.072-5.849-3.951c-2.601,0.09-4.846,1.846-5.561,4.348l-3.189,11.16l-4.829-5.327
	c-1.602-1.768-4.1-2.416-6.36-1.656c-2.261,0.762-3.856,2.791-4.063,5.167l-1.172,13.496c-7.035,2.036-12.492,7.825-14.047,15.048
	l-22.218,8.965c-1.556,0.628-2.777,1.878-3.369,3.447c-0.592,1.569-0.5,3.315,0.254,4.813c7.347,14.605,21.545,23.678,37.057,23.678
	c0.001,0,0.003,0,0.004,0c1.996,0,3.978-0.15,5.943-0.44l5.294,24.371l-82.328,94.25c-2.18,2.496-1.924,6.286,0.571,8.466
	c1.138,0.994,2.544,1.482,3.945,1.482c1.672,0,3.335-0.694,4.521-2.053l76.463-87.536c0,0,2.886,13.414,2.922,13.586
	c0.902,4.26,2.257,10.637,7.755,14.558v55.445c0,3.313,2.687,6,6,6h5.37c2.954,0,5.468-2.15,5.927-5.068l8.555-54.411
	c19.483-3.145,49.385-8.334,71.49-12.213c2.153,3.805,5.098,7.502,9.11,10.872c0.084,0.07,0.17,0.139,0.257,0.204l42.302,31.746
	l-3.967,21.796c-0.319,1.75,0.156,3.552,1.296,4.918c1.14,1.366,2.828,2.156,4.607,2.156h6.526c2.894,0,5.375-2.066,5.9-4.912
	l6.407-34.741c0.301-1.629-0.086-3.311-1.069-4.646l-14.263-19.372c11.142-22.416,7.295-39.002,2.649-48.483
	c8.857,4.158,16.411,10.806,21.662,19.182v73.961c0,10.483,8.528,19.012,19.01,19.012c10.485,0,19.016-8.528,19.016-19.012v-126.38
	h14.365v126.38c0,10.483,8.528,19.012,19.01,19.012c10.485,0,19.016-8.528,19.016-19.012V262.121l14.451-1.9
	c2.56,1.79,5.616,2.935,8.957,3.136c0.353,0.021,0.704,0.031,1.052,0.031c9.254,0,16.937-7.236,17.487-16.412l4.595-65.404
	c0.006-0.081,0.003-0.161,0.005-0.243C414.653,179.842,414.263,178.336,413.373,177.115z M367.938,174.061l10.886,14.924
	l-3.922,55.833c-0.087,1.455,0.027,2.874,0.282,4.246l-7.246,0.953V174.061z M198.847,199.233c1.578,0.921,3.319,1.618,5.202,2.015
	l47.787,10.062c3.921,0.767,5.999-1.671,6.809-2.983l18.878-28.83v82.411l-144.203,18.964l-1.696-4.68L198.847,199.233z
	 M238.845,286.802l-30.183-3.735l68.86-9.055v29.877C267.158,294.108,253.581,287.893,238.845,286.802z"/>
<path d="M323.288,89.908c24.788,0,44.955-20.166,44.955-44.954S348.076,0,323.288,0c-24.787,0-44.953,20.166-44.953,44.954
	S298.501,89.908,323.288,89.908z"/>
<g>
</g>
<g>
</g>
<g>
</g>
<g>
</g>
<g>
</g>
<g>
</g>
<g>
</g>
<g>
</g>
<g>
</g>
<g>
</g>
<g>
</g>
<g>
</g>
<g>
</g>
<g>
</g>
<g>
</g>
</svg>
