<svg xmlns="http://www.w3.org/2000/svg" xmlns:xlink="http://www.w3.org/1999/xlink" version="1.1" id="Layer_1" x="0px" y="0px" viewBox="0 0 80 80" style="enable-background:new 0 0 80 80;" xml:space="preserve" width="119"  height="119" >
<style type="text/css">
	.st0{fill:#F8ABAC;}
	.st1{fill:#CEE1F4;}
	.st2{fill:#9FCAEC;}
	.st3{fill:#F15759;}
	.st4{fill:#003D5E;}
</style>
<g>
	<g>
		<path class="st0" d="M32.5,92.2c-0.3,0.8-0.3,1.8-0.3,2.6c0,0.4,0,0.9,0,1.3c0,0.6,0.1,1.1,0.1,1.7c0,0.5,0,0.9,0.1,1.4    c0,0.2-0.1,0.6,0.1,0.7c0.1,0.2,0.8,0.4,0.9,0.3c0.2-0.1,0.2-0.7,0.2-0.9c0.1-0.3,0.1-0.7,0.3-0.9c0.6,0,0.9,0.8,1.2,1.2    c0.6,0.8,1.6,1,2.6,1.1c1,0.1,1.9-0.1,2.8-0.3c0.4-0.1,1-0.2,1.2-0.6c0.1-0.3,0.1-0.8,0-1.1c0-0.4-0.1-0.9-0.1-1.3    c0-0.2,0-0.4-0.2-0.6c-0.3-0.2-1-0.3-1.3-0.4c-0.7-0.3-1.4-0.8-2.2-1.2c-0.8-0.5-1.7-0.9-2.5-1.4c-0.6-0.4-1.1-0.8-1.7-1.2    c-0.2-0.1-0.5-0.5-0.7-0.5"/>
	</g>
	<g>
		<path class="st0" d="M41.6,99.4c0.4,0.2,0.6,0.2,1,0.2c0.4,0,1-0.1,1.4-0.2c0.3-0.1,0.4-0.3,0.5-0.6c0.1-0.3,0-0.6,0-0.9    c0-0.3,0-0.7,0-1c-0.1-0.3-0.2-0.5-0.6-0.7c-0.9-0.4-1.9-0.8-2.7-1.5c-0.5-0.5-1.1-1-1.6-1.6c-0.5-0.6-0.9-1.3-1.4-2    c-0.1-0.2-0.3-0.7-0.6-0.7"/>
	</g>
	<g>
		<path class="st1" d="M31.9,71.8c0,1.4,0.1,2.7-0.1,4c-0.1,1.2-0.6,2.2-0.8,3.3c-0.2,1.2-0.1,2.5,0.2,3.7c0.2,0.8,0.4,1.5,0.6,2.3    c0.1,0.7,0.3,1.4,0.5,2.2c0.3,0.8,0.5,1.6,0.6,2.4c0.1,0.3,0.1,0.7,0.2,1c0.1,0.3-0.1,0.8-0.1,1.1c0,0.5-0.1,0.9-0.1,1.4    c0,0.4,0,0.8,0.2,1.2c0.3,0.5,0.7,0.9,1,1.3c0.2,0.2,0.3,0.4,0.5,0.6c0.3,0.2,0.4,0.4,0.7,0.7c0.4,0.5,1.5,0.8,2.2,0.9    c0.6,0.1,1.2,0.1,1.8,0.1c0.5,0,1,0,1.5,0c0.4,0,0.9-0.2,1-0.6c0.2-0.4-0.2-0.9-0.5-1.1c-0.5-0.6-1.2-0.9-1.9-1.4    c-0.3-0.3-0.7-0.5-1-0.8c-0.5-0.4-0.8-1.1-1.1-1.7c-0.7-1.5-1-3.2-1.4-4.8c-0.3-1.3-0.3-2.7-0.3-4c0-2.2,0.1-4.4,0.3-6.5    c0.2-1.5,0.3-3,0.3-4.6c-0.1-1.6-0.3-3.3-0.5-4.9"/>
	</g>
	<g>
		<path class="st1" d="M38.3,71.3c0,0.7-0.1,1.5-0.1,2.2c-0.1,0.6-0.1,1.3-0.1,1.9c-0.1,1.5-0.2,3.1-0.3,4.6c-0.1,1-0.2,2-0.2,3    c0,0.8,0,1.7,0,2.5c0,0.8,0.2,1.7,0.2,2.5c0,0.5-0.1,1.1-0.1,1.6c0,0.4,0.1,0.8,0,1.2c0,0.2-0.1,0.4-0.1,0.7c0,0.5-0.1,1.1,0,1.6    c0.1,0.5,0.2,1,0.5,1.4c0.5,0.5,1,0.8,1.6,1.1c0.2,0.1,0.4,0.2,0.6,0.4c0.6,0.4,0.9,0.9,1.6,1.1c0.5,0.2,1.5,0.2,2,0    c0.4-0.1,0.4-0.6,0.4-1c-0.1-0.3-0.5-0.8-0.7-1c-0.4-0.5-1-0.8-1.5-1.3c-0.6-0.5-1.1-1.2-1.2-2c-0.3-1.6-0.2-3.4,0.1-5    c0.2-1.3,0.4-2.6,0.7-3.8c0.4-2,1-3.9,1.2-5.9c0.2-1.9,0.2-3.8,0.2-5.6c-0.1-1.2-0.2-2.4-0.2-3.6"/>
	</g>
	<path class="st0" d="M32.9,92.5c1.4,0,3-0.4,4.1-1.2c0.3-0.2,0-0.8-0.3-0.5c-1,0.7-2.6,1.1-3.8,1.1C32.5,91.8,32.5,92.5,32.9,92.5   L32.9,92.5z"/>
	<path class="st0" d="M37.7,91c0.9,0,1.9,0.1,2.8,0.1c0.4,0,0.4-0.6,0-0.6c-0.9,0-1.9-0.1-2.8-0.1C37.3,90.4,37.3,91,37.7,91   L37.7,91z"/>
	<path class="st0" d="M35.1,97.4c1.7-0.2,3.3-1,5-1.1c0.4,0,0.4-0.6,0-0.6c-1.7,0.1-3.3,0.9-5,1.1C34.8,96.9,34.7,97.5,35.1,97.4   L35.1,97.4z"/>
	<path class="st0" d="M40.2,96.1c1.2-0.1,2.3-0.4,3.5-0.4c0.4,0,0.4-0.6,0-0.6c-0.6,0-1.1,0.1-1.7,0.2c-0.6,0.1-1.2,0.2-1.8,0.3   C39.8,95.5,39.8,96.1,40.2,96.1L40.2,96.1z"/>
	<g>
		<path class="st1" d="M46.2,8.3c0.2,0.4,0.4,0.8,0.7,1.2c0.3,0.3,0.5,0.5,0.7,0.9c0.1,0.3,0.1,0.6,0.2,0.9c0.1,0.3,0.2,0.6,0.3,0.9    c0.1,0.3,0.1,0.6,0.1,1c0,0.4,0.1,0.8,0.1,1.2c0,0.8-0.1,1.6-0.3,2.4c-0.2,0.8-0.6,1.6-1.1,2.2c-0.2,0.2-0.5,0.4-0.7,0.7    c-0.2,0.1-0.3,0.1-0.3,0.3c-0.1,0.2,0,0.5,0,0.7c0.2,1.3,0.8,2.7,1.8,3.5c0.6,0.4,1.1,0.7,1.8,0.7c0.4,0,0.5,0,0.8,0.3    c0.4,0.4,0.4,0.9,0.4,1.4c0,1-0.2,2.1-0.3,3.1c-0.1,1.2-0.3,2.3-0.3,3.5c0,1.3-0.2,2.6-0.6,3.8c-0.2,0.7-0.4,1.9-1.1,2.3    c-0.6,0.4-1.3,0.3-1.8-0.2c-0.5-0.5-0.7-1.3-0.8-2c-0.3-1.7-0.2-3.4-0.5-5.1c-0.1-0.4-0.1-0.8-0.2-1.2c-0.1-0.3-0.2-0.5-0.3-0.7    c-0.1-0.3-0.2-0.7-0.3-1c0-0.1-0.1-0.4-0.2-0.5c-0.2-0.1-0.6,0.4-0.7,0.5c-0.6,0.5-3.5-0.4-3.7-0.8c-0.4-0.9-0.2-1.2-0.6-2.1    c-0.3-0.7,0.1-1.4-0.3-2.1c-0.2-0.3,0.4,0.3,0,0.5c-0.4,0.2,0-0.6-0.2-0.3c-0.7,1.1-1.4,2.3-2,3.5c-0.7,1.4-0.6,3.2-1,4.7    c-0.2,0.7-0.9,0.9-1.1,1.6c-0.2,0.6-0.4,1.4-0.8,2c-0.5-0.8-0.4-1.8-0.5-2.6c-0.2-1.4-0.3-2.8-0.6-4.1c-0.1-0.3-0.1-0.9-0.3-1.1    c-0.3-0.4-1.4,0.5-1.7,0.7c-0.7,0.4-1.5,0.7-2.2,1.1c-0.4,0.2-0.8,0.4-1.3,0.6c-0.2,0.1-0.5,0.1-0.7,0.3c-0.2,0.1-0.1,0.4-0.1,0.6    c0.2,0.8,0.8,1.6,1.3,2.3c0.7,1,1.4,2.1,2.1,3.1c0.5,0.9,1.2,1.7,2.1,2.2c0.6,0.4,1.1,0.7,1.7,1.1c0.4,0.2,1,0.4,1.4,0.7    c0.6,0.6,0.1,1.4-0.5,1.7c-0.4,0.2-0.6,0.1-0.8,0.6c-0.2,0.5-0.1,0.7-0.6,1c-0.2,0.2-0.6,0.4-0.8,0.3c-0.6-0.1-0.8-1.1-1-1.6    c-0.7-1.7-1.9-3.2-3.3-4.3c-0.6-0.5-1.2-0.9-1.8-1.4c-0.8-0.7-1.5-1.4-2.2-2.2c-0.7-0.8-1.6-1.8-1.9-2.8c-0.3-1.1,0.1-2,0.8-2.8    c0.8-1,1.9-1.9,2.9-2.7c1-0.7,2-1.5,3-2.1c0.8-0.5,1.8-0.9,2.6-1.4c0.7-0.4,1.5-0.7,2.1-1.3c0.4-0.3,0.8-0.5,1.2-0.8    c0.6-0.5,1.2-1,1.8-1.5c0.3-0.2,0.5-0.4,0.7-0.6c0.4-0.4,0.6-1,0.9-1.4c1-1.6,1.5-3.3,2.1-5.1c0.3-1,0.7-2.2,1.6-2.9    c0.3-0.2,0.6-0.2,0.9-0.4c0.4-0.2,0.8-0.3,1.2-0.4c0.7-0.2,1.2-0.4,1.9-0.4"/>
	</g>
	<g>
		<path class="st2" d="M39.1,22.6c-0.2,0.4-0.3,0.8-0.5,1.2c-0.2,0.3-0.2,0.5-0.4,0.8c-0.5,0.6-0.6,1.6-0.9,2.3    c-0.7,2-1.4,4-2.3,5.9c-0.3,0.7-0.5,1.4-0.9,2c-0.1,0.2-0.2,0.3-0.3,0.5c-0.2,0.2-0.2,0.4-0.3,0.7c-0.2,1.2-0.1,2.6,0.1,3.8    c0.1,0.3,0.3,0.7,0.3,1.1c0,0.6-0.6,1.6-0.8,2.1c-0.5,0.9-0.9,1.8-1.3,2.8c-0.8,1.8-0.9,3.8-1,5.7c-0.3,4.6-0.7,9.3-1.1,13.9    c-0.1,1.5-0.2,3-0.4,4.5c-0.1,0.8-0.5,1.6,0.2,2.1c0.8,0.6,1.9,0.9,2.8,1.2c0.6,0.2,1.3,0.4,1.9,0.5c0.6,0.1,0.8-0.2,1-0.8    c0.1-0.2,0.2-0.8,0.4-0.8c0.2,0,0.6,0.3,0.7,0.3c0.4,0.2,0.8,0.4,1.2,0.6c1.1,0.4,2.1,0.5,3.2,0.4c0.9-0.1,1.8-0.2,2.6-0.5    c0.5-0.2,1-0.4,1.5-0.5c0.7-0.1,1.5-0.2,2.2-0.3c0.4,0,0.7,0.1,1.1,0.1c0.3,0,0.6-0.1,0.9-0.1c0.1,0,0.4,0,0.5-0.1    c0.2-0.2,0.1-0.4,0.1-0.6c-0.1-1.4-0.3-2.8-0.5-4.2c-0.2-1.5-0.3-3-0.3-4.5c0-2,0-3.9-0.1-5.9c-0.1-1.9-0.1-3.8-0.3-5.7    c-0.2-1.4-0.5-3-1-4.3c-0.3-1-0.8-2-1.1-3c-0.6-1.8-0.7-3.6-0.7-5.5c0-2,0-4.1-0.1-6.1c-0.1-0.8-0.2-1.7-0.4-2.4    c-0.1-0.3-0.3-0.7-0.6-0.8c-0.3-0.1-2.4-1-2.7-1.5c-0.1-0.2-1.8-3.4-3.1-5"/>
	</g>
	<g>
		<path class="st3" d="M36.3,21.8c0,0,0.1,0,0.1,0"/>
	</g>
	<path class="st3" d="M37.6,22.1c2.1,1.4,0.1,6-0.5,7.8c-0.9,2.6-1.9,5.1-2.6,7.7c-0.7,2.7-1.4,5.4-2.2,8.1   c-0.7,2.2-1.7,4.6-1.9,6.9c0,0.4,0.6,0.4,0.6,0c0.2-1.6,0.9-3.3,1.4-4.8c0.4-1.5,0.9-2.9,1.3-4.4c0.9-3,1.5-6,2.4-9   c0.9-2.7,2.2-5.3,2.8-8.1c0.3-1.5,0.6-3.8-0.9-4.8C37.6,21.3,37.2,21.9,37.6,22.1L37.6,22.1z"/>
	<path class="st3" d="M31.3,28.1c-0.6,8.1-2.5,16-3.9,23.9c-0.1,0.4,0.5,0.6,0.6,0.2c1.3-8,3.3-15.9,3.9-24.1   C32,27.7,31.4,27.7,31.3,28.1L31.3,28.1z"/>
	<g>
		<path class="st3" d="M31,52c-0.1-0.4-0.8-0.7-1.2-1c-0.4-0.3-0.6-0.6-1.2-0.6c-1.7-0.2-1.9,1.6-1.9,2.4c-0.1,0.8,0,1.6,0,2.4    c0,0.9,0.2,1.8,0.2,2.7c0,0.8,0,1.7,0.2,2.5c0.2,0.7,1,1.3,1.7,1.7c0.4,0.2,1,0.5,1.5,0.5c0.6,0,0.7-0.5,0.9-0.8    c0.5-1.4,0.8-2.7,0.8-4.1c0-2,0.6-4.7-1.6-6.2"/>
	</g>
	<g>
		<path class="st4" d="M45.6,8.8c0,0.8-0.1,1.4-0.4,2.2c-0.2,0.5-0.3,1-0.9,1c-0.9,0-2.2,0-2.9-0.7c-0.3,0.1-0.3,0.8-0.4,1    c-0.1,0.4-0.1,0.7-0.1,1.2c0.1,1.3,0.7,2.4,1.1,3.6c0.4,1.3,0.6,2.8,0.3,4.1c-0.1,0.6-0.2,1.2-0.6,1.7c-0.2,0.3-0.8,0.9-1.1,1    c-0.1-0.4,0.2-0.8,0.1-1.2c-0.6,0.4-0.7,0.8-1.6,0.7c-0.3,0-0.5-0.2-0.8-0.2c-0.4,0-0.7,0-1-0.1c-0.4-0.1-0.9-0.3-1.3-0.6    c-0.2-0.1-0.1-0.1-0.3-0.2c-0.3-0.1-0.7-0.1-1-0.2c-0.4-0.1-0.8-0.3-1.2-0.4c-0.2-0.1-0.9-0.1-0.9-0.2c0.6-0.3,1-0.5,1.5-1    c0.4-0.5,0.8-1,1.1-1.6c0.3-0.5,0.6-1,0.8-1.5c0.3-0.8,0.5-1.7,0.7-2.5c0.3-1.3,0.7-2.7,1.3-4c0.3-0.5,0.5-1,0.9-1.4    c0.5-0.4,1.1-0.9,1.7-1.1C41.2,8,42.2,8,43.1,8c0.8,0,1.6,0,2.4,0.4c0.3,0.1,0.6,0.3,0.9,0.5c0.4,0.2,0.6,0.6,0.9,0.9    c0.5,0.7,1,1.5,1.3,2.3c0.5,1.5,0.9,2.9,0.9,4.5c0,0.5,0.1,1.1,0.1,1.6c0,0.8,0.3,1.5,0.3,2.3c0.1,0.6,0.1,1.2,0.1,1.9    c0,0.6,0.1,1.2-0.2,1.7c-0.3,0.5-1,1.1-1.7,1c-0.5,0-0.7-0.5-0.9-0.9c-0.3-0.5-0.6-1.2-1-1.6c-0.3-0.3-0.6-0.7-0.7-1.1    c-0.1-0.4-0.2-1-0.1-1.4c0.1-0.2,0.2-0.4,0.3-0.6c0.1-0.3,0.3-0.5,0.5-0.8c0.8-1.1,1-2.2,1-3.5c0-1.4,0-2.7-0.4-4.1    c-0.2-0.6-0.5-1.1-0.8-1.7c-0.1-0.2-0.5-0.7-0.3-0.9"/>
	</g>
</g>
</svg>