<svg xmlns="http://www.w3.org/2000/svg" xmlns:xlink="http://www.w3.org/1999/xlink" version="1.1" id="Layer_1" x="0px" y="0px" viewBox="0 0 80 80" style="enable-background:new 0 0 80 80;" xml:space="preserve" width="119"  height="119" >
<style type="text/css">
	.st0{fill:none;}
	.st1{fill:none;stroke:#0096D7;stroke-width:1.1339;}
	.st2{fill:#CFE1F4;}
	.st3{fill:#D75357;}
	.st4{fill:#FFFFFF;}
	.st5{fill:url(#SVGID_1_);}
	.st6{fill:#0099FF;}
	.st7{fill:#1E456A;}
	.st8{fill:none;stroke:#D75357;stroke-width:0.3;stroke-miterlimit:10;}
</style>
<pattern y="80" width="72" height="72" patternUnits="userSpaceOnUse" id="SVGID_2_" viewBox="72.2 -144.2 72 72" style="overflow:visible;">
	<g>
		<rect x="72.2" y="-144.2" class="st0" width="72" height="72"/>
		<g>
			<rect x="72.2" y="-144.2" class="st0" width="72" height="72"/>
			<g>
				<rect x="72.2" y="-144.2" class="st0" width="72" height="72"/>
				<g>
					<line class="st1" x1="78.2" y1="-72.5" x2="78.2" y2="0"/>
					<line class="st1" x1="102.2" y1="-72.5" x2="102.2" y2="0"/>
					<line class="st1" x1="126.2" y1="-72.5" x2="126.2" y2="0"/>
					<line class="st1" x1="90.2" y1="-72.5" x2="90.2" y2="0"/>
					<line class="st1" x1="114.2" y1="-72.5" x2="114.2" y2="0"/>
					<line class="st1" x1="138.2" y1="-72.5" x2="138.2" y2="0"/>
				</g>
				<g>
					<line class="st1" x1="144" y1="-78.2" x2="216.5" y2="-78.2"/>
					<line class="st1" x1="144" y1="-102.2" x2="216.5" y2="-102.2"/>
					<line class="st1" x1="144" y1="-126.2" x2="216.5" y2="-126.2"/>
					<line class="st1" x1="144" y1="-90.2" x2="216.5" y2="-90.2"/>
					<line class="st1" x1="144" y1="-114.2" x2="216.5" y2="-114.2"/>
					<line class="st1" x1="144" y1="-138.2" x2="216.5" y2="-138.2"/>
				</g>
				<g>
					<line class="st1" x1="78.2" y1="-144.5" x2="78.2" y2="-72"/>
					<line class="st1" x1="102.2" y1="-144.5" x2="102.2" y2="-72"/>
					<line class="st1" x1="126.2" y1="-144.5" x2="126.2" y2="-72"/>
					<line class="st1" x1="72" y1="-78.2" x2="144.5" y2="-78.2"/>
					<line class="st1" x1="72" y1="-102.2" x2="144.5" y2="-102.2"/>
					<line class="st1" x1="72" y1="-126.2" x2="144.5" y2="-126.2"/>
					<line class="st1" x1="72" y1="-90.2" x2="144.5" y2="-90.2"/>
					<line class="st1" x1="72" y1="-114.2" x2="144.5" y2="-114.2"/>
					<line class="st1" x1="72" y1="-138.2" x2="144.5" y2="-138.2"/>
					<line class="st1" x1="90.2" y1="-144.5" x2="90.2" y2="-72"/>
					<line class="st1" x1="114.2" y1="-144.5" x2="114.2" y2="-72"/>
					<line class="st1" x1="138.2" y1="-144.5" x2="138.2" y2="-72"/>
				</g>
				<g>
					<line class="st1" x1="0" y1="-78.2" x2="72.5" y2="-78.2"/>
					<line class="st1" x1="0" y1="-102.2" x2="72.5" y2="-102.2"/>
					<line class="st1" x1="0" y1="-126.2" x2="72.5" y2="-126.2"/>
					<line class="st1" x1="0" y1="-90.2" x2="72.5" y2="-90.2"/>
					<line class="st1" x1="0" y1="-114.2" x2="72.5" y2="-114.2"/>
					<line class="st1" x1="0" y1="-138.2" x2="72.5" y2="-138.2"/>
				</g>
				<g>
					<line class="st1" x1="78.2" y1="-216.5" x2="78.2" y2="-144"/>
					<line class="st1" x1="102.2" y1="-216.5" x2="102.2" y2="-144"/>
					<line class="st1" x1="126.2" y1="-216.5" x2="126.2" y2="-144"/>
					<line class="st1" x1="90.2" y1="-216.5" x2="90.2" y2="-144"/>
					<line class="st1" x1="114.2" y1="-216.5" x2="114.2" y2="-144"/>
					<line class="st1" x1="138.2" y1="-216.5" x2="138.2" y2="-144"/>
				</g>
			</g>
		</g>
	</g>
</pattern>
<g>
	<ellipse transform="matrix(0.9068 -0.4216 0.4216 0.9068 -4.6267 17.4317)" class="st2" cx="37.1" cy="19.2" rx="0.8" ry="1.3"/>
	
		<ellipse transform="matrix(7.580781e-02 -0.9971 0.9971 7.580781e-02 26.3316 62.7902)" class="st2" cx="47" cy="17.2" rx="1.3" ry="0.8"/>
	<g>
		<path class="st2" d="M28.2,69c0,0.8,0,1.7,0,2.5c0,1,0.1,2,0.1,3c0,1.7,0.2,3.4,0.5,5.1c0.6,3,0.7,5.8,0.2,8.9    c-0.2,1.5-0.4,3-0.4,4.4c0,1,0.1,1.9,0.1,3c0,0.7,0.1,1.4,0.4,2.1c0.4,1.5,0.5,3.2,0.8,4.9c0.4,1.5,0.7,3.1,0.8,4.8    c0,0.5,0,1,0.1,1.4c0.1,0.5,0.6,0.5,1.1,0.5s1-0.1,1.4-0.1c0.4,0,0.7,0.1,1-0.4c0.2-0.4,0.1-1.1,0.1-1.5c0-1.1,0-2.1,0-3.2    c0-2.1,0.4-4.2,0.6-6.2c0.2-1.9,0.4-3.7,0.4-5.6c0-0.8-0.1-1.7-0.2-2.5c-0.1-0.6-0.2-1.1-0.1-1.7c0.1-0.4,0.1-0.8,0.4-1.3    c0.1-0.4,0.5-0.7,0.6-1.1c1-1.5,1.3-3.7,1.4-5.5c0.2-2.1,0-4.4,0.5-6.5c0.1-0.8,0.2-1.5,0.4-2.4c0-0.5,0.1-1.3,0.4-1.7    c0.1-0.2,0.6-0.5,0.8-0.5c0.4,0,0.5,0.2,0.5,0.6c0.2,1,0.2,2,0.4,3c0.1,1.2,0.2,2.4,0.4,3.6c0.1,2.3,0.1,4.6,0.7,6.8    c0.4,1.4,1,2.9,1.2,4.3c0.1,1-0.2,2-0.4,3c-0.1,1-0.4,2-0.6,3c-0.1,0.4-0.2,0.7-0.2,1.1c-0.1,0.4,0,0.8-0.1,1.2    c-0.1,1-0.1,2-0.1,3c0,1.1-0.1,2.3-0.1,3.3c0,1.4-0.1,3-0.5,4.3c0,0.4-0.1,0.7-0.1,1c0,0.7,0.4,0.7,1.1,0.7c0.2,0,0.8,0.2,1.1,0.1    c0.5-0.1,0.6-1.1,0.7-1.5c0.6-1.9,1.3-3.8,2.4-5.6c1.2-2.1,2.1-4.3,2.9-6.7c0.4-1.2,0.6-2.3,0.6-3.6c0-1.4-0.2-2.9-0.4-4.3    s-0.7-2.9-0.6-4.3c0.1-1.8,1-3.3,1.4-5c0.8-2.4,1-5,0.8-7.5c-0.1-1-0.4-2-1-2.9c-0.4-0.5-1-0.6-1.5-0.7c-2.7-0.5-5.6-0.2-8.3-0.2    c-1.4,0-2.9,0-4.3,0.1c-1.2,0.1-2.3,0.2-3.4,0.4c-0.6,0-1.3,0-1.9,0c-0.4,0-0.7-0.1-1.1,0.1c-0.1,0.1-0.1,0.5-0.2,0.6    c-0.1,0.5-0.1,0.8-0.2,1.2c0,0.1-0.6,1.4-0.4,1.7"/>
	</g>
	<g>
		<path class="st3" d="M31,108c-0.1,0.6,0.1,1.3,0.1,1.9c0,0.5,0,0.8,0,1.3c0,0.8,0,1.7,0,2.5c0,1-0.4,1.7-0.4,2.6    c0,0.5,0.4,0.8,0.6,1.2c0.6,0.6,1.3,0.5,2,0.5c1.8,0,2.9-1.8,3.1-3.4c0.2-1.3-0.2-2.7-0.8-3.9c-0.2-0.5-0.5-0.8-0.6-1.3    c-0.1-0.4-0.2-0.7-0.2-1.1c0-0.2,0-0.8-0.1-1.1c-0.4-0.4-1.3,0.4-1.7,0.6"/>
	</g>
	<g>
		<path class="st3" d="M40.6,106.4c-0.4,0.6-0.2,1.8-0.4,2.5c-0.1,0.7-0.2,1.3-0.5,2c-0.1,0.6-0.2,1.3-0.5,1.8    c-0.2,0.6-0.6,1.2-0.8,1.8c-0.4,0.7-1,2.1-0.5,2.9c0.5,0.6,1.5,1.1,2.4,1.1c0.6,0,1-0.2,1.5-0.5c0.5-0.2,1-0.5,1.4-0.7    c0.4-0.4,0.5-0.8,0.5-1.3c0.1-0.7,0.1-1.4,0.1-2.3c0-0.8-0.1-1.8-0.2-2.6c-0.1-1.1-0.1-2-0.1-3.1c0-0.6,0.2-1.2-0.5-1.4    c-0.6-0.1-1.4-0.1-2-0.1"/>
	</g>
	<g>
		<path class="st4" d="M28.2,60.5c-0.4,0.5-0.4,1.3-0.5,1.9c-0.1,0.7-0.2,1.3-0.4,2c-0.2,1.7-0.5,3.3-0.5,5c0,0.6,0,1.1,0,1.7    c0,0.2-0.1,0.6,0,0.7c0.1,0.4,0.2,0.4,0.6,0.5c0.6,0.2,1.2,0.4,1.9,0.5c1.3,0.2,2.7,0.4,4.2,0.4c0.6,0,1.2,0,1.7,0    c0.6,0,1.3,0.1,1.9,0.1c0.5,0,0.8-0.1,1.2-0.1c0.2,0,0.5,0,0.6-0.1c0.2-0.2,0.2-0.8,0.2-1.2c0-0.2,0.1-0.8,0.4-1.1    c0.2,0.2,0.1,0.7,0.1,1.1s0.1,0.7,0.1,1.1c0,0.7,0.4,0.7,1.1,0.8c2.3,0.5,4.6,0.4,6.9-0.2c1.3-0.4,2.7-0.7,3.8-1.4    c0.7-0.5,0.5-1.5,0.4-2.3c-0.2-1.9-0.4-3.7-0.6-5.6c-0.1-1.2-0.1-2.4-0.4-3.6c-0.1-0.4-0.1-0.7-0.2-1.1c0-0.2,0.1-0.4-0.1-0.5    c-0.1-0.1-0.8,0-1,0c-0.5,0-0.8,0-1.3,0.1c-1.4,0.2-2.9,0.5-4.4,0.5c-1.8,0-3.7,0.1-5.5,0.1c-1.7,0-3.3,0-5,0.1    c-1.2,0.1-2.6,0.2-3.8,0.2c-0.5,0-1.2-0.1-1.7,0l0.1,0.1"/>
	</g>
	<g>
		<pattern id="SVGID_1_" xlink:href="#SVGID_2_" patternTransform="matrix(0.1647 0 0 0.1756 -20453.1504 -3655.9414)">
		</pattern>
		<path class="st5" d="M28.2,60.2c-0.4,0.5-0.4,1.3-0.5,1.9c-0.1,0.7-0.2,1.3-0.4,2c-0.2,1.7-0.5,3.3-0.5,5c0,0.6,0,1.1,0,1.7    c0,0.2-0.1,0.6,0,0.7c0.1,0.4,0.2,0.4,0.6,0.5c0.6,0.2,1.2,0.4,1.9,0.5c1.3,0.2,2.7,0.4,4.2,0.4c0.6,0,1.2,0,1.7,0    c0.6,0,1.3,0.1,1.9,0.1c0.5,0,0.8-0.1,1.2-0.1c0.2,0,0.5,0,0.6-0.1c0.2-0.2,0.2-0.8,0.2-1.2c0-0.2,0.1-0.8,0.4-1.1    c0.2,0.2,0.1,0.7,0.1,1.1s0.1,0.7,0.1,1.1c0,0.7,0.4,0.7,1.1,0.8c2.3,0.5,4.6,0.4,6.9-0.2c1.3-0.4,2.7-0.7,3.8-1.4    c0.7-0.5,0.5-1.5,0.4-2.3c-0.2-1.9-0.4-3.7-0.6-5.6c-0.1-1.2-0.1-2.4-0.4-3.6c-0.1-0.4-0.1-0.7-0.2-1.1c0-0.2,0.1-0.4-0.1-0.5    c-0.1-0.1-0.8,0-1,0c-0.5,0-0.8,0-1.3,0.1c-1.4,0.2-2.9,0.5-4.4,0.5c-1.8,0-3.7,0.1-5.5,0.1c-1.7,0-3.3,0-5,0.1    c-1.2,0.1-2.6,0.2-3.8,0.2c-0.5,0-1.2-0.1-1.7,0l0.1,0.1"/>
	</g>
	<g>
		<path class="st2" d="M37,26.7c0.8,0,1.3-1,1.7-1.5c0.4-0.7,0.5-1.7,0.4-2.5c-0.1-0.6-0.4-1.2-0.6-1.7c-0.1-0.2-1.8-3.7-1.3-3.7    c0.1-0.5,0-1.1,0-1.4c0-0.8,0.1-1.7,0.6-2.4c1.2-1.5,2.9-2.4,4.8-2.4c1.1,0,2.9,1.1,3.4,1.9c0.6,0.7,1.2,4,1,4.6    c-0.1,0.5-0.1,2.4-0.1,2.9c0,0.4,0,0.7-0.1,1.1c-0.5,1.1-1.1,1.4-1.1,1.7c-0.1,0.7,0,0.5-0.2,1.2c-0.1,0.7,0.4,1.5,1,2.1    c0.2,0.2,0.4,0.6,0.6,0.7c0.1,0.1,0.8,0.6,0.8,0.8c-0.4,0.2-0.6,0.4-1,0.5c-0.5,0.2-1.1,0.2-1.5,0.5c-1.1,0.5-1.9,0.8-3.1,0.8    c-1.1,0-2.4-0.7-3.1-1.4c-0.4-0.4-0.8-0.6-1.2-1.1C37.7,27,37.3,26.8,37,26.7"/>
	</g>
	<path class="st6" d="M34.2,27.4c-0.6,0.1-1.2,0.2-1.8,0.4c-0.5,0.1-1,0.2-1.3,0.2c-0.1,0.2,0.1,0.5,0.1,0.6   c0.1,0.5,0.1,0.8,0.1,1.3c0,1.8,0,3.4-0.2,5.1c-0.2,1.9-0.4,3.9-0.6,5.8c-0.2,1.9-0.5,3.8-0.7,5.7c-0.4,1.7-1,3.2-1.3,4.9   c-0.4,1.5-1,3-1.3,4.5c-0.1,0.8-0.2,1.5-0.5,2.4c-0.1,0.7-0.4,1.3-0.5,1.9c-0.1,0.5-0.1,0.8-0.4,1.2c-0.1,0.2-0.2,0.6-0.4,0.8   c0.7,0.2,1.5,0.5,2.4,0.5c0.8,0,1.5-0.2,2.4-0.6c0.8-0.4,1.7-0.7,2.5-0.8c1.1,0,2,0.1,3.1,0.1c0.8,0,1.7-0.1,2.5-0.1   c0.6,0,1.3,0,2,0c0.8,0,1.5-0.1,2.4-0.1c0.6,0,1.2,0,1.8,0c0.8,0,1.5,0,2.4,0c1.1,0.1,2.3,0.2,3.3,0.2c0.7,0,1.3,0,2,0   c0.2,0,0.8,0.1,1.1,0c0-0.8-0.4-1.8-0.5-2.6s0-1.8,0-2.6c0-1.5,0-3-0.2-4.4c-0.1-0.6-0.1-1.2-0.2-1.9c-0.1-0.5-0.2-0.8-0.1-1.4   c0.1-1.1,0.1-2.1,0.1-3.2c0-0.6,0.1-1.2,0.1-1.8c0-0.7,0-1.4,0.1-2.1c0.1-0.6,0-1.2,0.1-1.8c0.1-0.7,0.2-1.3,0.2-2   c0-1.3,0.2-2.5,0.4-3.8c0-0.7,0.1-1.3,0-2c-0.1-0.6-0.1-1.2-0.2-1.9c0-0.2-0.1-0.5-0.1-0.8c0-0.2,0-0.4,0-0.6c-0.2,0-0.7,0-1.1,0   c-0.8-0.1-1.8-0.2-2.6-0.2c-0.6,0-1.1-0.1-1.5-0.1c-0.7,0-1.2,0.4-1.8,0.7c-2.1,1-4.4,1.1-6.5-0.1c-0.7-0.5-1.3-0.8-1.8-1.5   c-0.2-0.2-0.4-0.5-0.7-0.5"/>
	<g>
		<path class="st7" d="M36.3,16.8c-0.1,0.4,0.4,1.1,0.7,1.2c0.2-0.5,0.4-1.1,0.5-1.7c0.1-0.5,0.2-0.8,0.4-1.3c0-0.2-0.1-0.5,0.2-0.6    c0.1,0.1,0.2,0.5,0.5,0.5c0.1-0.2,0.1-0.8,0.2-1.1c0.1-0.2,0.1-0.6,0.4-0.8c0,0.2,0.2,0.2,0.4,0.4s0.5,0.5,0.7,0.6    c0.6,0.4,0.5-0.2,0.5-0.6c0-0.4,0-1.4,0.5-1c0.4,0.2,0.6,0.7,1.1,1.1c0.1-0.5-0.4-0.8,0-1.3c0.2,0.1,0.4,0.6,0.5,0.7    c0.1,0.2,0.4,0.6,0.7,0.6c-0.2-0.5-0.2-1,0-1.4c0.2,0,0.1,0.1,0.4,0.4c0.2,0.2,0.5,0.6,0.8,0.8c0.5,0.4,1.3,1.5,2,1.3    c0.2-0.5,0.2-1.5,0-2c-0.2-0.6-0.4-1.1-0.8-1.5s-1.4-1.2-2-1.4c-0.7-0.4-2-0.4-2.9-0.4c-0.8,0-1.5,0.1-2.3,0.5    c-1,0.5-1.3,1.3-1.8,2.1c-0.5,0.8-0.8,1.5-1,2.5c0,0.6-0.1,0.8,0,1.4c0.1,0.4-0.1,0.7,0.2,1.1"/>
	</g>
	<g>
		<path class="st2" d="M52.4,40.2c0.8,0,0.7-2.4,0.7-3c0-0.8,0.6-1.7,1.1-2.4c0.5-0.6,0.7-1.5,0.8-2.3c0.2-0.8,0.4-2-0.1-2.9    c-0.2-0.4-0.7-0.8-1.2-1.1c-0.5-0.2-0.8-0.1-1.3,0.1c-2.3,1-4,2.5-6.1,3.8c-0.5-0.2-0.6-1.1-0.8-1.5c-0.2-0.6-0.5-1.2-0.6-1.8    c-0.2-0.8-0.1-1.7-0.4-2.5c-0.1-0.6-0.2-1-0.1-1.5c0-0.6,0.4-1,0.7-1.4c0.4-0.6,0.8-1,1.1-1.7c0.1-0.4,0.2-0.7,0.4-1.1    c0-0.2,0.2-0.7,0.1-1c-0.2-0.7-1-0.4-1.3,0c-0.1-0.4,0.1-0.8-0.4-1.1c-0.5-0.2-0.7,0.5-1.1,0.7c-0.1-0.5-0.2-0.8-1-0.8    c-0.4,0-0.5,0.1-0.7,0.4c0,0.1-0.1,0.2-0.2,0.2c-0.1,0-0.1,0-0.1-0.1c-0.6,0.1-0.7,0.7-1,1.3c-0.4,0.7-0.5,1.7-0.6,2.5    c-0.1,1.2-0.1,2.5,0.2,3.7c0.2,1.1,0.1,2.3,0.2,3.2c0.1,1.9,0.6,3.8,0.8,5.6c0.2,1.2,0.6,2.4,1,3.4c0.2,0.6,0.4,1.3,0.8,1.8    c1.1,1.1,2.3,0.7,3.3,0c0.5-0.4,1-0.6,1.4-0.8c0.5-0.4,1.1-0.6,1.5-0.7c0.5-0.2,0.8-0.4,1.3-0.4c0.6,0.1,0.8,0.5,1.3,0.8"/>
	</g>
	<g>
		<path class="st2" d="M31.8,28.6C31.6,28.1,31,28,30.7,28c-0.7,0-1.1,0.5-1.5,1c-0.4,0.4-0.7,0.8-1,1.4c-0.2,0.6-0.4,1.3-0.5,2    c-0.4,1.3-0.5,2.9-0.5,4.2s-0.2,2.6-0.1,4c0.1,0.6,0.2,1.2,0.2,1.8c0,0.5,0,1,0.1,1.4c0.1,0.6,0.4,1.3,0.8,1.7    c0.7,0.6,1.9,0.5,2.7,0.5c0.8,0,1.7,0,2.5,0c1.1,0,2,0.1,3.1,0.2c1.3,0.1,2.6,0,3.9,0c1.2,0,2.3-0.2,3.4-0.4    c0.8,0,1.7-0.1,2.6-0.1c0.6,0,1-0.2,1.4-0.6c0.4-0.2,1-1.1,1.4-0.6c0.2,0.2,0.1,0.6,0.6,0.4c0.4-0.1,0.4-0.5,0.5-0.7    c0.2,0.1,0.4,0.2,0.5,0.4c0.4-0.2,0.6-0.7,0.7-1.2c0.1-0.8-0.2-1.4-0.7-2c-0.6-0.7-1.7-1.4-2.6-0.8c-0.5,0.4-1,0.7-1.4,1    c-0.2,0.1-0.5,0.1-0.7,0.2c-0.4,0-0.7,0.1-1.2,0.2c-0.6,0.1-1.2,0.4-1.8,0.4c-1,0.1-1.9-0.2-2.9-0.5c-0.4-0.1-0.7-0.1-1.2-0.2    c-0.4-0.1-0.6-0.4-1-0.4c-0.8-0.2-1.7-0.5-2.4-0.8c-0.5-0.2-0.8-0.2-1.3-0.4c-0.4-0.1-0.6-0.2-1-0.5c-0.6-0.2-1.1,0-1.1-1    c0-0.4,0.2-0.8,0.2-1.2c0.1-0.5,0-1.1,0-1.5c0-1.3-0.1-2.5-0.2-3.7c-0.1-0.8-0.1-1.5-0.4-2.3c0-0.2,0-0.5-0.2-0.7"/>
	</g>
	<g>
		<circle class="st8" cx="40.4" cy="16.9" r="1.4"/>
		<circle class="st8" cx="44.3" cy="16.9" r="1.4"/>
		<path class="st8" d="M41.8,16.7c0,0,0.6-0.2,1.1,0"/>
		<line class="st8" x1="46.9" y1="15" x2="45.6" y2="16.1"/>
		<line class="st8" x1="39.1" y1="17.5" x2="36.9" y2="17.7"/>
	</g>
</g>
</svg>