<svg xmlns="http://www.w3.org/2000/svg" xmlns:xlink="http://www.w3.org/1999/xlink" version="1.1" id="Layer_1" x="0px" y="0px" viewBox="0 0 80 80" style="enable-background:new 0 0 80 80;" xml:space="preserve" width="119"  height="119" >
<style type="text/css">
	.st0{fill:#D75357;}
	.st1{fill:#72B7E5;}
	.st2{fill:#1E456A;}
	.st3{fill:#0099FF;}
	.st4{fill:#FFFFFF;stroke:#0099FF;stroke-width:0.25;stroke-miterlimit:10;}
</style>
<g>
	<g>
		<path class="st0" d="M40.9,85.3c-0.1,0.5-0.3,1.2-0.1,1.8s0.3,1,0.7,1.4c0.4,0.4,0.8,0.8,1.2,1.1s0.7,0.7,1.1,1    c0.5,0.4,1.4,1,2,0.7c0.1-0.1,0.4-0.1,0.5-0.4c0-0.1,0-0.8-0.1-1"/>
	</g>
	<g>
		<path class="st0" d="M34.5,84.5c-0.1,0-0.1,0.1-0.3,0.3c-0.1,0.3-0.4,0.4-0.5,0.7c-0.1,0.3-0.3,0.7-0.3,1c0,0.4-0.1,0.8-0.1,1.2    c0,0.3,0,0.5,0,0.8c0,0.3,0.1,0.4,0.1,0.7c0,0.1,0,0.4,0.1,0.5c0.1,0.1,0.3,0.4,0.4,0.5c0.1,0.3,0.3,0.5,0.5,0.7    c0.3,0.3,0.5,0.4,1,0.5c0.5,0.1,1,0.3,1.4,0c0.3-0.1,0.5-0.7,0.5-1.1"/>
	</g>
	<g>
		<path class="st1" d="M46.9,45.3c0,0.3,0.1,0.8,0.1,1.1c0.1,0.8,0.3,1.5,0.4,2.3c0.3,1.9,0.5,3.8,1.2,5.6c0.3,0.7,0.7,1.4,1,2    c0.1,0.4,0.3,0.8,0.4,1.1c0.1,0.4,0.1,1,0.1,1.4c0,0.5,0.3,1.2,0.3,1.8c0,0.3,0.1,1.1,0.4,1c0.4-0.1,0.4-0.7,0.4-1.1    c0,0,0,0.3,0,0.4c0,0.1-0.1,0.4-0.1,0.7c-0.1,0.3-0.3,0.8-0.3,1.1c0.1-0.1,0.3-0.1,0.4-0.3c0.1,0,0.3-0.1,0.4-0.3    c0.3-0.3,0.4-0.5,0.5-1s0-1,0-1.4c0-0.5-0.1-1.1-0.3-1.6c-0.1-0.8-0.4-1.6-0.7-2.3c-0.3-0.5-0.4-1-0.5-1.5    c-0.3-0.7-0.4-1.2-0.5-1.9c-0.4-1.4-0.7-2.7-1.1-4.1c-0.1-0.8-0.4-1.5-0.5-2.3c0-0.5-0.1-1.1-0.1-1.6"/>
	</g>
	<g>
		<path class="st1" d="M40.7,65.1c0,0.5-0.1,1.1-0.1,1.6c0,0.5,0,1,0,1.5c0,0.4,0,0.7,0,1.1c0,0.5,0.1,1.2,0.1,1.8s0,1.1,0,1.6    c0,1.5-0.1,3,0.1,4.4c0.1,0.7,0.3,1.5,0.4,2.2c0,0.5,0.1,1.1,0.1,1.6s-0.1,1.2-0.1,1.8s0,1.1-0.1,1.8c0,0.1-0.1,0.3-0.1,0.5    c-0.1,0.3,0,0.3,0.3,0.3c0.7,0,1.2,0.1,1.8,0.3c0.3,0.1,0.8,0.3,1,0c0-0.3,0-0.7,0-0.8c0-0.7,0-1.5,0-2.2c0-1.2,0-2.6,0.3-3.8    c0.3-0.7,0.4-1.5,0.5-2.3s0.3-1.8,0.1-2.6c0-0.4,0-0.7,0-1c0-0.3,0-0.5,0-0.8c0.1-0.8,0.3-1.5,0.5-2.3c0.1-0.5,0.3-1.1,0.4-1.6    c0.3-0.7,0.4-1.2,0.5-1.9c0.1-0.3,0.1-0.7,0.1-1.1c-0.1,0.1,0,0,0,0"/>
	</g>
	<g>
		<path class="st1" d="M34.6,61.5c0.3,1,0.1,1.9,0.3,2.9c0.1,1.1,0.1,2.2,0.1,3.3c0,0.8-0.1,1.8-0.3,2.6c-0.1,0.5-0.3,1.1-0.4,1.6    c-0.4,2-0.4,4.2-0.3,6.3c0,0.7,0.3,1.5,0.3,2.3c0.1,0.7,0,1.4,0,2c0,0.8-0.1,1.6-0.1,2.5c0,0.4,0,0.7,0,1.1c0,0.1,0.1,0.3,0.3,0.3    c0.1,0,0.3,0,0.4,0s0.4,0,0.7,0c0.5,0,1.1,0.1,1.5,0c0-0.1,0-0.3,0-0.4c0-0.4,0-0.8,0-1.2c0-0.8,0-1.8,0-2.6c0-1.1,0.1-2,0.4-3.1    c0.1-0.7,0.4-1.4,0.4-2c0.1-0.8,0-1.8,0.1-2.6c0.1-0.8,0.5-1.8,1-2.6c0.1-0.4,0.3-0.8,0.4-1.2c0.1-0.3,0.1-0.5,0.1-0.8    c-0.1-0.7-0.3-1.2-0.3-1.8c0-0.7,0-1.4,0-2"/>
	</g>
	<g>
		<path class="st2" d="M40.9,83.8L40.9,83.8c-0.3,0-0.4,0.8-0.5,1c-0.1,0.5-0.1,1.2,0.1,1.8c0.3,0.4,0.7,0.8,1.1,1.2    c0.4,0.5,1,1,1.4,1.5c0.7,0.5,1.4,1.2,2.2,1.2c0.5,0,1.2-0.3,1.1-1c-0.1-0.5-0.5-1.1-0.7-1.6c0-0.4-0.3-0.8-0.4-1.2    c-0.1-0.3-0.3-0.4-0.3-0.7c0-0.3,0-0.7,0-1.1c0-0.3-0.1-0.4-0.4-0.5c-0.3,0-0.5-0.1-0.8-0.1c-0.4,0-1-0.1-1.4,0.1    c-0.1,0.1-0.1,0.4-0.4,0.3c-0.1,0-0.1-0.1-0.3-0.1c0,0-0.1,0-0.1-0.1C41.3,84.2,41.2,83.8,40.9,83.8"/>
	</g>
	<g>
		<path class="st2" d="M37.4,85.3L37.4,85.3C37.2,85,37,85.1,36.7,85c-0.1-0.3-0.3-0.5-0.5-0.7c-0.3-0.3-0.5-0.3-0.8-0.1    s-0.7,0.4-0.8,0.3c-0.1-0.1-0.1-0.5-0.4-0.4L34,84.3c0,0.1-0.1,0.4-0.1,0.7c-0.1,0.5-0.1,1-0.1,1.4c0,0.7,0,1.4,0.1,2    c0,0.5,0.1,1.2,0.4,1.6c0.4,0.4,1,0.5,1.4,0.7s0.8,0.1,1.2,0.1c0.3-0.1,0.5-0.3,0.7-0.7c0.1-0.4,0.1-0.7,0-1    c-0.1-0.3-0.1-0.7-0.1-1.1c0-0.3,0-0.4,0-0.7c0-0.1-0.1-0.4-0.1-0.7c0-0.3,0-0.5,0-0.8C37.2,85.7,37.4,85.5,37.4,85.3"/>
	</g>
	<g>
		<path class="st3" d="M34.5,55.7c0,0.4-0.1,1-0.3,1.4c-0.1,0.7-0.1,1.5-0.3,2.2c-0.3,1.4-0.1,2.7-0.3,4.1c-0.1,0.1-0.1,0.4,0,0.5    c0.1,0,0.1,0.1,0.3,0.1c0.1,0.1,0.1,0.1,0.3,0.3c0.3,0.3,0.7,0.4,1,0.7c0.4,0.4,0.8,0.7,1.2,1.1c0.7,0.5,1.4,1.1,2.2,1.4    c0.7,0.3,1.5,0.4,2.3,0.5c0.1,0,0.4,0.1,0.5,0c0-0.1,0.1-0.3,0.1-0.3s0.1-0.1,0.1-0.3c0.1-0.3,0.3-0.7,0.4-1s0.1-0.7,0.3-1.1    l0.1,0.1c0.1,0,0.3,0.1,0.4,0.1c0.3,0.1,0.5,0.1,1,0.3c0.5,0.1,1.2,0.1,1.8,0.1s1.1,0,1.6-0.1c0.4,0,1-0.1,1.5-0.3    c0.4-0.1,0.8-0.4,1.2-0.7c0.3-0.1,0.4-0.1,0.5-0.3c0.1-0.1,0.3-0.1,0.4-0.3c0-0.1,0-0.1,0-0.3c0.1-0.4,0-0.8,0-1.2    c0-0.7-0.1-1.4-0.3-2c0-0.3-0.1-0.5-0.1-0.8c-0.1-0.4-0.3-0.8-0.4-1.2c-0.3-0.7-0.3-1.5-0.8-2"/>
	</g>
	<g>
		<path class="st1" d="M38.2,26.3c-0.3,0-0.3,0.3-0.3,0.5c0,0.1,0,0.8-0.1,0.8c-0.3-0.1-0.8-0.4-1.1-0.4c-0.4-0.1-0.7,0.1-0.8,0.4    c-0.4,1,0.5,2.3,1.4,2.9c0.3,0.1,0.8,0.1,0.8,0.4c0,0.3,0.1,0.7,0.1,1.1c0.1,0.5-0.1,1.1-0.5,1.4c-0.1,0-0.3,0.1-0.3,0.3    c0,0.1,0.1,0.3,0.3,0.4c0.3,0.1,0.5,0.5,0.8,0.7c0.1,0.1,0.4,0.1,0.5,0.3c0.1,0.1,0.3,0.3,0.5,0.3c0.3,0.1,0.5,0.1,0.8,0.3    c1.1,0.3,2.5,0.4,3.4-0.1c0.1-0.1,0.5-0.3,0.5-0.4s-0.1-0.1-0.1-0.3c-0.1-0.3-0.3-0.5-0.3-1c0-0.3,0.1-0.4,0.3-0.7    s0.3-0.4,0.4-0.7c0.5-0.8,1.2-1.8,1.4-2.7c0.1-0.5,0-1.2,0-1.8s0-1.1,0.1-1.5"/>
	</g>
	<path class="st4" d="M43.8,34c0.1,0.1,0.4,0.4,0.4,1.1c0,0.4-0.1,0.5-0.5,0.8c-0.1,0-0.3,0.1-0.4,0.3c-0.3,0.1-0.8,0-1.2,0   c-0.4,0-0.8-0.1-1.2-0.3c-0.7-0.3-1.2-0.4-1.8-0.7c-0.5-0.3-1-0.7-1.4-1c-0.3-0.1,0.1-0.4-0.1-0.3c-0.1,0-0.5,0.3-0.7,0.3   c-0.4,0.1-0.8,0.4-1.2,0.7c-0.7,0.5-1.1,1.2-1.6,1.8c-0.4,0.4-0.8,1-1.4,1.5c-0.3,0.3-0.7,0.5-1,1c-0.3,0.3-0.4,0.7-0.7,1   c-0.3,0.4-0.5,0.7-0.8,1c-0.8,1-1.5,2-1.8,3.1c-0.1,0.4,0.1,0.4,0.5,0.4c0.7,0,1.2,0.1,1.8,0.3c0.4,0.1,0.8,0.1,1.1,0.4   c0.3,0.1,0.4,0.3,0.5,0.4c0.3,0.3,0.4,0.7,0.4,1.1c0.1,1.1,0.1,2.2,0.3,3.3c0.1,0.7,0.1,1.4,0.3,2c0.1,0.5,0.3,1,0.4,1.5   c0.1,0.8,0,1.2,0.1,2c0,0.5,0.1,1.8,0,2.3c-0.1,0.4-0.3,0.7,0,1.1c0.1,0.4,0.8,0.7,1.1,0.8c0.4,0.3,0.8,0.3,1.2,0.3   c1.5,0.1,3.1,0,4.8,0.1c0.7,0.1,1.4,0.1,2.2,0.1c0.3,0,0.7,0,0.8-0.3c0.1-0.1,0.1-0.4,0.1-0.5c0.1-0.4,0.3-0.4,0.5-0.5   c0.4-0.1,1,0,1.4,0c0.7,0,1.4,0.3,1.9,0c0.3-0.3,0.1-0.4,0.1-0.7s0-0.5,0.3-0.7c0.4-0.1,1.9-0.1,1.5-1c-0.1-0.5-0.5-1.1-0.7-1.6   c-0.3-0.7-0.5-1.5-0.7-2.2c-0.3-0.7-0.4-1.4-0.4-2c0-0.5,0-1.1-0.1-1.9c-0.1-0.8-0.3-1.8-0.3-2.6c0-0.3,0-0.5,0-0.8   c0.1-0.1,0-0.4,0.1-0.5c0.1,0,0.4,0.1,0.5,0.1c0.4,0.1,0.8,0,1.2,0c0.4,0,1.4-0.3,1.5-0.8c0-0.3-0.1-0.4-0.1-0.5   c-0.1-0.5-0.4-1-0.5-1.5c-0.4-1.4-0.7-2.7-1.2-4.1c-0.3-0.7-0.5-1.4-0.8-2c-0.3-0.5-0.4-1.1-1-1.5c-0.5-0.4-1.1-0.7-1.8-0.8   c-0.3,0-0.4,0-0.5,0s-0.4,0-0.5,0S44.1,33.7,43.8,34C43.9,33.8,43.9,34,43.8,34"/>
	<circle class="st0" cx="34.1" cy="50.3" r="5.7"/>
	<g>
		<path class="st1" d="M28.5,44.6c-0.1,0.1-1.1,1.9-1.1,2.2c0,0.1-0.1,0.4-0.1,0.5s0,0.3,0,0.4c0.1,0.8,0.3,1.6,0.4,2.5    c0.3,1.2,0.4,2.5,0.8,3.7c0.4,1.1,0.7,2.2,1.5,3c0.3,0.3,0.5,0.5,0.8,0.8c0.1,0.1,0.3,0.5,0.5,0.7c0.3,0.3,0.5,0.5,1,0.7    c0.1,0,0.4,0.1,0.5,0.1c0.3,0.1,0.4,0.1,0.5,0.1c0.3,0.1,0.5,0.3,0.8,0.1c0-0.1-0.1-0.3-0.1-0.4c0.1-0.1,0.4,0,0.5,0    c0.3,0,0.5,0.1,0.8-0.1c-0.1-0.1-0.3-0.1-0.4-0.1c0,0,0.3,0,0.4,0c0.1-0.1,0.3-0.1,0.4-0.1c0.3-0.1,0.5-0.3,0.7-0.4    c0,0,0.3-0.3,0.3-0.4C36.7,57.6,36.1,58,36,58c-0.5,0.1-1.1-0.1-1.6-0.5c-0.1-0.1-1-1-0.3-1.1c0.3-0.1,0.7,0,1,0    c0.3,0,0.5,0.1,0.8,0.1c0.1,0,1.4,0.3,1.1-0.1c-0.1-0.1-0.4-0.1-0.5-0.3c-0.4-0.1-0.7-0.3-1-0.4c-0.4-0.1-0.7-0.4-1.1-0.4    c-0.3,0-0.5,0-0.8,0c-0.4,0.1-0.8,0-1.1,0c-0.1,0-0.3,0-0.4-0.1c-0.1-0.1-0.1-0.4-0.1-0.5c0-0.3-0.1-0.4-0.1-0.7    c-0.1-0.5-0.3-1.1-0.4-1.6c-0.3-0.8-0.4-1.6-0.5-2.5c-0.3-0.8,0-1.6,0.1-2.5c0-0.4,0.1-0.7,0.4-1.1c0.3-0.5,0.4-0.7,0.8-1.2"/>
	</g>
	<g>
		<path class="st2" d="M46.8,26.4c-0.1,0-0.1,0-0.3,0c-0.1,0-0.1,0-0.3,0.1c-0.1,0,0.1,0-0.1,0c-0.1,0.1-0.1,0-0.3,0s-0.1,0-0.3,0    c-0.3,0.1-0.3-0.1-0.4-0.1c-0.1,0.1-0.1,0.1-0.3,0.3s-0.1,0-0.3,0c-0.3,0-0.3,0.5-0.5,0.3c-0.1-0.1-0.3-0.3-0.4-0.3    c-0.1,0.1-0.1,0.3-0.3,0.3s-0.3-0.3-0.4-0.3s-0.1,0.1-0.3,0.1c-0.1,0.1-0.3,0-0.4,0S42.3,27,42.2,27s-0.1,0-0.3,0s-0.1-0.1-0.3,0    s-0.1,0.3-0.3,0.1c-0.1,0-0.3-0.1-0.4-0.1c0,0-0.1,0.1-0.3,0c-0.1,0-0.1-0.1-0.1-0.3c-0.1,0.1-0.3,0.4-0.4,0.5    c-0.1,0.1-0.3,0.3-0.4,0.3c0,0-0.1-0.1-0.3-0.1s-0.1,0.3-0.3,0.3c-0.1,0.1-0.3,0-0.4,0s-0.1,0.1-0.3,0.1s-0.1-0.1-0.3-0.1    s-0.3,0.3-0.3,0.4c-0.3,0-0.4-0.3-0.5-0.4c-0.3-0.1-0.4,0.1-0.5,0c-0.1,0-0.3-0.3-0.4-0.3c-0.3-0.1-0.5,0.4-0.6,0.4    c-0.1-0.5-0.4-1.5-0.4-2.1c0-0.4,0-0.7,0.1-1.1c0.1-0.4,0.3-0.7,0.4-1.1c0.1-0.4,0.3-0.8,0.5-1.2s0.6-0.7,0.9-1    c0.7-0.5,1.5-0.8,2.5-1c1-0.1,1.8,0,2.7,0c1,0,1.9,0.4,2.7,1c0.4,0.3,0.7,0.7,1,1.1c0.3,0.3,0.3,0.8,0.6,1.2    c0.4,0.5,0.5,1.7,0.5,2.4c0,0.3,0,0.8-0.1,1.1"/>
	</g>
</g>
</svg>