<svg xmlns="http://www.w3.org/2000/svg" xmlns:xlink="http://www.w3.org/1999/xlink" version="1.1" id="Layer_1" x="0px" y="0px" viewBox="0 0 80 80" style="enable-background:new 0 0 80 80;" xml:space="preserve" width="119"  height="119" >
<style type="text/css">
	.st0{fill:#CEE1F4;}
	.st1{fill:#9FCAEC;}
	.st2{fill:#003D5E;}
	.st3{fill:#0097D7;}
</style>
<g>
	<path id="XMLID_48_" class="st0" d="M29.1,98.2c0.4,0.7,0.5,1.1-0.4,2c-0.2,0.3-0.7,0.6-1,0.7c-0.5,0.2-1,0.2-1.6,0.1   c-1-0.1-1.8-0.9-2.5-1.6c-0.9-0.9-1.8-1.8-2.7-2.7c-0.5-0.5-0.9-0.9-1.4-1.4c-0.5-0.5-1-1.1-1.4-1.7c-0.1-0.2-0.3-0.5-0.2-0.8   c0-0.3,0.2-0.6,0.5-0.6c0.4-0.1,0.7,0.4,0.9,0.7c0.3,0.5,0.7,0.9,1.1,1.3c1.4,1.5,2.8,3,4.2,4.5c0.2,0.2,0.4,0.4,0.6,0.6   c0.4,0.4,1,0.7,1.5,0.8c0.1,0,0.3,0,0.4,0c0.2-0.1,0.4-0.2,0.5-0.4C28.1,99.2,28.5,98.6,29.1,98.2"/>
	<path id="XMLID_47_" class="st1" d="M26.5,92.9c0,0.8,0.1,1.5,0.1,2.3c0,0.2,0,0.5-0.1,0.7c-0.1,0.2-0.2,0.3-0.2,0.5   c0,0.3,0.3,0.6,0.6,0.7c0.4,0.2,0.9,0.3,1.4,0.5c0.4,0.2,0.8,0.6,0.8,1.1c0,0.3-0.2,0.6-0.4,0.9c-0.4,0.5-1,1-1.7,1.1   c-0.9,0.1-1.8-0.4-2.5-1.1c-0.6-0.5-1.1-1.1-1.7-1.7c-1.3-1.4-2.7-2.9-4-4.3c-0.2-0.3-0.5-0.5-0.4-0.9c0-0.3,0.3-0.6,0.6-0.8   c0.6-0.4,1.1-0.7,1.7-1c0.2-0.1,0.4-0.2,0.6-0.1c0.1,0.1,0.2,0.2,0.2,0.3C22.5,92.5,24.6,93.3,26.5,92.9"/>
	<path id="XMLID_46_" class="st0" d="M62.3,95.9c0.2,0.5,0.3,1.1,0,1.6c-0.1,0.2-0.3,0.4-0.5,0.5c-0.7,0.5-1.4,0.8-2.2,1.1   c-1.8,0.6-3.7,0.7-5.7,0.8c-1.6,0.1-3.2,0.2-4.8,0.2c-0.4,0-0.7,0-1.1-0.1c-0.5-0.3-0.7-0.9-0.8-1.5c0-0.2-0.1-0.5,0.1-0.5   c0.1-0.1,0.3,0,0.4,0.1c1.3,0.6,2.7,0.6,4.1,0.5c1.4-0.1,2.7-0.4,4.1-0.4c0.7,0,1.4,0.1,2.2-0.1c0.6-0.1,1.2-0.4,1.8-0.8   C60.7,96.9,61.5,96.4,62.3,95.9"/>
	<path id="XMLID_45_" class="st1" d="M54,93.3c0.9,0.9,2.2,1.4,3.4,1.6s2.5,0.3,3.8,0.5c0.5,0.1,1.1,0.3,1.2,0.8   c0.1,0.4-0.3,0.8-0.6,1.1c-1.2,0.9-2.7,1.3-4.2,1.4c-1.5,0.2-3,0.1-4.5,0.3c-1.5,0.2-3.1,0.6-4.6,0.3c-0.3-0.1-0.6-0.2-0.8-0.4   c-0.6-0.6-0.5-1.6-0.2-2.4c0-0.2,0.1-0.3,0.2-0.4c0.3-0.2,0.7,0.1,1,0.3c0.6,0.4,1.4,0.4,2.1,0.1c0.7-0.2,1.3-0.6,1.9-1.1   C53.5,94.9,54.2,94.1,54,93.3"/>
	<path id="XMLID_44_" class="st0" d="M51.3,14.7c0-0.3,0-0.7,0.1-1c0,0.1-0.1,0.1-0.1,0.1c0,0-0.1-0.1-0.1-0.1   c0-0.2-0.1-0.4-0.1-0.6c-0.2,0-0.3-0.1-0.4-0.2s0-0.3-0.1-0.5c0-0.5-0.3-0.9-0.7-1.2s-0.8-0.5-1.2-0.7c-0.4-0.2-0.8-0.4-1.3-0.5   c-0.4-0.1-0.8,0-1.2,0c-1.1,0.2-2.1,0.6-2.9,1.3c-1.1,0.9-1.9,2.2-2.1,3.6c-0.2,1.1,0,2.2,0,3.3c0,0.8-0.1,1.6-0.2,2.4   c0,0.1,0,0.2,0,0.3c0,0.1,0.1,0.2,0.2,0.3c0.8,0.5,1.5,1.2,2.1,2c0.4,0.5,0.7,1,1.1,1.5c0.4,0.5,0.9,0.9,1.5,1.1c0.1,0,0.2,0,0.2,0   c0.1-0.1,0.1-0.2,0.1-0.3c0.1-0.5,0.6-0.8,0.9-1.3c0.1-0.2,0.2-0.5,0.3-0.7c0.3-0.6,0.9-0.9,1.5-1.3c1-0.8,1.5-2.2,1.7-3.4   C50.9,17.2,50.9,15.9,51.3,14.7"/>
	<path id="XMLID_43_" class="st0" d="M46.6,47.1c0.1,0.2,0.2,0.3,0.3,0.5c0.2,0.2,0.3,0.5,0.5,0.7c0.9,1,2.4,1.4,3.3,2.4   c0.1,0.2,0.3,0.3,0.4,0.5c0.3,0.4,0.6,0.8,0.9,1.2c0.2,0.3,0.4,0.5,0.4,0.8s-0.1,0.7-0.4,0.8c-0.1,0.1-0.3,0.1-0.4,0.2   c0,0.1,0,0.1,0,0.2c0,0.2-0.1,0.4-0.2,0.4s-0.4,0.1-0.5,0c-0.1-0.1-0.2-0.2-0.3-0.1c0,0-0.1,0-0.1,0.1c-0.1,0.1-0.3,0.2-0.4,0.3   c-0.1,0-0.2,0-0.3,0c-0.1,0-0.1-0.1-0.2-0.1c-0.1,0-0.3,0.1-0.4,0.1c-0.3,0.1-0.7,0-0.9-0.3c-0.2-0.2-0.4-0.5-0.5-0.8   c-0.3-0.5-0.8-0.9-1.2-1.4c-0.4-0.5-0.9-0.8-0.9-1.4c0-0.2,0.2-0.6,0.2-0.8c0.1-1,0.2-2.1,0.2-3.1c0-0.2,0-0.3,0.1-0.4   C46.5,47,46.6,47,46.6,47.1"/>
	<path id="XMLID_42_" class="st2" d="M40,68c-0.3,1.4-0.9,2.6-1.5,3.8c-0.2,0.4-0.4,0.8-0.7,1.1c-0.1,0.1-0.2,0.2-0.3,0.3   c-0.1,0.2-0.1,0.4-0.1,0.6c0,0.3-0.2,0.6-0.4,0.9c-0.2,0.3-0.5,0.7-0.9,0.6c-0.1,0-0.2-0.1-0.3,0c-0.1,0.1-0.1,0.2-0.1,0.4   c0,0.7-0.6,1.2-1.1,1.7c-0.5,0.6-1,1.3-1.4,2c-0.8,1.3-1.7,2.7-2.5,4c-0.2,0.3-0.3,0.5-0.4,0.8c-0.2,0.7-0.1,1.5-0.5,2   c-0.8,0.9-1.1,2.1-1.5,3.2c-0.3,0.9-0.9,3.2-1.8,3.6c-0.6,0.3-1.3,0.1-2-0.1c-1.3-0.3-2.1-0.5-2.7-1.7C21.5,91,21,90.7,21,90.6   c0-0.2,0.4-1.5,0.6-1.7c0.8-1.1,1.3-2.6,1.9-3.9c0.4-0.7,0.7-1.4,1-2.2c0.3-0.6,0.6-1.3,0.9-1.9c0.2-0.4,0.5-0.8,0.6-1.2   c0.9-3,2.4-5.8,4.6-8.1c0.5-0.5,0.8-1.2,1-1.8c0-0.1,0.2-0.1,0.4-0.2c0.2-0.1,0.2-0.3,0.1-0.5c-0.1-0.2-0.2-0.3-0.2-0.5   c0-0.2,0.1-0.3,0.2-0.5c0.1-0.2,0.1-0.5,0.1-0.7c0.1-2.1,0-4.5,0.5-6.5c0-0.2,0.5-0.2,0.6-0.4c0.3-0.4,0.9-0.4,1.3-0.3   c1.5,0.4,2.6,1.6,3.3,3c0.7,1.4,1.1,2.9,1.8,4.2c0,0,0,0.1,0,0.1c0,0-0.1,0,0,0"/>
	<path id="XMLID_41_" class="st2" d="M40.2,67.6c-0.5,1.7-1.3,3.1-2,4.8c-0.1,0.2-0.2,0.4-0.4,0.6c-0.1,0.1-0.3,0.1-0.3,0.2   c-0.1,0.1-0.1,0.3-0.1,0.4c-0.1,0.4-0.6,0.7-0.8,1.1c-0.1,0.1-0.1,0.3-0.3,0.4c-0.1,0.1-0.4,0.2-0.5,0.3c-0.2,0.1-0.3,0.3-0.4,0.5   c-0.4,0.9-1.1,1.6-1.7,2.3c0-0.2,0.1-0.3,0.1-0.5c0.8-2,2.4-3.7,3-5.8c0.3-1,0.3-2,0.3-3.1c0-1.4-0.1-2.9-0.4-4.2   c-0.2-0.7-0.4-1.3-0.7-2c0-0.1-0.1-0.3-0.1-0.5c0-0.2,0.1-0.3,0.3-0.3c0.1,0,0.2,0,0.2,0.1c0.9,0.5,1.4,1.5,1.9,2.4   c0.5,1,1,2,1.5,3"/>
	<path id="XMLID_40_" class="st2" d="M45.3,53.3c0.2,1.5,0.6,2.9,1.2,4.3c0.3,0.6,0.5,1.2,0.8,1.7c0.9,2.1,1.1,4.4,1.8,6.6   c0.9,2.9,2.4,5.6,2.4,8.6c0,1.2-0.4,2.4-0.3,3.7c0.1,2.1,1.1,4.1,0.9,6.2c-0.2,2.6,0.7,5.4,1.7,7.8c0.2,0.6,0.5,1.2,0.4,1.8   c-0.1,0.8-0.8,1.3-1.5,1.7c-0.8,0.5-1.5,1-2.4,1.2c-0.9,0.2-1.9,0-2.5-0.8c-0.4-0.6-0.4-1.4-0.5-2.1c-0.1-0.7-0.4-1.4-0.6-2.1   c-0.2-1,0-2.1-0.3-3.2c-0.2-0.7-0.5-1.4-0.8-2.1c-0.8-1.9-1.3-4-1.4-6.1c0-1,0-2-0.1-3.1c-0.2-2.1-0.9-4.1-2.2-5.8   c-1.4-1.9-2.6-4.1-3.7-6.2c-0.5-0.9-1.1-1.9-1.8-2.7c-1.7-1.9-4.3-2.9-5.5-5.2c-0.3-0.6-0.6-1.3-0.6-2c0-0.4,0-0.9,0-1.3   c0-0.5,0-1,0-1.5c0-0.3,0-0.6,0.2-0.8c0.1-0.1,0.3-0.2,0.4-0.2c1.3-0.3,2.6-0.1,3.9,0.1c2.9,0.5,5.8,0.9,8.7,1c0.5,0,1,0.1,1.5,0.2   c0.5,0.2,0.9,0.5,1,1"/>
	<path id="XMLID_39_" class="st3" d="M46.1,25.1c0.5,0.2,0.8,0.9,0.6,1.3c-0.1,0.2-0.4,0.4-0.5,0.6c-0.5,1.1,0.1,2.4,0.4,3.6   c0.2,1.1,0.1,2.1,0.1,3.2c0,0.8,0,1.6,0,2.3c0,2.2,0,4.4,0,6.6c0,3.3,0,6.6-0.8,9.9c-0.1,0.3-0.2,0.6-0.4,0.8   c-0.3,0.2-0.6,0.3-1,0.3c-4.2,0.2-8.5,0-12.7-0.7c-0.4-0.1-1.2-0.3-1.5-0.6c-0.3-0.3,0.1-0.6,0.1-1c0.1-2.5,0.4-5,0.9-7.5   c0.2-0.9,0.4-1.8,1-2.5c0.9-1.2,2.7-1.7,3.3-3c0-0.1,0.1-0.2,0.1-0.4c0-0.3-0.2-0.5-0.5-0.6c-1.3-0.9-2.9-1.5-4.5-1.5   c-0.2,0-0.4,0-0.6-0.1c-0.3-0.2-0.2-0.6-0.1-0.9c0.7-2,1.3-4,2-6c0.6-1.7,1.1-3.4,2.3-4.8c0.8-1,1.9-1.8,3.1-2.2   c0.8-0.3,1.6-0.5,2.2-1.1c0.2-0.2,0.3-0.4,0.5-0.5c0.4-0.2,0.8,0,1.2,0.3C43.5,21.6,44.7,23.2,46.1,25.1"/>
	<path id="XMLID_38_" class="st2" d="M51.4,14.1c0-0.1,0-0.2,0-0.4c-0.1,0-0.1,0-0.2-0.1c0-0.1,0-0.1,0-0.2c0-0.3-0.4-0.5-0.5-0.8   c-0.1-0.1-0.1-0.3-0.1-0.4c-0.1-0.6-0.5-1-1-1.3c-0.5-0.3-1.1-0.4-1.6-0.5c-0.3-0.1-0.7-0.1-1-0.2c-0.3-0.1-0.5-0.1-0.8-0.1   c-0.4,0.1-0.7,0.4-0.9,0.7s-0.3,0.7-0.5,1.1c-0.5,1-1.3,1.8-1.3,2.9c0,0.2,0,0.4,0,0.6c-0.1,0.2-0.2,0.4-0.5,0.4   c-0.1-0.4-0.2-0.9-0.5-1.1c-0.3-0.2-0.7-0.2-0.9,0.1c0,0.1-0.1,0.2-0.1,0.3c0,0.9-0.1,1.8,0.2,2.6c0,0.1,0.1,0.2,0.1,0.3   c0,0.1,0,0.3-0.1,0.4c-0.1,0.3-0.2,0.7-0.3,1c-0.2-0.1-0.3-0.4-0.3-0.6s0.1-0.5,0.1-0.7c0.3-1.2-0.3-2.5,0.1-3.7   c0.2-0.6,0.2-1.2,0.4-1.8c0.1-0.5,0.2-0.9,0.5-1.3c0.2-0.3,0.6-0.5,0.6-0.8c-0.1-0.1-0.3-0.2-0.4-0.1c-0.1,0.1-0.2,0.2-0.2,0.4   c-0.1-0.1,0-0.3,0.1-0.4s0.3-0.1,0.4-0.1C42.4,10.1,42,10,41.6,10c0.3-0.1,0.6-0.1,0.9,0c0.1,0.1,0.2,0.1,0.4,0.2   c0.1,0,0.3,0,0.4-0.1c0.1-0.1,0.1-0.3,0-0.3c-0.1,0-0.1,0-0.2,0c-0.2,0-0.5,0-0.5,0.2c0.1-0.2,0.3-0.3,0.5-0.3s0.4,0.1,0.6,0.1   c0.1,0,0.1,0,0.1,0c0,0,0-0.1,0-0.1c0-0.5-0.1-1-0.5-1.2c0.2,0,0.3,0.2,0.4,0.4s0.1,0.4,0.2,0.6c0.1,0.2,0.4,0.3,0.6,0.3   c0,0,0,0,0.1,0c0.1-0.1,0-0.1-0.1-0.2C44,9.1,43.4,9,42.9,9.2c0,0,0-0.1,0.1-0.1C43.2,9,43.5,9,43.8,9c0.3,0.1,0.6,0.2,0.9,0.3   c0.1,0,0.2,0.1,0.3,0c0,0,0-0.1,0.1-0.1c0.1-0.7,0.7-1.3,1.4-1.5c-0.3,0.2-0.5,0.3-0.8,0.5s-0.4,0.5-0.4,0.8   c0.3-0.1,0.5-0.4,0.6-0.7c0.1-0.3,0.2-0.6,0.4-0.8C46.1,7.9,46,8.3,46,8.6c0.4-0.3,0.8-0.4,1.2-0.3c0.1,0,0.2,0,0.3,0   c0.1,0,0.3,0,0.4-0.1c0.7-0.2,1.5-0.1,2.2,0c0.6,0.1,1.1,0.3,1.5,0.8c0.1,0.1,0.1,0.1,0.1,0.2c0,0,0,0.1,0,0.1   c-0.1,0.2,0.1,0.3,0.2,0.4c0.1,0.1,0.1,0.3,0.2,0.5c0,0.2,0.1,0.4,0.1,0.5c0,0.1,0,0.2,0,0.3c0,0.2-0.1,0.4-0.1,0.6   c0,0.1,0,0.2,0,0.4c0,0.2,0,0.5-0.1,0.7c-0.1,0.4-0.3,0.7-0.5,1.1c0,0,0-0.1,0-0.1"/>
	<g>
		<path class="st2" d="M50.6,19.2c0,0.1-0.1,0.1-0.1,0.2C50.5,19.4,50.5,19.3,50.6,19.2L50.6,19.2z"/>
		<path class="st2" d="M43.1,20.1c0.1,0.2,0.4,0.4,0.6,0.6c0.7,0.6,1.6,1,2.4,1.4c0.1,0,0.1,0.1,0.2,0.1c0.6,0.3,1.3,0.6,2,0.4    c0.4-0.1,0.7-0.4,1-0.7c0.6-0.7,1.1-1.6,1.3-2.5c-0.1,0.3-0.3,0.5-0.4,0.8c-0.1-0.7-0.1-1.2-0.3-1.9c0-0.1-0.2-0.4-0.3-0.6    c-0.1-0.2-0.4-0.3-0.7-0.4c-0.5-0.1-1-0.1-1.4,0.1c-0.4,0.2-0.8,0.5-1,1c-0.1,0.2-0.1,0.5-0.2,0.7c-0.1,0.2-0.4,0.4-0.6,0.4    c-0.1,0-0.2-0.1-0.3-0.2c-0.4-0.4-0.6-0.8-0.9-1.2c0-0.1-0.1-0.1-0.1-0.2c-0.1-0.2-0.3-0.4-0.4-0.7c-0.2-0.5-0.3-1-0.4-1.5    c0-0.1-0.1-0.2-0.2-0.2c-0.1,0-0.2,0.1-0.2,0.2c0,0.5-0.1,1.1-0.1,1.6L43.1,20.1z M46.8,19.4c0.1-0.3,0.1-0.3,0.2-0.6    c0.1-0.2,0.1-0.3,0.2-0.4c0.2-0.2,0.6-0.2,1-0.2c0.2,0,0.4,0,0.6,0.1c0.3,0.1,0.4,0.2,0.6,0.5l0,0.1c0.2,0.7,0,0.5,0,1    c0,0.1-0.1,0.1-0.1,0.2c-0.1,0-0.1,0.1-0.2,0c0-0.1-0.2,0.1-0.2-0.2c0-0.3,0-0.3-0.2-0.4c-0.1-0.1-0.2-0.1-0.3-0.2    c-0.1,0-0.3-0.1-0.4-0.1c-0.3,0-0.5,0.2-0.6,0.5c-0.1,0.2-0.1,0.1-0.4,0.1C46.9,19.7,46.8,19.4,46.8,19.4z"/>
	</g>
	<path id="XMLID_37_" class="st0" d="M36.1,37.9c0-0.5-0.4-0.8-0.8-1.1c-1.4-0.9-3.3-1.5-5-1.4c-0.2,0.9-0.2,1.9-0.4,2.8   c-0.1,0.5-0.2,1-0.2,1.5c0,0.4,0.1,0.9,0.1,1.3c0.1,0.9-0.2,1.8-0.3,2.7c-0.4,3.6,1.3,7.2,1.5,10.8c0.2,2.3-0.2,4.6,0.3,6.8   c0.1,0.4,0.2,0.8,0.6,1c0.2,0.1,0.6,0.1,0.6,0.4c0,0.2,0.3,0.3,0.5,0.3c0.1,0,0.3,0,0.4,0c0.4,0,0.8,0.4,1.2,0.3   c0.2-0.1,0.3-0.2,0.5-0.3c0.3-0.1,0.6,0.1,0.8,0.1c0.3-0.1,0.5-0.5,0.5-0.9c0.2-1.1,0.2-2.2,0.2-3.3c0-0.2,0-0.4-0.1-0.6   c-0.1-0.2-0.2-0.5-0.3-0.7c-0.3-0.5-0.5-1-0.7-1.4c-0.2-0.5-0.4-1-0.5-1.5C35,54.6,35,54.3,35,54c0-0.5-0.1-1-0.1-1.5   c-0.1-1.3,0-2.6,0-3.9c0-0.5,0-1,0-1.5c0-0.4,0.1-0.7,0.1-1.1c0-0.3,0-0.7,0-1c0-0.9-0.1-1.6-0.1-2.5c0,0,0-0.3-0.1-0.3   c-0.2-0.6-0.2-1.3-0.2-1.9c0-0.1,0-0.1,0-0.2c0-0.1,0.1-0.1,0.1-0.2c0.4-0.5,0.6-1.2,1.1-1.6c0.1-0.1,0.2-0.2,0.3-0.3   C36.2,38,36.1,38.1,36.1,37.9"/>
</g>
</svg>