<svg xmlns="http://www.w3.org/2000/svg" xmlns:xlink="http://www.w3.org/1999/xlink" version="1.1" id="Layer_1" x="0px" y="0px" viewBox="0 0 80 80" style="enable-background:new 0 0 80 80;" xml:space="preserve" width="119"  height="119" >
<style type="text/css">
	.st0{fill:#0097D7;}
	.st1{fill:#F8ABAC;}
	.st2{fill:#F58182;}
	.st3{fill:#CEE1F4;}
	.st4{fill:#003D5E;}
</style>
<g>
	<path class="st0" d="M23.4,107.4c-0.4,0.1-0.9,0.7-1.2,1c-0.3,0.3-0.6,0.7-1,0.9c-0.5,0.4-1.1,0.7-1.6,1.2   c-0.2,0.2-0.6,0.5-0.6,0.8c-0.1,0.5,0.6,0.8,1,0.9c0.6,0.1,1.2,0.1,1.9,0.1c0.5,0,0.9,0,1.4-0.2c0.6-0.3,1.2-0.6,1.8-0.8   c0.9-0.4,1.8-0.7,2.7-1.1c0.5-0.2,0.9-0.4,1.2-0.9c0.2-0.3,0.3-0.7,0.5-1"/>
	<path class="st0" d="M42.3,108c-0.2,0.9-0.2,1.9-0.1,2.8c0.1,1.4,1.3,1.8,2.5,1.8c1.2,0,2.1-0.6,2.8-1.6c0.5-0.7,0.8-1.6,1.1-2.4   c0.4-1,0.6-1.7,0.5-2.8"/>
	<g>
		<path class="st1" d="M25,56.8c0,1.5,0,2.9-0.2,4.4c-0.2,1.5-0.2,2.9-0.1,4.4c0.1,1.2,0.3,2.3,0.4,3.5c0.1,1.4,0.1,2.7,0.1,4.1    c0,2.2-0.4,4.4-1.1,6.5c-0.3,0.9-0.5,1.7-0.7,2.6c-0.2,1-0.5,2-0.7,3c-0.6,2.6-1,5.3-1.3,7.9c-0.3,3.1-0.3,6.2-0.2,9.3    c0,1.2,0.1,2.3,0.1,3.5c0,0.5-0.1,1.2,0,1.7c0.1,0.5,0.6,0.8,1,1c0.8,0.4,1.8,0.5,2.7,0.8c1,0.2,1.9,0.4,2.9,0.6    c0.3,0.1,1.4,0.4,1.7,0.2c0.2-0.1,0.2-0.2,0.2-0.4c0.1-0.5,0.2-1.1,0.4-1.6c0.4-1.3,0.6-2.7,0.9-4c0.7-3.1,1-6.3,1.3-9.5    c0.2-1.8,0.3-3.7,0.3-5.5c0.1-1.6,0.2-3.1,0.5-4.6c0.6-2.5,1.7-4.8,2.6-7.2c0.6-1.5,1.1-3.1,1.6-4.7c0.2-0.7,0.4-1.5,0.7-2.1    c0.4,0.1,0.7,1.1,0.8,1.3c0.5,1.2,0.8,2.5,1,3.7c0.5,2.4,0.9,4.7,1.1,7.2c0.4,4.8-1.1,9.5-1.3,14.4c-0.1,2.6-0.3,5.1,0,7.7    c0.1,0.8,0.2,1.5,0.4,2.2c0.1,0.4,0.2,0.8,0.4,1.1c0.2,0.2,0.4,0.2,0.6,0.3c0.7,0,1.4-0.1,2.1-0.1c1.4-0.1,2.8-0.1,4.2-0.2    c0.7-0.1,1.3-0.1,2-0.1c0.3,0,1,0.1,1.3-0.3c0.3-0.5,0.3-1.3,0.3-1.9c0.1-1.5,0.2-2.9,0.2-4.4c0-2.6,0.1-5.1,0.1-7.6c0-3,0-6,0-9    c0-2.7-0.1-5.4,0-8.2c0-2.1,0.4-4.3,0.8-6.3c0.2-1.1,0.5-2.3,0.7-3.4c0.3-1.6,0.3-3.1,0.3-4.7c-0.2-4.7-0.5-9.5-1.6-14.1"/>
	</g>
	<g>
		<path class="st2" d="M25.5,56.7c0,1.5,0,2.9-0.2,4.4c-0.2,1.5-0.2,2.9-0.1,4.4c0.1,1.2,0.3,2.3,0.4,3.5c0.1,1.4,0.1,2.7,0.1,4.1    c0,2.2-0.4,4.4-1.1,6.5c-0.3,0.9-0.5,1.7-0.7,2.6c-0.2,1-0.5,2-0.7,3c-0.6,2.6-1,5.3-1.3,7.9c-0.3,3.1-0.3,6.2-0.2,9.3    c0,1.2,0.1,2.3,0.1,3.5c0,0.5-0.1,1.2,0,1.7c0.1,0.5,0.6,0.8,1,1c0.8,0.4,1.8,0.5,2.7,0.8c1,0.2,1.9,0.4,2.9,0.6    c0.3,0.1,1.4,0.4,1.7,0.2c0.2-0.1,0.2-0.2,0.2-0.4c0.1-0.5,0.2-1.1,0.4-1.6c0.4-1.3,0.6-2.7,0.9-4c0.7-3.1,1-6.3,1.3-9.5    c0.2-1.8,0.3-3.7,0.3-5.5c0.1-1.6,0.2-3.1,0.5-4.6c0.6-2.5,1.7-4.8,2.6-7.2c0.6-1.5,1.1-3.1,1.6-4.7c0.2-0.7,0.4-1.5,0.7-2.1    c0.4,0.1,0.7,1.1,0.8,1.3c0.5,1.2,0.8,2.5,1,3.7c0.5,2.4,0.9,4.7,1.1,7.2c0.4,4.8-1.1,9.5-1.3,14.4c-0.1,2.6-0.3,5.1,0,7.7    c0.1,0.8,0.2,1.5,0.4,2.2c0.1,0.4,0.2,0.8,0.4,1.1c0.2,0.2,0.4,0.2,0.6,0.3c0.7,0,1.4-0.1,2.1-0.1c1.4-0.1,2.8-0.1,4.2-0.2    c0.7-0.1,1.3-0.1,2-0.1c0.3,0,1,0.1,1.3-0.3c0.3-0.5,0.3-1.3,0.3-1.9c0.1-1.5,0.2-2.9,0.2-4.4c0-2.6,0.1-5.1,0.1-7.6c0-3,0-6,0-9    c0-2.7-0.1-5.4,0-8.2c0-2.1,0.4-4.3,0.8-6.3c0.2-1.1,0.5-2.3,0.7-3.4c0.3-1.6,0.3-3.1,0.3-4.7c-0.2-4.7-0.5-9.5-1.6-14.1"/>
	</g>
	<g>
		<path class="st3" d="M33.3,10c0,0.5,0,1,0,1.5c0,0.2,0.1,0.5-0.1,0.6c-0.1,0.1-0.4,0.1-0.6,0.1c-0.3,0.1-0.4,0.4-0.4,0.7    c-0.1,0.5,0.1,1.3,0.4,1.7c0.3,0.4,0.8,0.4,1,0.9c0.2,0.6,0.1,1.3,0.3,1.9c0.1,0.5,0.3,1,0.4,1.6c0.1,0.5-0.2,0.9-0.2,1.4    c-0.1,0.9,0.5,1.6,0.9,2.3c0.4,0.9,0.9,1.8,1.7,2.4c0.7,0.5,1.3-0.1,1.9-0.6c0.5-0.4,0.9-0.9,1.3-1.5c0.3-0.4,0.7-0.8,1-1.3    c0.4-0.7,1.2-1.3,1.4-2c0.3-1,0.2-2.2,0.4-3.3c0.2-0.7,0.3-1.5,0.6-2.1c0.1-0.2,0.3-0.4,0.5-0.6c0.2-0.3,0.2-0.6,0.2-1    c0-0.2,0-0.6-0.2-0.7c-0.3-0.2-0.5,0-0.6-0.4c-0.2-0.4-0.1-1-0.1-1.4c0-0.3-0.1-0.6-0.1-1c0-0.3-0.1-0.4-0.5-0.5    c-0.6-0.1-1.3-0.1-2-0.2c-1.5,0-3,0.1-4.4,0.5c-0.6,0.1-1.1,0.4-1.7,0.5c-0.4,0.1-0.8,0.1-1.1,0.3"/>
	</g>
	<g>
		<path class="st4" d="M32.8,10.3c-0.3,0.5-0.6,2.1-0.1,2.6c0.1-0.1,0.1-0.2,0.2-0.2c0,0.2,0.1,0.3,0.2,0.5c0.1-0.4,0.3-0.6,0.5-1    c0.3-0.5,0.5-1,0.9-1.5"/>
	</g>
	<g>
		<path class="st4" d="M41.9,9.3c0,0.5,0,1.3,0.3,1.7c0.1,0,0.1,0,0.2,0c0.2,0.3,0.2,0.6,0.5,0.9c0.2-0.1,0.2-0.3,0.3-0.5    c0.2,0.3,0.1,0.7,0.3,0.9c0.2-0.2,0.1-0.4,0.2-0.5c0.1,0,0.2,0.1,0.3,0.1c0.1-0.9-0.1-1.9-0.3-2.8c-0.1-0.4-0.3-0.8-0.4-1.2"/>
	</g>
	<g>
		<path class="st3" d="M22.7,57.2c0,1.4-0.4,2.7-0.8,4c-0.1,0.3-0.3,1.2,0.4,0.9c0.2-0.1,0.3-0.5,0.5-0.4c0.1,0.5-0.3,1.3,0.1,1.8    c0.3,0.5,0.4,0.1,0.7-0.2c0.2,0.3,0.1,0.6,0.3,0.9c0.2,0.1,0.3-0.2,0.4-0.3c0.6,0.2,0.2,1.2,0.7,1.5c0.5-0.2,0.6-1.6,0.6-2.1    c0.1-1,0.2-2,0.2-3c0-0.8,0.1-1.7-0.1-2.5c-0.1-0.5-0.2-0.9-0.3-1.4c-0.1-0.3-0.1-0.6-0.2-0.8"/>
	</g>
	<g>
		<path class="st3" d="M50.6,58.9c0,0.2,0,0.4-0.1,0.6c-0.1,0.6-0.3,1.1-0.5,1.7c-0.4,1.1-0.9,2.2-0.9,3.4c0,0.5-0.1,2.3,0.7,2    c0.2-0.1,0.8-1.1,0.9-1c0.1,0.2,0,0.8,0.2,0.9c0.3-0.2,0.5-0.4,0.7-0.7c0.2,0.1,0.1,0.5,0.5,0.4c0.4-0.1,0.5-0.7,0.7-1    c0.1,0.2,0.2,0.7,0.5,0.6c0.1-0.3,0.1-1,0.4-1.2c0.1,0.1,0.2,0.3,0.4,0.3c0.2-0.8,0.2-1.6,0.3-2.5c0-0.8,0-1.6-0.1-2.4    c-0.1-0.5-0.1-1.2-0.2-1.7c-0.1-0.4-0.4-0.6-0.7-0.7"/>
	</g>
	<g>
		<path class="st0" d="M34,20c-0.2-0.2-0.6-0.1-0.9-0.1c-0.6,0-1.4,0.3-2,0.6c-1.4,0.7-2.8,1.5-3.8,2.6c-0.7,0.8-1.4,1.6-1.9,2.5    c-0.7,1.5-1.5,3-2.1,4.6c-0.7,1.7-1.2,3.4-1.6,5.2c-0.4,1.7-0.5,3.5-0.7,5.2c-0.3,1.8-0.2,3.6-0.5,5.4c-0.2,1.6-0.4,3.2-0.3,4.8    c0,1.3,0.4,2.5,1,3.7c0.3,0.6,0.8,1.1,0.9,1.8c0.1,0.5,0.1,0.9,0.1,1.4c0,0.2-0.1,0.6,0,0.9c0.4,0.6,1.5,0.4,2.1,0.4    c1.8,0,1.2-1.4,1.7-2.6c0.2,0.6-0.1,0.3-0.1,0.9c0,0.6,0.3,1.2,0.6,1.8c0.5,0.6,1.3,1.1,2,1.5c1.5,0.8,3.2,1,4.8,1    c2.2,0.1,4.4-0.2,6.5-0.6c1.9-0.3,3.8-0.6,5.7-1.2c1.2-0.4,2.3-0.8,3.4-1.3c0.3-0.1,0.5-0.3,0.8-0.5c0.1-0.1,0.3-0.3,0.5-0.3    c0.2,0.3,0.1,0.7,0.1,1c0,0.6,0.2,0.6,0.7,0.9c0.6,0.3,1.3,0.5,1.9,0.6c0.2,0,0.6,0.1,0.8,0c0.2-0.2,0.4-0.5,0.5-0.7    c0.2-0.3,0.4-0.7,0.6-1c0.2-0.3,0.4-0.6,0.7-0.7c0.1,0,0.3-0.1,0.4-0.1c0.3-0.1,0.5-0.3,0.7-0.6c1-1.2,1.6-2.9,2-4.4    c0.6-1.9,0.8-4,0.9-6c0-1.4,0-2.8-0.3-4.2c-0.5-2.3-1.7-4.4-2.5-6.6c-0.8-2.2-1.4-4.5-2.2-6.8c-0.6-1.9-1.7-3.6-3-5.1    c-1.2-1.4-3-2.4-4.6-3.3c-1-0.6-3.4-0.9-4.7-1.1c-0.5-0.1,0.2,0-0.2,0.4c-0.3,0.3-0.2,0.2-0.4,0.5c-0.2,0.5-0.5,1-0.8,1.4    c-0.6,0.8-1.5,1.7-2.2,2.4c-0.5,0.5-1,0.5-1.7,0.7c-0.4,0.1-0.9-0.2-1.2-0.4c-0.7-0.4-1.4-0.9-2-1.5c-0.6-0.6-1.1-1.5-1.3-2.4"/>
	</g>
	<path class="st4" d="M42.4,19.1c-0.2,0.4-0.6,1-0.8,1.4c-0.4,0.6-0.8,1-1.3,1.5c-0.4,0.5-0.9,0.9-1.2,1.5c-0.3,0.5-0.2,0.6,0.1,1.1   c0.1,0.2,0.4,0.8,0.5,1c0.1,0.2,0.5-0.5,0.7-0.6c0.3-0.3,0.6-0.7,1-1c0.6-0.6,2.2-3,2.1-3.4c-0.1-0.3-0.5-1.1-0.7-1.3"/>
	<path class="st0" d="M33.9,19.3"/>
	<path class="st4" d="M34.2,19.6c-0.3,0.1-1.6,0.1-1.8,0.3c-0.4,0.3,0.3,1,0.5,1.4c0.3,0.8,0.8,1.6,1.2,2.3c0.2,0.3,0.3,0.5,0.5,0.8   c0.1,0.1,0.3,0.9,0.5,1c0.3,0.2,0.8-0.5,1-0.6c0.1,0,0.3-0.2,0.4-0.2c0.1-0.2-0.1-0.6-0.1-0.7c-0.2-0.5-0.6-1.1-0.8-1.6   c-0.3-0.5-0.5-1-0.8-1.5"/>
	<path class="st0" d="M32.2,9c-0.5,0.4-1,1.5-0.4,2c0.5,0.3,1.1,0.3,1.7,0.3c0.9,0,1.7-0.2,2.5-0.4c0.7-0.1,1.3-0.2,2-0.3   c0.8-0.2,1.6-0.3,2.4-0.5c0.7-0.1,1.3-0.4,1.9-0.5c0.5-0.1,1-0.1,1.5-0.3c1.1-0.3,0.4-1.7-0.1-2.3c-0.8-1-2.2-1.2-3.5-1.4   c-1.7-0.2-3.5,0.4-4.9,1.3c-0.6,0.4-1.3,0.6-1.9,1c-0.3,0.2-0.5,0.4-0.8,0.6c-0.1,0.1-0.4,0.2-0.4,0.4"/>
</g>
</svg>