<svg xmlns="http://www.w3.org/2000/svg" xmlns:xlink="http://www.w3.org/1999/xlink" version="1.1" id="Layer_1" x="0px" y="0px" viewBox="0 0 80 80" style="enable-background:new 0 0 80 80;" xml:space="preserve" width="80"  height="80" >
<style type="text/css">
	.st0{fill:#F58182;}
	.st1{fill:#CEE1F4;}
	.st2{fill:#71B6E4;}
	.st3{fill:#003D5E;}
</style>
<g>
	<g>
		<path class="st0" d="M33,70.4c0.1,0.9-0.1,1.8-0.3,2.7c-0.1,0.7,0,1.4,0.2,2.2c0.1,0.5,0.4,1.2,0.9,1.5c0.5,0.3,1.2,0.1,1.5-0.4    c0.4-0.6,0.5-1.3,0.8-1.9c0.2-0.6,0.3-1.2,0.3-1.8c0-0.3,0.1-0.6,0.1-0.9c0-0.3,0-0.6,0-0.8c0-0.2-0.1-1.1,0.1-1.2"/>
	</g>
	<g>
		<path class="st0" d="M36.8,71.9c0,1.5-0.5,2.9-0.4,4.4c0,0.6,0.5,0.8,0.9,1.1c0.5,0.3,1,0.4,1.5,0.4c0.5,0,1.1,0.1,1.5-0.3    c0.5-0.5,0.7-1.5,0.8-2.1c0.1-0.9,0-1.9-0.1-2.8c-0.1-0.4-0.1-0.8-0.2-1.2c0-0.2-0.1-0.4-0.2-0.6"/>
	</g>
	<g>
		<path class="st1" d="M43.3,48c0.1,0.4,0.2,0.9,0.2,1.3c0,0.4-0.1,0.8-0.2,1.2c-0.1,1-0.3,1.9-0.4,2.9c-0.1,0.9-0.2,1.8-0.1,2.7    c0.1,0.8,0.2,1.6,0.2,2.4c0,1-0.2,1.9-0.2,2.9c0,0.5,0.1,1,0.1,1.6c0.1,0.6,0.1,1.2,0.1,1.8c0,0.8-0.2,1.6-0.3,2.4    c-0.1,0.9-0.3,1.7-0.4,2.6c0,0.3-0.1,0.6-0.1,0.9c0,0.3,0,0.5-0.1,0.7c-0.3,1.1-1.6,1.5-2.6,1.4c-0.5-0.1-1-0.2-1.6-0.4    c-0.3-0.1-0.6-0.1-0.9-0.3c-0.3-0.2-0.4-0.7-0.4-1.1c0-0.2,0-0.8-0.2-0.9c-0.1,0.3-0.3,0.6-0.5,0.9c-0.2,0.2-0.6,0.2-0.9,0.3    c-0.7,0.1-1.3,0.2-2-0.1c-0.4-0.1-0.6-0.6-0.7-0.9c-0.3-0.8-0.3-1.6-0.4-2.5c0-0.4-0.1-0.7-0.1-1.1c0-0.4,0.1-0.8,0.1-1.1    c0-0.7,0.2-1.5,0.2-2.2c0.1-1.3-0.5-2.6-0.7-3.9c-0.1-0.7-0.2-1.4-0.3-2.1C31,56.6,31,55.8,30.9,55c0-0.3,0-0.7-0.1-1    c0-0.3-0.1-0.7-0.2-1c-0.1-0.6-0.2-1.3-0.2-1.9c-0.1-1-0.2-1.9-0.1-2.9c0.1-0.6,0.1-1.1,0.2-1.7c0.1-0.3,0.1-0.6,0.2-0.8"/>
	</g>
	<g>
		<path class="st1" d="M38.1,17.4c0.7,0.2,1.1,0.9,1.4,1.5c0.1,0.3,0.3,0.6,0.5,0.9c0.1,0.2,0.2,0.4,0.2,0.7    c0.1,0.4,0.4,0.8,0.7,1.1c0.1,0.1,0.3,0.3,0.5,0.4c0.1,0.1,0.3,0.1,0.4,0.3c0,0.1-0.1,0.1-0.2,0.2c0,0-0.1,0.1-0.1,0.1    c0,0-0.1,0-0.1,0c-0.1,0.2,0,0.4,0.1,0.5c0,0.2,0,0.4,0,0.7c0,0.3-0.1,0.7,0,1c0.1,0.3,0.3,0.7,0.2,1c0,0.2-0.2,0.6-0.4,0.7    c-0.1,0.1-0.2,0-0.3,0.1c-0.1,0-0.2,0.1-0.3,0.1c-0.1,0-0.2,0-0.3,0c-0.3,0.2,0.1,1.2,0.1,1.4c0,0.2,0.1,0.4,0.1,0.6    c-0.1,0.2-0.3,0.5-0.5,0.6c-0.5,0.4-1,0.5-1.6,0.4c-0.7-0.1-1.3-0.3-2-0.5c-0.4-0.1-1.4-0.4-1.6-0.9c-0.1-0.3-0.1-0.6-0.1-0.9    c0-0.2-0.1-0.4-0.2-0.6c-0.2-0.4-0.6-0.7-0.6-1.1c0-0.1,0.1-0.2,0.1-0.4c0.1-0.2,0-0.4,0-0.6c-0.1-0.6-0.3-1-0.3-1.6    c0-0.6,0.4-1,1-0.9c0.6,0,1,0.4,1.3-0.3c0.4-0.7,0.2-1.6,0.5-2.4c0.2-0.5,0.5-0.9,0.7-1.4c0.2-0.3,0.5-0.5,0.7-0.8"/>
	</g>
	<g>
		<path class="st2" d="M34.8,28c-0.3,0-0.4,0.2-0.7,0.3c-0.3,0.1-0.7,0.2-1,0.3c-0.7,0.3-1.3,0.8-2,1.2c-0.4,0.3-0.7,0.4-1.1,0.8    c-0.4,0.4-0.5,0.6-0.7,1.1c-0.3,0.8-0.7,1.4-1.3,1.8c-0.3,0.2-0.5,0.6-0.7,0.9c-0.3,0.4-0.7,0.9-1,1.3c-0.6,0.8-1.2,1.6-1.1,2.6    c0,0.4,0.1,0.7,0.3,1.1c0.3,0.5,0.7,0.7,1.1,1.1c0.7,0.5,1.4,0.9,2,1.3c0.2,0.1,0.4,0.2,0.6,0.3c0.4,0.1,0.5,0.3,0.5,0.8    c0,0.9-0.2,1.9-0.4,2.8c-0.1,0.7,0,1.7,0.7,2.2c0.6,0.4,1.3,0.6,2,0.8c0.7,0.2,1.3,0.2,2,0.2c0.5-0.1,1,0,1.4-0.1    c0.6-0.1,1.2-0.4,1.7-0.7c0.2-0.1,0.5-0.3,0.7-0.4c0.4-0.1,0.3,0.1,0.6,0.4c0.2,0.2,0.6,0.2,0.8,0.2c0.6,0.1,1.2,0.2,1.7,0.2    c0.4,0,0.7,0,1.1,0c0.4,0.1,0.8,0.2,1.3,0.2c0.4-0.1,0.9-0.1,1.3-0.3c0.4-0.3,0.5-1.1,0.7-1.6c0.2-0.6,0.2-1.2,0.3-1.7    c0.1-0.5-0.2-1.1-0.3-1.7c-0.2-0.9-0.4-1.7-0.6-2.6c-0.1-0.2-0.1-0.4-0.1-0.6c0-0.2-0.2-0.6-0.1-0.8c0.3,0.2,0.6,0.4,0.8,0.6    c0.3,0.3,0.5,0.5,0.8,0.6c0.4,0.1,0.7,0.2,1.1,0.2c0.5,0,0.9,0.1,1.4,0c0.3-0.1,0.6-0.1,0.9-0.2c0.3-0.2,0.6-0.5,0.9-0.7    c0.3-0.3,0.7-0.6,1-0.8c0.3-0.2,0.6-0.4,0.8-0.6c0.2-0.2,0.4-0.3,0.6-0.5c0.2-0.2,0.2-0.4,0.2-0.6c0.1-0.4,0.2-0.9-0.3-1    c-0.4-0.1-0.6,0.4-1,0.4c-0.4,0-0.6-0.4-0.9-0.7c-0.2-0.2-0.4-0.4-0.6-0.6c-0.1-0.2-0.2-0.4-0.3-0.5c-0.5-0.5-0.7,0.2-1.2,0.1    c-0.3-0.1-0.5-0.5-0.6-0.7c-0.2-0.3-0.4-0.5-0.6-0.8c-0.4-0.6-0.6-1.3-1-2c-0.5-1-1.2-1.9-1.9-2.8c-0.5-0.6-1-1.4-1.8-1.5    c-0.5-0.1-1.1-0.2-1.6-0.3c-0.4-0.1-0.8-0.5-1.3-0.4"/>
	</g>
	<g>
		<path class="st1" d="M38.4,29.3c0,0.7,0.2,1.5,0.2,2.2c0,0.7,0.1,1.5,0.3,2.1c0.2,0.8,0.4,1.7,0.5,2.5c0.1,0.8,0.3,1.5,0.4,2.3    c0.1,0.6,0.1,1.1,0.2,1.7c0.1,0.6,0.2,1.1,0.1,1.7c0,0.5,0,1-0.1,1.5c-0.1,0.3,0,0.6-0.1,1c-0.2,0.6-0.3,1.3-0.4,2    c-0.1,0.3-0.1,0.5-0.1,0.8c0,0.2-0.2,0.5-0.1,0.7"/>
	</g>
	<g>
		<path class="st1" d="M52.2,30.8c0,0.2-0.2,0.3-0.2,0.5c-0.1,0.3-0.3,0.5-0.4,0.8c-0.2,0.4-0.4,0.9-0.7,1.3    c-0.3,0.5-0.8,1.1-0.7,1.8c0.2,0.8,0.8,0.7,1.3,0.5c0.3-0.1,0.6-0.3,0.7-0.7c0.1-0.2,0.2-0.9,0.4-1c0.1,0.5-0.1,1.1-0.3,1.6    c0.4-0.1,0.6-0.8,0.8-1.1c0.2-0.4,0.4-0.8,0.6-1.2c0.2-0.6,0.5-1.5,0.3-2.1c-0.1,0-0.1,0-0.2,0.1"/>
	</g>
	<g>
		<path class="st1" d="M50.3,35.9c0.1-0.7,0.3-1.2,0.8-1.6c0.3-0.3,0.7-0.6,1.2-0.5c0.3,0.1,0.5,0.5,0.6,0.8c0.1,0.5,0,1-0.1,1.4    c-0.1,0.8-0.6,1.6-1.5,1.5c-0.3,0-0.6-0.2-0.8-0.4c-0.2-0.3-0.3-0.8-0.6-1.1c0,0,0,0,0,0.1"/>
	</g>
	<g>
		<path class="st1" d="M38.3,48.1c-0.1,0.3-0.3,0.6-0.5,0.9c-0.2,0.3-0.3,0.7-0.4,1.1c-0.1,0.3-0.3,0.6-0.4,1    c-0.2,0.5-0.1,1-0.1,1.5"/>
	</g>
	<g>
		<path class="st1" d="M38.7,47.7c0,0.3,0,0.6,0.1,0.9c0.1,0.4,0.1,0.8,0.1,1.2c0,0.4,0,0.7,0,1.1c0,0.2,0,0.4-0.1,0.6    c0,0.3,0,0.5,0.1,0.7"/>
	</g>
	<g>
		<path class="st3" d="M39.4,16.2c0,0.2,0.1,0.6,0,0.8c-0.1,0.3-0.5,0.7-0.8,0.9c-0.3,0.2-0.6,0.3-0.9,0.4c-0.2,0.1-0.4,0.1-0.7,0.2    c-0.5,0.2-0.3,0.6-0.4,1.1c-0.1,0.3-0.1,0.7-0.2,1c-0.1,0.4-0.2,0.7-0.2,1.1c0,0.3,0.1,0.6,0.1,0.9c0,0.6-0.5,0.4-0.9,0.3    c-0.3-0.1-0.7-0.1-1-0.1c-0.7,0.1-0.4,0.9-0.2,1.3c0.1,0.4,0.4,0.6,0.6,0.9c0.2,0.3,0,0.8,0,1.1c0,0.3,0,0.7,0,1    c0,0.1,0.1,0.8,0,0.8c-0.3-0.2-0.6-0.5-0.8-0.8c-0.2-0.2-0.4-0.4-0.6-0.7c-0.5-0.5-1.3-0.7-1.7-1.3c-0.2-0.3-0.3-0.8-0.4-1.1    c0-0.2,0-0.3,0-0.5c0-0.2-0.1-0.4-0.2-0.6c-0.1-0.4-0.2-0.9-0.3-1.3c0-0.4,0-0.7-0.1-1.1c-0.1-0.8,0.2-1.7,0.9-2.1    c0.4-0.2,0.9-0.3,1.3-0.6c0.3-0.2,0.7-0.4,1-0.5c0.4-0.2,0.8-0.3,1.3-0.4c0.4,0,0.7-0.2,1.1-0.2c0.4,0,0.9,0.2,1.3,0.2    c0.4,0,0.7-0.2,1-0.2"/>
	</g>
	<g>
		<path class="st3" d="M58.8,25c0.2-0.6,0.6-1.2,0.9-1.7c0.4-0.7,0.7-1.3,1-2c0,0,0,0,0,0v-17c-0.3,1.2-0.6,2.5-1,3.7    c-0.6,1.9-1.1,3.9-1.6,5.8c-0.2,0.8-0.5,1.6-0.8,2.4c-0.3,1-0.6,1.9-0.9,2.9c-0.6,1.7-1.2,3.4-1.7,5.1c-0.4,1.2-0.8,2.4-1.4,3.6    c-0.2,0.4-0.3,0.8-0.5,1.2c-0.2,0.4-0.4,0.7-0.6,1.1c-0.2,0.3-0.3,0.7-0.4,1l0.2-0.2c0.6,0.3,1.2,0.5,1.7,0.8    c0.4,0.2,0.7,0.5,1.1,0.6c0.5,0.2,0.7-0.5,0.9-0.9c0.3-0.9,0.8-1.8,1.3-2.6C57.7,27.4,58.3,26.2,58.8,25z"/>
	</g>
</g>
</svg>