<svg xmlns="http://www.w3.org/2000/svg" xmlns:xlink="http://www.w3.org/1999/xlink" version="1.1" id="Layer_1" x="0px" y="0px" viewBox="0 0 80 80" style="enable-background:new 0 0 80 80;" xml:space="preserve" width="80"  height="80" >
<style type="text/css">
	.st0{fill:#CEE1F4;}
	.st1{fill:#003D5E;}
	.st2{fill:#9FCAEC;}
	.st3{fill:#F15759;}
	.st4{fill:#71B6E4;}
	.st5{fill:#0097D7;}
</style>
<polygon class="st0" points="41.2,25.9 41,26.5 40.5,26.8 40.5,26.9 39.8,26.7 39.5,27.8 39.5,28.5 39.3,29.2 39.2,29.5 39.4,29.6   40,30.2 39.2,30.2 38.5,30.5 35.5,31.6 35,29.1 34.8,28.7 34.7,28.7 34.1,28.5 33.9,28 33.8,27.5 33.2,27.6 32.4,26.3 32.1,25.7   32,25.4 32.4,25 32.4,22.9 32.6,22.6 32.8,22.2 33.4,20.5 34.3,19.9 36.5,19.6 37.8,19.8 38.9,20.3 39.9,20.9 40.2,21.4 40.5,21.4   40.7,22 40.9,23.4 41,24 41.4,24.6 41.5,24.8 "/>
<polygon class="st1" points="32.6,20.6 32.9,20.1 34.8,18.6 37.5,18.6 38.2,18.8 39.4,19.7 40.3,20.7 40.5,21.4 40.2,21.4   39.9,20.9 38.9,20.3 37.8,19.8 36.5,19.6 34.3,19.9 33.4,20.5 32.8,22.2 32.6,22.6 32.4,22.9 32.4,22 "/>
<polygon class="st2" points="38.8,60.7 38.7,59.7 38.7,59.3 38.6,59 38.2,58.7 38.1,58.5 38.5,57.7 38.3,56.9 38.1,56.8 37.9,56.7   37.9,56.5 38.1,55.5 38.1,53.7 38.1,51.3 38.1,50.9 38.2,50.7 38.3,50.6 38.5,50.5 38.7,50.3 39.1,50.1 39.9,49.6 40.4,49 41,48.3   41.7,47.8 43,46.6 44.3,45.3 46.5,44.6 47.1,44.7 47.3,44.8 48.3,45.4 48.8,45.7 49,45.9 49.2,46.4 49.2,46.7 49.2,47.3 49,47.7   48.6,47.9 48.2,49.4 48,50.6 48,51.7 48.1,52.6 48.3,53.1 48.6,53.4 48.5,53.6 46.8,55 46.2,55.7 45.5,55.8 44.8,55.3 44.9,56.2   44.8,57.1 44.7,60.1 44.8,60.4 44.7,60.7 43,59.7 41.6,60.1 41.3,60.6 40.8,61.2 39.6,62.1 39.1,61.4 "/>
<polygon class="st2" points="54.3,65.7 53.5,66 52.5,66.3 52,66.2 51.8,65.9 51.6,65.3 52.7,65.5 53.8,65 54.3,64.9 54.9,64.5   55.1,64.4 55.2,64.2 55.5,63.6 55.8,64 55.7,64.5 55.1,65.2 "/>
<polygon class="st3" points="40.3,28.9 40.6,29 41.1,29.1 42.1,29.1 42.7,28.9 43.2,29.2 44.1,30.1 44.8,30.9 45.7,31.6 46,31.4   46.1,31.6 46.2,31.6 46.5,31.9 47,32.4 47.6,33 47.8,33.6 48,34 47.6,36.3 47.5,37.7 47.1,38.7 46.2,38.2 45.6,37.8 45.7,38.3   45.8,38.7 45.8,39.2 46.4,40 46.8,40.3 47.2,40.6 47.6,40.9 47.8,41.1 47.8,42 48.1,42.4 48.9,44.6 49.2,45.5 49.2,46.4 49,45.9   48.8,45.7 48.3,45.4 47.3,44.8 47.1,44.7 46.5,44.6 44.3,45.3 43,46.6 41.7,47.8 41,48.3 40.4,49 39.9,49.6 39.1,50.1 38.7,50.3   38.5,50.5 38.3,50.6 38.2,50.7 38.1,50.9 38,50.4 38,49.8 37.4,44.9 37.3,44.3 36.9,44 36.4,42.7 35.9,41.6 35.8,41.5 35.6,41.1   35.3,41 34.9,40.9 34.2,40.8 33.4,40.7 32.9,40.6 32.6,40.4 32.6,39.9 33,38.7 32.5,37.7 32.4,35.7 32.3,34.4 32.3,33.9 32.5,33.4   32.9,32.8 33.2,32.6 34,31.8 34.6,31.4 34.9,30.9 35.7,30.4 38.2,29.5 38.8,29.3 39.4,29.2 39.9,29.2 "/>
<polygon class="st2" points="37.4,77.3 37.2,76.9 37.1,76.4 37.4,75.8 37.9,76.5 38.8,76.6 41.7,76.5 43.5,76.5 43.8,76.5   44.3,76.3 44.7,76.2 45.2,75.8 45.5,76.4 45.5,76.7 45.4,76.8 43.8,77.2 42.6,77.2 41.2,77.6 39.4,77.7 38,77.6 "/>
<polygon class="st4" points="54.4,62 55.5,63.6 55.2,64.2 55.1,64.4 54.9,64.5 54.3,64.9 53.8,65 52.7,65.5 51.6,65.3 50.9,63.6   50.3,62.8 49.9,62 49.6,60.9 50.5,60.5 51.6,59.8 51.8,59.2 52.6,59.8 53.1,60.5 "/>
<polygon class="st5" points="41.2,70.1 43.7,69.8 43.8,71.3 43.8,71.9 44.1,72.9 42.2,72.6 41.7,72.5 41.2,72.6 41.4,71.7   41.4,71.2 "/>
<polygon class="st0" points="47.1,38.7 47.5,37.7 47.6,36.3 48,34 48.3,33.8 48.8,33.4 49.3,32.7 49.2,32 49.1,31.6 49.3,31.3   49.9,30.9 51.4,30.7 51.6,30.9 52,31.5 52.1,32 52.1,32.4 51.9,33 51.7,33.4 51.4,33.6 51.1,33.8 50.9,33.7 49.7,36.7 48.7,37.6   48,38.6 47.8,38.9 47.7,38.9 "/>
<polygon class="st0" points="32.6,40.4 32.9,40.6 33.4,40.7 34.2,40.8 34.9,40.9 35.3,41 35.6,41.1 35.8,41.5 31.9,44.2 31.7,44.5   31.4,45 30.9,45.4 30.2,45.5 29.8,45.7 29.6,45.8 29.6,45.9 29.7,46.5 29.6,47 29.2,47.5 29,47.8 28.7,47.9 28,47.8 27.5,47.5   27.1,46.6 27.2,46.5 27.1,46.4 27,46.1 26.9,45.6 27.3,45 27.6,44.7 27.6,44.2 28.5,43.9 31.8,41.8 "/>
<polygon class="st0" points="43,59.7 44.7,60.7 44.3,61 43.6,61.1 43.2,61.4 42.9,62 43,62.7 43.5,64.2 43.5,65.5 43.4,66.8   43.7,69.8 41.2,70.1 39.9,63.8 39.8,62.9 39.6,62.1 40.8,61.2 41.3,60.6 41.6,60.1 "/>
<polygon class="st0" points="45.5,55.8 46.2,55.7 46.8,55 48.5,53.6 50.6,57.7 48.3,59.2 47.5,58.2 46.7,57.5 46.2,56.7 "/>
<polygon class="st5" points="50.6,57.7 51.1,58.6 51.8,59.2 51.6,59.8 50.5,60.5 49.6,60.9 49.1,60.2 48.3,59.2 "/>
<polygon class="st4" points="45.2,75.8 44.7,76.2 44.3,76.3 43.8,76.5 43.5,76.5 41.7,76.5 38.8,76.6 37.9,76.5 37.4,75.8   38.3,75.1 38.7,74.5 39.2,74.1 40.3,73.4 40.8,73 41.2,72.6 41.7,72.5 42.2,72.6 44.1,72.9 44.2,72.7 44.5,72.5 44.7,72.7   44.9,73.3 45,74.7 "/>
</svg>