<svg xmlns="http://www.w3.org/2000/svg" xmlns:xlink="http://www.w3.org/1999/xlink" version="1.1" id="Layer_1" x="0px" y="0px" viewBox="0 0 80 80" style="enable-background:new 0 0 80 80;" xml:space="preserve" width="80"  height="80" >
<style type="text/css">
	.st0{fill:#9FCAEC;}
	.st1{fill:#F15759;}
	.st2{fill:#003D5E;}
	.st3{fill:#0097D7;}
	.st4{fill:#71B6E4;}
	.st5{fill:#CEE1F4;}
</style>
<g>
	<g>
		<path class="st0" d="M62.3,67c-0.5-1.4-0.9-2.9-1.6-4.2c-1.1-2.3-3-4.2-5.1-5.8c-1.3-1-2.6-1.9-4.1-2.3c-1.3-0.4-2.6-0.5-3.9-0.5    c-6.2-0.1-12.5,0.8-18.4,2.7c-1.4,0.5-2.8,1-3.8,2c-1.6,1.6-1.9,4.1-2.3,6.4c-0.6,3.5-1.6,6.9-2.9,10.1c-0.1,0.1-0.1,0.3-0.1,0.4    c0.1,0.2,0.2,0.3,0.4,0.3c1.3,0.5,2.6,1.1,3.9,1.6c1,0.4,2,0.8,2.8,1.6c1.3,1.3,1.6,3.3,1.6,5.2c0,0.9-0.1,1.8,0.1,2.7    c0.3,1.8,1.5,3.4,3.1,4.2c0.8,0.4,1.7,0.6,2.6,0.8c3.8,0.8,7.8,1.6,11.6,1.1c2.6-0.3,5.1-1.2,7.5-2.1c0.8-0.3,1.6-0.6,2.4-0.9    c0.4-0.2,0.9-0.3,1.2-0.7c0.4-0.5,0.5-1.1,0.5-1.7c0.1-1.7,0.1-3.5,0-5.2c0-0.6-0.1-1.2,0.3-1.7c0.2-0.3,0.5-0.5,0.9-0.6    c0.9-0.3,2-0.1,2.9-0.2c1,0,2.1-0.3,2.6-1.1c1.1-1.6,0.8-4.4,0.3-6.1C64.3,71.1,63.2,69.1,62.3,67z"/>
		<path class="st1" d="M58.3,95c0.2,0.4,0.5,0.8,0.7,1.2c0.2,0.5,0.1,1,0.1,1.5c-0.2,4.4-0.6,8.7-1.1,13.1c-0.2,2.1-0.5,4.3,0.3,6.3    c-0.7-0.1-1.2,0.7-1.2,1.4c0,0.2,0,0.4-0.1,0.6c-0.1,0.2-0.3,0.2-0.5,0.3c-0.9,0.4-1.6,1-2.2,1.8c-0.2,0.3-0.4,0.6-0.7,0.6    c-0.2,0-0.4,0-0.6-0.1c-2.4-0.9-5-1.5-7.6-1.8c-0.2,0-0.3,0-0.4-0.2c-0.1-0.1-0.1-0.2-0.1-0.3c-0.2-1.8-0.5-3.6-0.7-5.4    c-0.4,0-0.5,0.5-0.6,0.8c-0.4,2.1-0.9,4.2-1.3,6.2c-3.1,1.1-6.5,1.7-9.8,1.8c-1.3,0-2.9-0.1-3.6-1.3c0.6-3.1-0.6-6.2-0.8-9.4    c-0.1-2.3,0.4-4.6,1-6.9c0.4-1.6,1-3.4,0.2-4.9c-0.1-0.3-0.3-0.6-0.4-0.9c-0.4-1.3,1-2.4,1.4-3.6c0.3-1,0-2.1,0.3-3.1    c0.2-0.8,0.8-1.4,1.3-1.9c0.1-0.1,0.2-0.2,0.3-0.2c0.1,0,0.3,0,0.4,0c2.8,0.6,5.5,0.9,8.3,1.2c1.5,0.2,3.1,0.4,4.6,0.4    c3.9,0,7.5-1.8,11.4-2.2c0.5-0.1,0.4,2.1,0.5,2.6C57.6,93.5,57.8,94.3,58.3,95z"/>
		<path class="st2" d="M42.6,17.9c-0.5-0.2-1-0.2-1.6-0.2c-1.2,0-2.5,0.2-3.6,0.9c-1,0.7-1.8,1.8-1.9,3c0,0.4,0,0.8,0.2,1.1    c0.4,0.6,1.2,0.8,2,0.8c2.2,0,4.3-0.6,6.3-1.2c0.4-0.1,1.4-0.3,1.5-0.7c0.1-0.4-0.3-1.2-0.5-1.5C44.5,19,43.6,18.3,42.6,17.9z"/>
		<path class="st3" d="M54.1,52.8c0.1,0.5,0.4,1,0.5,1.5c0.5,1.6-0.2,3.2-0.3,4.8c-0.1,2.2,0.7,4.3,0.4,6.5    c-1.2-1.6-3.6-2.3-5.5-1.6c-0.1,0.1-0.3,0.1-0.4,0c-0.1,0-0.1-0.1-0.2-0.2c-0.7-1-1.4-2.1-1.4-3.3c0-0.9,0.5-1.8,0.7-2.7    c0.1-0.8,0-1.6,0-2.4c-0.1-1.5,0.2-3,0.4-4.5c0.1-0.6,0.3-1.4,1-1.5c0.3,0,0.5,0.1,0.8,0.2c1,0.4,2,0.8,3,1.1    C54.1,51.1,53.9,51.9,54.1,52.8z"/>
		<path class="st2" d="M53.2,66.9c-0.2-0.5-0.6-0.9-1-1.2c-1-0.7-2.4-1-3.6-0.8c-1.3,0.2-2.4,0.9-3.2,1.9c0,0.1-0.1,0.1-0.1,0.2    c0,0.1,0.1,0.2,0.1,0.3c0.7,0.8,1.4,1.6,2.1,2.3c0.2,0.2,0.5,0.5,0.8,0.6c0.3,0.1,0.6,0.2,0.8,0.3c0.7,0.3,1.1,0.9,1.7,1.3    c0.2,0.1,0.4,0.2,0.6,0.2c0.2,0,0.3-0.1,0.5-0.2c0.8-0.4,1.4-1.3,1.5-2.2c0-0.4-0.1-0.7-0.1-1.1C53.2,68,53.4,67.4,53.2,66.9z"/>
		<path class="st2" d="M37.8,69.9c-0.4,0-0.9,0.1-1.3,0.3c-1.5,0.5-3.1,1.1-4.1,2.4c-0.2,0.2-0.3,0.4-0.3,0.7    c-0.1,0.8,0.6,1.4,1.2,2c0.5,0.5,0.8,1.1,1,1.7c0.9-0.4,1.7-0.9,2.5-1.4c0.6-0.4,1.9-0.9,2.3-1.5c0.5-0.7-0.4-1.3-0.7-1.9    C38.4,72,37.5,69.9,37.8,69.9z"/>
		<path class="st3" d="M39.1,56.3c0,0.4,0,0.8-0.2,1.2c-0.2,0.5-0.5,0.9-0.7,1.4c-0.3,0.8-0.2,1.7-0.2,2.5c0.2,3.1,0,6.1-0.5,9.2    c-1.2-0.1-2.5-0.2-3.7-0.3c-0.2,0-0.4,0-0.6-0.2c-0.2-0.1-0.3-0.3-0.4-0.5c-0.8-1.4-1.4-2.9-1.7-4.5c-0.1-0.8-0.2-1.7-0.3-2.5    c-0.2-2.6-0.4-5.2-0.6-7.8c-0.1-0.8-0.1-1.7,0.2-2.4c0.4-0.9,1.3-1.5,2.2-2c1.1-0.5,2.3-1,3.5-1.2c0.6-0.1,2.8-0.8,3.2-0.2    c0.2,0.3,0.1,1.2,0.1,1.5c0,0.7,0,1.3,0,2C39.3,53.7,39.2,55,39.1,56.3z"/>
		<path class="st4" d="M45.5,31.9c0.3,0.1,0.6,0.2,0.9,0.4c0.2,0.2,0.4,0.5,0.5,0.8c0.4,0.7,0.8,1.5,1.4,2c0.3,0.3,0.6,0.5,0.9,0.7    c0.9,0.8,1.3,1.9,1.7,3c0.4,1.2,0.8,2.5,1,3.8c0.3,1.7,0.4,3.6-0.1,5.3c0,0.1-0.1,0.3-0.2,0.4c-0.2,0.2-0.5,0.2-0.8,0.1    c-2.1-0.2-4.2-0.4-6.2,0.3c-0.8,0.3-1.6,0.8-2.4,1.1c-0.9,0.4-1.9,0.7-2.9,1c-1.9,0.6-3.9,1.1-5.9,1.5c-0.9,0.2-1.8,0.3-2.7,0.3    c-0.2,0-0.4,0-0.6-0.1c-0.2-0.1-0.3-0.2-0.4-0.4c-1.8-2.5-2.5-5.6-1.9-8.6c0.1-0.3,0.1-0.6,0.3-0.9c0.2-0.4,0.5-0.6,0.7-1    c0.2-0.3,0.3-0.7,0.4-1c0.3-1.4,0.6-2.9,1.3-4.2c0.6-1.3,1.6-2.5,3-3.1c0.6-0.2,1.2-0.3,1.7-0.6c0.6-0.3,1.1-0.7,1.7-0.9    c1.4-0.5,2.9-0.1,4.3-0.2c0.7,0,1.3-0.4,1.9-0.4C43.6,31.2,44.7,31.7,45.5,31.9z"/>
		<path class="st2" d="M47.8,23c0.1-0.2,0.2-0.4,0.2-0.6c0-0.3-0.2-0.6-0.3-0.8c-1.1-1.3-2.7-2-4.3-2.5c-0.5-0.2-1-0.3-1.5-0.4    c-0.8-0.1-1.6,0.1-2.4,0.2c-0.8,0.2-1.6,0.4-2.3,0.8c-0.7,0.4-1.4,1-1.7,1.7c-0.2,0.4-0.3,0.9-0.3,1.4c-0.1,0.8-0.1,1.5-0.1,2.3    c0,0.1,0,0.3,0.1,0.4c0.1,0.1,0.1,0.2,0.2,0.3c0.5,0.4,1.2,0.6,1.9,0.6c0.7,0,1.4-0.1,2-0.2c1.5-0.1,3.1,0.3,4.5-0.3    c0.4-0.2,0.7-0.4,1.1-0.6c0.3-0.1,0.7-0.1,1-0.2C46.7,24.8,47.3,23.6,47.8,23z"/>
		<path class="st2" d="M44.6,95.6c-0.6-0.2-1.2-0.2-1.7,0c-0.2,0.1-0.4,0.3-0.6,0.4c-0.5,0.3-1.1,0.4-1.7,0.2    c-0.5-0.2-1-0.6-1.2-1.1c-0.1-0.3-0.2-0.7,0-1c0.2-0.3,0.7-0.3,1-0.2c1.1,0.1,2.2,0.2,3.4,0.3c0.3,0,0.7,0,0.9,0.3    C44.8,94.6,44.5,95.6,44.6,95.6z"/>
		<path class="st1" d="M40.3,136.3c0.3,0.4,0.5,0.9,0.7,1.3c0.4,1.5,0.5,3.1,0.2,4.6c-0.1,0.5-0.2,1-0.3,1.5    c-0.1,0.8-0.1,1.6-0.1,2.4c0,1-0.1,2-0.3,2.9c-0.2,1.2-0.5,2.4-1.3,3.3c-0.8,0.9-2.1,1.4-3.2,0.9c-1.2-0.6-1.6-2-1.8-3.4    c-0.2-1.4-0.3-2.8-0.1-4.2c0.1-0.7,0.3-1.4,0.4-2.2c0.4-1.4,0.7-2.9,1.1-4.3c0.1-0.5,0.2-0.9,0.5-1.3c0.5-0.8,1.4-1.2,2.2-1.7    C38.9,135.8,39.6,135.5,40.3,136.3z"/>
		<path class="st1" d="M46.8,166.3c-0.4-0.2-0.8-0.4-1.1-0.8c-0.2-0.3-0.3-0.6-0.5-0.9c-0.4-0.7-0.9-1.2-1.6-1.6    c-0.2-0.1-0.4-0.2-0.5-0.4c-0.1-0.2-0.1-0.5-0.1-0.7c0.1-1,0.2-2,0.3-3c0.1-0.9,0.4-1.8,1.1-2.3c0.5-0.3,1.2-0.4,1.8-0.2    s1.1,0.5,1.6,0.8c1.9,1.5,3.2,3.6,4.4,5.8c0.4,0.6,0.9,1.5,0.7,2.3c-0.1,0.7-0.9,0.9-1.4,1.1C50,167,48.3,167,46.8,166.3z"/>
		<path class="st5" d="M49.9,48.7c-0.1-0.1-0.2-0.1-0.3-0.2c-0.1,0.6-0.2,1.2-0.5,1.8c-0.1,0.3-0.3,0.7-0.4,1    c-0.1,0.4-0.1,0.8-0.1,1.2c0,1.1-0.2,2.1-0.6,3.1c-0.1,0.4-0.3,0.8-0.6,1.1c-0.3,0.3-0.6,0.6-0.9,0.9c-1.7,1.3-3.7,2.4-5.8,2.2    c-0.4,0-0.8-0.1-1.1-0.3c-0.9-0.4-1.4-1.4-1.6-2.4c-0.2-1,0-2,0.3-2.9c0.2-0.6,0.4-1.3,0.3-1.9c-0.1-0.6-0.4-1.2-0.5-1.8    c-0.1-0.5-0.2-1-0.1-1.5c0-0.2,0.1-0.5-0.1-0.6c-0.1-0.1-0.2-0.1-0.3-0.1c-0.3-0.1-0.6-0.5-0.6-0.9c-0.1-0.4,0-0.7,0-1.1    c0.2-1.5,0.5-3,1.2-4.4c0.6-1.3,1.5-2.5,2.5-3.4c0.7-0.6,1.6-1.2,2.5-1.4c0.9-0.2,2-0.1,2.8,0.5c0.4,0.3,0.8,0.7,1.1,1.1    c0.9,0.8,2.3,1.2,2.9,2.2c0.8,1.3,0.2,3.1,0.4,4.6c0.1,0.6,0.3,1.2,0.2,1.9C50.6,47.8,50.2,48.3,49.9,48.7z"/>
		<path class="st4" d="M38.4,44l1.4,1c-0.1,0.2-0.2,0.5-0.2,0.8c0,1.1,0.9,2,2,2c1,0,1.9-0.8,2-1.8l1.5,0.2c0,0.1,0,0.3,0,0.4    c0,1.1,0.9,2,2,2c1.1,0,2-0.9,2-2c0-0.1,0-0.1,0-0.2l1.5-0.5v-0.4l-1.6,0.5c-0.2-0.9-1-1.5-1.9-1.5c-0.9,0-1.6,0.5-1.9,1.3    l-1.6-0.3c-0.1-1.1-0.9-1.9-2-1.9c-0.7,0-1.3,0.4-1.7,0.9l-1.6-1.1V44z M45.3,46.7c0-1,0.8-1.8,1.8-1.8c1,0,1.8,0.8,1.8,1.8    c0,1-0.8,1.8-1.8,1.8C46.1,48.5,45.3,47.7,45.3,46.7z M39.8,45.8c0-1,0.8-1.8,1.8-1.8c1,0,1.8,0.8,1.8,1.8c0,1-0.8,1.8-1.8,1.8    C40.6,47.6,39.8,46.8,39.8,45.8z"/>
		<path class="st2" d="M49.7,43.4c-0.1,0-0.2-0.2-0.2-0.3c0-0.6,0.2-1.2,0.1-1.8s-0.4-1.2-1-1.4c-0.2-0.1-0.5,0-0.7,0    c-0.4,0.1-0.7,0.2-1,0.4c-0.1,0.1-0.2,0.2-0.4,0.2s-0.3-0.1-0.3-0.2c0,0.2-0.1,0.4-0.2,0.6c-0.1,0.2-0.4,0.3-0.6,0.2    c-0.4-0.1-0.4-0.7-0.7-1c-0.1-0.1-0.4-0.2-0.6-0.1c-0.1,0-0.2,0.1-0.2,0.1c-0.1,0-0.2,0-0.2,0c-0.3,0-0.5,0-0.8,0    c-0.1,0-0.2,0-0.3,0c-0.3-0.1-0.3-0.5-0.1-0.7s0.4-0.4,0.6-0.6c0.2-0.2,0.4-0.4,0.4-0.7c0-0.2-0.1-0.4,0-0.5c0,0,0.1-0.1,0.1-0.1    c0-0.1-0.1-0.2-0.3-0.2c-0.2,0-0.3,0-0.4,0.1c0,0.1-0.1,0.1-0.1,0.2c-0.1,0.2-0.2,0.4-0.4,0.4c-0.2,0-0.4-0.2-0.3-0.4    c-0.4-0.1-0.8,0.3-1,0.7c-0.2,0.4-0.2,0.9-0.4,1.3c-0.2,0.4-0.4,0.8-0.5,1.3c-0.1,0.4-0.1,0.7-0.2,1.1c-0.1,0.3-0.3,0.7-0.4,1    c-0.2,0.4-0.3,0.8-0.4,1.3c-0.1,0.5-0.3,1-0.4,1.5c-0.3-0.7,0.1-1.6-0.3-2.3c-0.1-0.1-0.3-0.3-0.5-0.3c-0.5,0-0.4,0.9-0.9,1    c0.1-1,0.3-2,0.6-3c0.1-0.1,0.1-0.3,0.1-0.5c0-0.1-0.1-0.3-0.2-0.4c-0.2-0.3-0.4-0.7-0.3-1.1c0.2-0.4,0.7-0.6,0.9-1    c0.1-0.3,0.1-0.6,0.4-0.8c0.2-0.1,0.4-0.2,0.6-0.3c0.5-0.2,0.9-0.6,1.3-0.8c0.4-0.2,0.9-0.3,1.4-0.4c0.3-0.1,0.7-0.1,1-0.2    c0.9-0.2,1.7-0.3,2.6-0.2c0.4,0.1,0.7,0.2,1.1,0.3c0.5,0.2,0.9,0.4,1.4,0.5c0.2,0.1,0.3,0.1,0.5,0.2c0.1,0.1,0.2,0.3,0.3,0.4    c0.4,0.6,1,0.9,1.4,1.4c1,1,1.4,2.5,1.1,3.9c-0.1,0.3-0.2,0.6-0.2,0.8c-0.2,1,0.2,2.1-0.4,3c-0.1,0.1-0.2,0.2-0.3,0.2    c-0.2-0.1-0.3-0.6-0.4-0.8c-0.1-0.2-0.2-0.4-0.3-0.5c-0.1-0.3-0.2-0.6-0.2-0.8C49.4,44.3,49.6,43.4,49.7,43.4z"/>
		<path class="st5" d="M62,76.9c-0.4,0-0.8,0-1.1-0.2c-0.2-0.1-0.4-0.3-0.6-0.5c-1.1-1.3-2.3-2.7-3.4-4c-0.3-0.4-0.6-0.8-0.9-1.2    c-0.9-1.7,0-3.8-0.5-5.7c-0.3-1.1-1-2-1.7-2.9c-0.3-0.4-0.7-0.9-1.2-1.1c-0.9-0.3-1.8,0.3-2.8,0.2c0.2,0.5-0.4,0.8-0.8,1.1    c-0.7,0.5-1,1.3-1,2.1c0,0.1,0,0.3,0.1,0.4c0.1,0.1,0.3,0.2,0.5,0.2c0.4,0.1,0.8,0.1,1.2,0.2c1.2,0.2,2.7,0.5,3.2,1.6    c0.3,0.6,0.2,1.4-0.1,2c-0.3,0.6-0.7,1.2-1.1,1.7c-0.1,0.2-0.3,0.3-0.3,0.5c-0.1,0.5,0.5,0.9,0.9,1.2c0.7,0.6,1,1.4,1.1,2.3    c0.2,0.8,0.2,1.7,0.3,2.6c0.3,1.5,1,2.8,1.7,4.1c0.3,0.5,0.5,1,0.9,1.4c0.3,0.3,0.7,0.6,1.1,0.9c0.6,0.4,1.2,0.9,1.7,1.3    c0.6,0.5,1.3,1,2,1.2c0.7,0.2,1.6,0.1,2.2-0.4c0.8-0.9,0.5-2.3,1.1-3.4c0.3-0.5,0.7-0.9,1-1.3C66.9,78.8,63.9,77.1,62,76.9z"/>
		<path class="st5" d="M35.5,67.1c-0.3-0.2-0.6-0.3-0.9-0.4c-0.4,0-0.8,0.2-1.2,0.4c-0.5,0.3-1,0.6-1.6,0.9    c-0.2,0.1-0.5,0.3-0.6,0.5c-0.2,0.3-0.3,0.7-0.4,1c-0.2,0.8-0.4,1.5-0.6,2.3c-0.1,0.3-0.2,0.6-0.3,0.9c-0.2,0.3-0.4,0.6-0.7,0.8    c-0.7,0.7-1.5,1.4-2.3,2c-0.3,0.2-0.7,0.4-1.1,0.4c-0.2,0-0.5-0.1-0.7-0.2c-0.7-0.2-1.5-0.1-2.2,0.1c-0.5,0.1-0.9,0.2-1.4,0.3    c-0.2,0-0.5,0.1-0.6,0.2c-0.2,0.1-0.3,0.3-0.4,0.5c-0.3,0.6-0.6,1.2-0.4,1.8c0.1,0.4,0.5,0.8,0.7,1.1c0.7,1.1,0.6,2.7,1.6,3.4    c0.9,0.6,2,0.3,3,0c0.8-0.2,1.5-0.5,2.2-0.9c2.3-1.4,3.1-4.5,5.3-6.1c0.1-0.1,0.2-0.2,0.3-0.3c0.3-0.4,0-1-0.2-1.6    c-0.3-1.1,0.4-2.4,1.4-3c0.9-0.5,2.8-0.3,3.2-1.5c0.2-0.6-0.3-0.9-0.6-1.3C36.5,68.1,36.2,67.5,35.5,67.1z"/>
		<path class="st5" d="M45.1,119.8c-1,3.3-0.8,6.9,0.6,10c0.3,0.6,0.6,1.2,0.6,1.9c0,0.5-0.1,1-0.3,1.4c-1.2,4.4-1.1,9-0.6,13.5    c0.2,1.5,0.4,3,0.1,4.5c-0.2,1.1-0.6,2.1-0.9,3.1c-0.6,1.8-0.9,3.7-1,5.7c0.4,0.4,1.1,0.4,1.4,0c0.2-0.2,0.3-0.5,0.5-0.7    c0.4-0.5,1.2-0.7,1.9-0.5c0.7,0.1,1.3,0.5,1.9,0.9c-0.2-1-0.4-1.9-0.6-2.9c-0.1-0.6-0.2-1.2-0.2-1.8c0-1,0.4-1.9,0.8-2.8    c1.3-3.3,2.1-6.8,3-10.2c0.5-2.2,1.1-4.4,1.1-6.6c0.1-2.9-0.7-5.7-0.3-8.6c0.2-1.7,1.7-4.9-0.7-5.4    C51.9,121.1,45.1,119.8,45.1,119.8z"/>
		<path class="st5" d="M39,128.7c0.1,0.4,0.3,0.7,0.5,1.1c0.4,1.1,0.3,2.5-0.1,3.6c-0.2,0.5-0.4,1-0.4,1.5c0.1,0.3,0.2,0.6,0.4,0.9    c1.3,2.3,1.5,5.2,0.6,7.7c-0.6-0.6-1.5-0.8-2.3-0.7c-0.5,0.1-1,0.3-1.5,0.2c-0.6-0.2-0.8-1-0.7-1.6c0.1-0.6,0.4-1.2,0.4-1.9    c0.1-1.1-0.5-2.1-1.3-2.9c-0.7-0.8-1.6-1.5-2.3-2.3c-1.2-1.6-1.4-3.7-1.6-5.7c-0.1-2.1-0.2-4.2-0.2-6.2c1.3,0.8,3,0.8,4.5,0.6    c1-0.2,2-0.4,3-0.6c1.2-0.2,1.8-0.3,1.6,1.1C39.6,125.1,38.4,126.9,39,128.7z"/>
		<path class="st5" d="M53.6,50.3c-0.1-0.2-0.2-0.4-0.4-0.6c-0.2-0.2-0.5-0.3-0.8-0.4c-0.3-0.2-0.6-0.4-0.8-0.7    c0.1-0.1,0-0.3-0.1-0.4c-0.3-0.3-0.8-0.7-1.2-0.6c-0.2,0-0.3,0.2-0.5,0.3c-0.4,0.3-0.7,0.7-0.9,1.1c-0.2,0.2-0.3,0.5-0.2,0.8    c0.1,0.3,0.4,0.5,0.7,0.6c1,0.4,2.1,0.8,3.2,1.2C53.6,51.9,53.9,51.4,53.6,50.3z"/>
		<path class="st5" d="M35.9,52.5c0.2,0.5,0.2,1,0.1,1.6c-0.2,0-0.3-0.1-0.4-0.2c-0.1,0.1-0.2,0.3-0.3,0.4s-0.3,0.1-0.5,0    c-0.1-0.1-0.2-0.2-0.3-0.2c0.1,0.3-0.1,0.6-0.3,0.8s-0.6,0-0.8-0.3c-0.1,0.3-0.2,0.6-0.5,0.5c-0.1,0-0.2-0.1-0.3-0.2    c-0.4-0.3-0.7-0.7-0.9-1.1c0.1,0.4,0.3,0.9,0.3,1.4c0,0.1,0,0.1,0,0.2c0,0-0.1,0-0.1,0c-0.5,0-1-0.4-1.2-0.9    c-0.2-0.5-0.2-1-0.2-1.5c0-0.2,0-0.3,0.1-0.5c0.1-0.1,0.2-0.2,0.3-0.3c0.4-0.4,0.9-0.7,1.4-1.1c0.3-0.2,1.2-1,1.6-1    C34.6,50.2,35.6,51.9,35.9,52.5z"/>
		<path class="st5" d="M43.5,21c-1-0.5-2.1-0.7-3.2-0.7c-0.7,0-1.5,0-2.1,0.4c-0.9,0.4-1.5,1.3-2,2.2c-0.5,0.9-1,1.9-0.8,2.9    c-0.3-0.1-0.5,0.3-0.5,0.6c-0.1,0.9,0.2,2,1.1,2.3c0.4,0.1,1,0.1,1.2,0.5c0.1,0.1,0.1,0.3,0.1,0.4c0,0.8-0.1,1.8-0.7,2.3    c1.4,0.8,3,1.1,4.6,0.9c0.5-0.1,1-0.2,1.4-0.4c0.4-0.3,0.8-0.7,0.8-1.2c0-0.2,0-0.3,0-0.5c0-0.3,0.2-0.5,0.4-0.7    c0.3-0.4,0.7-0.9,1.3-1.1c0.2-0.1,0.4-0.1,0.5-0.1c0.3-0.2,0.6-0.6,0.7-1c0.1-0.2,0.1-0.5-0.1-0.7c-0.1-0.1-0.4,0-0.5-0.1    c-0.3-0.4,0.3-1.1,0.4-1.6C46.2,23.7,45,21.8,43.5,21z"/>
	</g>
</g>
</svg>